<?xml version="1.0" encoding="UTF-8" standalone="no"?>
<!-- Created with Inkscape (http://www.inkscape.org/) -->

<svg
   xmlns:dc="http://purl.org/dc/elements/1.1/"
   xmlns:cc="http://creativecommons.org/ns#"
   xmlns:rdf="http://www.w3.org/1999/02/22-rdf-syntax-ns#"
   xmlns:svg="http://www.w3.org/2000/svg"
   xmlns="http://www.w3.org/2000/svg"
   xmlns:sodipodi="http://sodipodi.sourceforge.net/DTD/sodipodi-0.dtd"
   xmlns:inkscape="http://www.inkscape.org/namespaces/inkscape"
   width="1000"
   height="1000"
   id="svg6317"
   version="1.1"
   inkscape:version="0.48.3.1 r9886"
   sodipodi:docname="New document 38">
  <defs
     id="defs5498" />
  <sodipodi:namedview
     inkscape:window-height="618"
     inkscape:window-width="641"
     inkscape:pageshadow="2"
     inkscape:pageopacity="0.0"
     borderopacity="1.0"
     bordercolor="#666666"
     pagecolor="#ffffff"
     id="base"
     showgrid="false"
     showguides="true"
     inkscape:guide-bbox="true"
     inkscape:zoom="0.454"
     inkscape:cx="500"
     inkscape:cy="500"
     inkscape:window-x="0"
     inkscape:window-y="31"
     inkscape:current-layer="layer1"
     inkscape:window-maximized="0">
    <sodipodi:guide
       orientation="horizontal"
       position="200"
       id="guide5596" />
  </sodipodi:namedview>
  <metadata
     id="metadata5594">
    <rdf:RDF>
      <cc:Work
         rdf:about="">
        <dc:format>image/svg+xml</dc:format>
        <dc:type
           rdf:resource="http://purl.org/dc/dcmitype/StillImage" />
        <dc:title></dc:title>
      </cc:Work>
    </rdf:RDF>
  </metadata>
  <g
     inkscape:label="Layer 1"
     inkscape:groupmode="layer"
     id="layer1">
    <path
       style="fill:#000000;fill-opacity:1;stroke:none"
       d="m 635.7888,49.93754 c -52.0336,0.25445 -112.7396,16.11107 -142.09379,68.15627 -38.94117,69.04289 -39.34763,104.43629 -47.7698,220.31029 -2.50788,34.504 -12.4176,43.1942 -42.41324,47.4843 -79.57707,11.3815 -100.71103,31.8633 -103.00446,62.6116 -4.9601,66.5007 51.23168,77.3358 120.45982,80.0223 18.80252,0.7297 27.97751,20.4142 24.88393,42.7902 -18.81581,136.0955 -4.67836,228.683 73.75,228.6875 53.57974,0 51.47914,-104.431 52.96874,-234.4598 0.4123,-35.986 12.37,-38.9035 42.9201,-40.2321 72.5271,-3.1542 106.03112,-34.7772 105.92362,-73.9018 -0.1305,-47.5056 -33.06132,-58.8132 -104.83482,-67.8795 -44.662,-5.6416 -49.8975,-23.2086 -51.61778,-62.2319 C 559.84831,205.3144 628.2611,182.9082 666.4138,193.25 746.68222,215.0079 798.87062,189.4078 771.94502,117.06251 757.22002,77.49871 698.5879,49.63044 635.7888,49.93754 z"
       id="path6303"
       inkscape:connector-curvature="0"
       sodipodi:nodetypes="ssssssssssssssss" />
  </g>
</svg>
