<?xml version="1.0" encoding="UTF-8" standalone="no"?>
<!-- Created with Inkscape (http://www.inkscape.org/) -->

<svg
   xmlns:dc="http://purl.org/dc/elements/1.1/"
   xmlns:cc="http://creativecommons.org/ns#"
   xmlns:rdf="http://www.w3.org/1999/02/22-rdf-syntax-ns#"
   xmlns:svg="http://www.w3.org/2000/svg"
   xmlns="http://www.w3.org/2000/svg"
   xmlns:sodipodi="http://sodipodi.sourceforge.net/DTD/sodipodi-0.dtd"
   xmlns:inkscape="http://www.inkscape.org/namespaces/inkscape"
   width="1000"
   height="1000"
   id="svg4483"
   version="1.1"
   inkscape:version="0.48.3.1 r9886"
   sodipodi:docname="New document 23">
  <defs
     id="defs5498" />
  <sodipodi:namedview
     inkscape:window-height="618"
     inkscape:window-width="641"
     inkscape:pageshadow="2"
     inkscape:pageopacity="0.0"
     borderopacity="1.0"
     bordercolor="#666666"
     pagecolor="#ffffff"
     id="base"
     showgrid="false"
     showguides="true"
     inkscape:guide-bbox="true"
     inkscape:zoom="0.454"
     inkscape:cx="500"
     inkscape:cy="500"
     inkscape:window-x="0"
     inkscape:window-y="31"
     inkscape:current-layer="layer1"
     inkscape:window-maximized="0">
    <sodipodi:guide
       orientation="horizontal"
       position="200"
       id="guide5596" />
  </sodipodi:namedview>
  <metadata
     id="metadata5594">
    <rdf:RDF>
      <cc:Work
         rdf:about="">
        <dc:format>image/svg+xml</dc:format>
        <dc:type
           rdf:resource="http://purl.org/dc/dcmitype/StillImage" />
        <dc:title></dc:title>
      </cc:Work>
    </rdf:RDF>
  </metadata>
  <g
     inkscape:label="Layer 1"
     inkscape:groupmode="layer"
     id="layer1">
    <path
       style="fill:#000000"
       d="m 358.67714,800 c -96.2792,-0.9638 -79.9853,-202.9584 -84.6818,-379.304 -4.6966,-176.3455 -5.5246,-414.4075 83.4464,-417.6039 88.971,-3.1963 82.4231,107.8477 86.0179,183.3364 3.5947,75.4887 9.8114,144.2986 36.4021,170.4459 26.5907,26.1473 28.1158,23.1069 76.2391,30.3903 48.1232,7.2833 121.44915,50.3276 122.79155,227.2203 C 680.23469,791.3777 663.57484,800 598.69894,800 c -64.8759,0 -57.6629,-68.4131 -61.2703,-149.2183 -3.6074,-80.8053 -11.8,-119.3101 -54.4961,-120.9537 -42.6961,-1.6436 -39.8787,13.7369 -45.3712,107.4086 -5.4924,93.6717 17.395,163.7272 -78.8842,162.7634 z"
       id="path3164"
       inkscape:connector-curvature="0"
       sodipodi:nodetypes="zzzzzzzzzzzz" />
  </g>
</svg>
