<?xml version="1.0" encoding="UTF-8" standalone="no"?>
<!-- Created with Inkscape (http://www.inkscape.org/) -->

<svg
   xmlns:dc="http://purl.org/dc/elements/1.1/"
   xmlns:cc="http://creativecommons.org/ns#"
   xmlns:rdf="http://www.w3.org/1999/02/22-rdf-syntax-ns#"
   xmlns:svg="http://www.w3.org/2000/svg"
   xmlns="http://www.w3.org/2000/svg"
   xmlns:sodipodi="http://sodipodi.sourceforge.net/DTD/sodipodi-0.dtd"
   xmlns:inkscape="http://www.inkscape.org/namespaces/inkscape"
   width="1000"
   height="1000"
   id="svg6689"
   version="1.1"
   inkscape:version="0.48.3.1 r9886"
   sodipodi:docname="New document 59">
  <defs
     id="defs5498" />
  <sodipodi:namedview
     inkscape:window-height="618"
     inkscape:window-width="641"
     inkscape:pageshadow="2"
     inkscape:pageopacity="0.0"
     borderopacity="1.0"
     bordercolor="#666666"
     pagecolor="#ffffff"
     id="base"
     showgrid="false"
     showguides="true"
     inkscape:guide-bbox="true"
     inkscape:zoom="0.227"
     inkscape:cx="500"
     inkscape:cy="682.18146"
     inkscape:window-x="0"
     inkscape:window-y="31"
     inkscape:current-layer="layer1"
     inkscape:window-maximized="0">
    <sodipodi:guide
       orientation="horizontal"
       position="200"
       id="guide5596" />
  </sodipodi:namedview>
  <metadata
     id="metadata5594">
    <rdf:RDF>
      <cc:Work
         rdf:about="">
        <dc:format>image/svg+xml</dc:format>
        <dc:type
           rdf:resource="http://purl.org/dc/dcmitype/StillImage" />
        <dc:title></dc:title>
      </cc:Work>
    </rdf:RDF>
  </metadata>
  <g
     inkscape:label="Layer 1"
     inkscape:groupmode="layer"
     id="layer1">
    <path
       sodipodi:nodetypes="zzzzzzszzzzzzzzzz"
       inkscape:connector-curvature="0"
       id="path6676"
       d="m 413.51502,420.83323 c -51.8453,1.1087 -100.46551,34.5314 -123.59111,64.5612 -23.1255,30.0297 -46.6239,114.5319 -25.6983,179.644 20.9255,65.112 47.8891,102.7527 113.56551,127.9528 65.6764,25.2002 121.51078,-29.8743 121.61048,102.46 0.1,132.33437 166.22195,121.83887 208.37473,79.3087 42.15277,-42.5302 40.08614,-104.1651 -2.30228,-109.9612 -52.44401,-7.17108 -81.15598,-9.74318 -76.08018,-106.42228 5.0758,-96.6791 20.59413,-203.02662 19.18803,-261.60362 -1.4061,-58.577 -29.9513,-65.5451 -74.1125,-65.1741 -44.1612,0.3711 -37.8532,18.6722 -67.0762,14.1463 -29.223,-4.5259 -42.03293,-26.0205 -93.87818,-24.9118 z m 36.7183,124.3222 c 45.48868,-0.3867 72.67378,32.4326 72.67378,80.6139 0,48.1812 -37.6309,68.016 -70.56716,66.1887 -32.93612,-1.8273 -68.68722,-19.1678 -69.28322,-75.6834 -0.596,-56.5156 21.6878,-70.7327 67.1766,-71.1192 z"
       style="fill:#000000;fill-opacity:1;stroke:none" />
  </g>
</svg>
