<?xml version="1.0" encoding="UTF-8" standalone="no"?>
<!-- Created with Inkscape (http://www.inkscape.org/) -->

<svg
   xmlns:dc="http://purl.org/dc/elements/1.1/"
   xmlns:cc="http://creativecommons.org/ns#"
   xmlns:rdf="http://www.w3.org/1999/02/22-rdf-syntax-ns#"
   xmlns:svg="http://www.w3.org/2000/svg"
   xmlns="http://www.w3.org/2000/svg"
   xmlns:sodipodi="http://sodipodi.sourceforge.net/DTD/sodipodi-0.dtd"
   xmlns:inkscape="http://www.inkscape.org/namespaces/inkscape"
   width="1000"
   height="1000"
   id="svg9568"
   version="1.1"
   inkscape:version="0.48.3.1 r9886"
   sodipodi:docname="New document 107">
  <defs
     id="defs5498" />
  <sodipodi:namedview
     inkscape:window-height="618"
     inkscape:window-width="641"
     inkscape:pageshadow="2"
     inkscape:pageopacity="0.0"
     borderopacity="1.0"
     bordercolor="#666666"
     pagecolor="#ffffff"
     id="base"
     showgrid="false"
     showguides="true"
     inkscape:guide-bbox="true"
     inkscape:zoom="1.2841059"
     inkscape:cx="500"
     inkscape:cy="267.03665"
     inkscape:window-x="0"
     inkscape:window-y="31"
     inkscape:current-layer="layer1"
     inkscape:window-maximized="0">
    <sodipodi:guide
       orientation="horizontal"
       position="200"
       id="guide5596" />
  </sodipodi:namedview>
  <metadata
     id="metadata5594">
    <rdf:RDF>
      <cc:Work
         rdf:about="">
        <dc:format>image/svg+xml</dc:format>
        <dc:type
           rdf:resource="http://purl.org/dc/dcmitype/StillImage" />
        <dc:title></dc:title>
      </cc:Work>
    </rdf:RDF>
  </metadata>
  <g
     inkscape:label="Layer 1"
     inkscape:groupmode="layer"
     id="layer1">
    <path
       style="fill:#000000;fill-opacity:1;stroke:none"
       d="m 349.48613,164.65561 c 4.3869,-99.958111 180.57919,-158.4794092 322.88559,-72.551311 142.3064,85.928211 103.7464,242.503011 47.1443,316.746011 -56.6021,74.243 -85.8449,64.4694 -117.3867,144.2003 -31.5418,79.731 -106.3115,55.803 -114.5012,20.7628 -8.1897,-35.0402 -16.367,-130.5886 63.954,-187.4443 80.321,-56.8557 82.5073,-126.4106 16.7155,-168.2536 -65.7918,-41.843 -223.19839,46.4982 -218.81149,-53.4599 z"
       id="path9510"
       inkscape:connector-curvature="0"
       sodipodi:nodetypes="zzzzzzzz" />
    <path
       style="fill:#000000"
       d="m 486.64442,778.21491 c -34.4122,-34.7384 11.6659,-113.5108 54.9507,-112.1186 43.2839,1.3923 57.8035,25.4512 60.0131,54.3479 2.208,28.8966 -7.6009,46.9059 -30.7857,63.202 -23.1856,16.2961 -49.7658,29.3072 -84.1781,-5.4313 z"
       id="path3226-1"
       inkscape:connector-curvature="0"
       sodipodi:nodetypes="zzzzz" />
  </g>
</svg>
