<?xml version="1.0" encoding="UTF-8" standalone="no"?>
<!-- Created with Inkscape (http://www.inkscape.org/) -->

<svg
   xmlns:dc="http://purl.org/dc/elements/1.1/"
   xmlns:cc="http://creativecommons.org/ns#"
   xmlns:rdf="http://www.w3.org/1999/02/22-rdf-syntax-ns#"
   xmlns:svg="http://www.w3.org/2000/svg"
   xmlns="http://www.w3.org/2000/svg"
   xmlns:sodipodi="http://sodipodi.sourceforge.net/DTD/sodipodi-0.dtd"
   xmlns:inkscape="http://www.inkscape.org/namespaces/inkscape"
   width="1000"
   height="1000"
   id="svg6215"
   version="1.1"
   inkscape:version="0.48.3.1 r9886"
   sodipodi:docname="New document 33">
  <defs
     id="defs5498" />
  <sodipodi:namedview
     inkscape:window-height="618"
     inkscape:window-width="641"
     inkscape:pageshadow="2"
     inkscape:pageopacity="0.0"
     borderopacity="1.0"
     bordercolor="#666666"
     pagecolor="#ffffff"
     id="base"
     showgrid="false"
     showguides="true"
     inkscape:guide-bbox="true"
     inkscape:zoom="0.454"
     inkscape:cx="500"
     inkscape:cy="500"
     inkscape:window-x="0"
     inkscape:window-y="31"
     inkscape:current-layer="layer1"
     inkscape:window-maximized="0">
    <sodipodi:guide
       orientation="horizontal"
       position="200"
       id="guide5596" />
  </sodipodi:namedview>
  <metadata
     id="metadata5594">
    <rdf:RDF>
      <cc:Work
         rdf:about="">
        <dc:format>image/svg+xml</dc:format>
        <dc:type
           rdf:resource="http://purl.org/dc/dcmitype/StillImage" />
        <dc:title></dc:title>
      </cc:Work>
    </rdf:RDF>
  </metadata>
  <g
     inkscape:label="Layer 1"
     inkscape:groupmode="layer"
     id="layer1">
    <path
       style="fill:#000000"
       d="m 475.29069,800 c -58.9764,-4.1076 -142.3936,-38.4478 -122.2941,-96.1063 20.0996,-57.6584 97.016,-13.1027 133.8573,-6.6525 36.8406,6.4504 45.6484,-42.6017 2.3937,-63.805 -43.2547,-21.2031 -125.0978,-95.675 -108.2112,-163.038 16.8865,-67.3629 63.0836,-85.1768 135.0342,-88.8552 71.9506,-3.6783 162.0743,34.2149 132.6867,91.2889 -29.3877,57.074 -150.6989,-46.1488 -158.8013,17.7618 -8.1026,63.9106 95.9799,56.6121 125.0141,110.449 29.0342,53.837 15.4598,124.2868 -15.1239,156.2576 -30.5836,31.9707 -65.5791,46.8072 -124.5555,42.6997 z"
       id="path3238"
       inkscape:connector-curvature="0"
       sodipodi:nodetypes="zzzzzzzzzzz" />
  </g>
</svg>
