<?xml version="1.0" encoding="UTF-8" standalone="no"?>
<!-- Created with Inkscape (http://www.inkscape.org/) -->

<svg
   xmlns:dc="http://purl.org/dc/elements/1.1/"
   xmlns:cc="http://creativecommons.org/ns#"
   xmlns:rdf="http://www.w3.org/1999/02/22-rdf-syntax-ns#"
   xmlns:svg="http://www.w3.org/2000/svg"
   xmlns="http://www.w3.org/2000/svg"
   xmlns:sodipodi="http://sodipodi.sourceforge.net/DTD/sodipodi-0.dtd"
   xmlns:inkscape="http://www.inkscape.org/namespaces/inkscape"
   width="1000"
   height="1000"
   id="svg7266"
   version="1.1"
   inkscape:version="0.48.3.1 r9886"
   sodipodi:docname="New document 88">
  <defs
     id="defs5498" />
  <sodipodi:namedview
     inkscape:window-height="618"
     inkscape:window-width="641"
     inkscape:pageshadow="2"
     inkscape:pageopacity="0.0"
     borderopacity="1.0"
     bordercolor="#666666"
     pagecolor="#ffffff"
     id="base"
     showgrid="false"
     showguides="true"
     inkscape:guide-bbox="true"
     inkscape:zoom="1.816"
     inkscape:cx="500"
     inkscape:cy="188.83017"
     inkscape:window-x="0"
     inkscape:window-y="31"
     inkscape:current-layer="layer1"
     inkscape:window-maximized="0">
    <sodipodi:guide
       orientation="horizontal"
       position="200"
       id="guide5596" />
  </sodipodi:namedview>
  <metadata
     id="metadata5594">
    <rdf:RDF>
      <cc:Work
         rdf:about="">
        <dc:format>image/svg+xml</dc:format>
        <dc:type
           rdf:resource="http://purl.org/dc/dcmitype/StillImage" />
        <dc:title></dc:title>
      </cc:Work>
    </rdf:RDF>
  </metadata>
  <g
     inkscape:label="Layer 1"
     inkscape:groupmode="layer"
     id="layer1">
    <path
       style="fill:#000000"
       d="m 437.54759,755.86889 c -23.7939,-52.4192 -24.6066,-102.7508 -24.843,-153.8108 -0.2364,-51.06 -7.8006,-89.2493 -31.5307,-92.1065 -23.7302,-2.8571 -34.2386,-0.6956 -55.2538,-16.0623 -21.0152,-15.3666 -29.2099,-34.7222 -15.2829,-65.2886 13.927,-30.5664 37.2093,-29.7686 67.379,-35.8026 30.1697,-6.0339 39.2597,-17.9519 50.3325,-55.5166 11.0728,-37.5647 20.7417,-53.7976 52.3195,-53.7976 31.5778,0 38.2308,12.5978 42.0615,52.3285 3.8307,39.7307 15.6174,50.8999 45.3206,50.8999 29.7032,0 64.5254,31.1295 59.4297,67.0752 -5.0957,35.9457 -34.4189,38.6035 -56.5614,43.4409 -22.1425,4.8375 -36.3146,3.1168 -49.1583,19.3406 -12.8437,16.2237 -10.1489,71.5983 -7.496,90.9533 2.6529,19.3551 12.1258,51.8816 46.1528,77.0024 34.027,25.1209 43.7989,61.5817 12.4981,94.5502 -31.3008,32.9685 -111.5737,29.2132 -135.3676,-23.206 z"
       id="path3148"
       inkscape:connector-curvature="0"
       sodipodi:nodetypes="zzzzzzzzzzzzzzzzz" />
  </g>
</svg>
