<?xml version="1.0" encoding="UTF-8" standalone="no"?>
<!-- Created with Inkscape (http://www.inkscape.org/) -->

<svg
   xmlns:dc="http://purl.org/dc/elements/1.1/"
   xmlns:cc="http://creativecommons.org/ns#"
   xmlns:rdf="http://www.w3.org/1999/02/22-rdf-syntax-ns#"
   xmlns:svg="http://www.w3.org/2000/svg"
   xmlns="http://www.w3.org/2000/svg"
   xmlns:sodipodi="http://sodipodi.sourceforge.net/DTD/sodipodi-0.dtd"
   xmlns:inkscape="http://www.inkscape.org/namespaces/inkscape"
   width="1000"
   height="1000"
   id="svg6751"
   version="1.1"
   inkscape:version="0.48.3.1 r9886"
   sodipodi:docname="New document 63">
  <defs
     id="defs5498" />
  <sodipodi:namedview
     inkscape:window-height="618"
     inkscape:window-width="641"
     inkscape:pageshadow="2"
     inkscape:pageopacity="0.0"
     borderopacity="1.0"
     bordercolor="#666666"
     pagecolor="#ffffff"
     id="base"
     showgrid="false"
     showguides="true"
     inkscape:guide-bbox="true"
     inkscape:zoom="0.454"
     inkscape:cx="500"
     inkscape:cy="500"
     inkscape:window-x="0"
     inkscape:window-y="31"
     inkscape:current-layer="layer1"
     inkscape:window-maximized="0">
    <sodipodi:guide
       orientation="horizontal"
       position="200"
       id="guide5596" />
  </sodipodi:namedview>
  <metadata
     id="metadata5594">
    <rdf:RDF>
      <cc:Work
         rdf:about="">
        <dc:format>image/svg+xml</dc:format>
        <dc:type
           rdf:resource="http://purl.org/dc/dcmitype/StillImage" />
        <dc:title></dc:title>
      </cc:Work>
    </rdf:RDF>
  </metadata>
  <g
     inkscape:label="Layer 1"
     inkscape:groupmode="layer"
     id="layer1">
    <path
       style="fill:#000000"
       d="m 379.00502,374.5371 c 52.68381,-3.3988 59.05301,64.068 58.85671,153.546 -0.1962,89.478 30.7496,121.5887 63.2721,121.5887 32.5226,0 51.5874,-34.3818 52.5756,-134.1923 0.9882,-99.8106 2.6263,-138.8431 65.5737,-141.553 62.9474,-2.7099 59.0583,94.9471 58.8564,220.1986 -0.2019,125.2514 -14.5128,170.744 -20.5869,183.7771 -6.0741,13.0331 -14.6471,22.8255 -44.8144,22.0978 -30.1673,-0.7277 -41.0808,-14.4418 -77.2373,-6.7361 -186.84981,39.8216 -222.57841,-120.1176 -222.56191,-267.9066 0.3982,-88.1792 13.3822,-147.4214 66.066,-150.8202 z"
       id="path3202-0-2"
       inkscape:connector-curvature="0"
       sodipodi:nodetypes="zzzzzzzzscz" />
  </g>
</svg>
