<?xml version="1.0" encoding="UTF-8" standalone="no"?>
<!-- Created with Inkscape (http://www.inkscape.org/) -->

<svg
   xmlns:dc="http://purl.org/dc/elements/1.1/"
   xmlns:cc="http://creativecommons.org/ns#"
   xmlns:rdf="http://www.w3.org/1999/02/22-rdf-syntax-ns#"
   xmlns:svg="http://www.w3.org/2000/svg"
   xmlns="http://www.w3.org/2000/svg"
   xmlns:sodipodi="http://sodipodi.sourceforge.net/DTD/sodipodi-0.dtd"
   xmlns:inkscape="http://www.inkscape.org/namespaces/inkscape"
   width="1000"
   height="1000"
   id="svg6813"
   version="1.1"
   inkscape:version="0.48.3.1 r9886"
   sodipodi:docname="New document 67">
  <defs
     id="defs5498" />
  <sodipodi:namedview
     inkscape:window-height="618"
     inkscape:window-width="641"
     inkscape:pageshadow="2"
     inkscape:pageopacity="0.0"
     borderopacity="1.0"
     bordercolor="#666666"
     pagecolor="#ffffff"
     id="base"
     showgrid="false"
     showguides="true"
     inkscape:guide-bbox="true"
     inkscape:zoom="0.32102648"
     inkscape:cx="288.96864"
     inkscape:cy="734.75291"
     inkscape:window-x="0"
     inkscape:window-y="31"
     inkscape:current-layer="layer1"
     inkscape:window-maximized="0">
    <sodipodi:guide
       orientation="horizontal"
       position="200"
       id="guide5596" />
  </sodipodi:namedview>
  <metadata
     id="metadata5594">
    <rdf:RDF>
      <cc:Work
         rdf:about="">
        <dc:format>image/svg+xml</dc:format>
        <dc:type
           rdf:resource="http://purl.org/dc/dcmitype/StillImage" />
        <dc:title></dc:title>
      </cc:Work>
    </rdf:RDF>
  </metadata>
  <g
     inkscape:label="Layer 1"
     inkscape:groupmode="layer"
     id="layer1">
    <path
       style="fill:#000000"
       d="m 489.61651,374.5371 c 52.6839,-3.3988 59.0529,64.068 58.8567,153.546 -0.1963,89.478 30.7495,121.5887 63.2721,121.5887 32.5225,0 51.5874,-34.3818 52.5756,-134.1923 0.9882,-99.8106 2.6264,-138.8431 65.57368,-141.553 62.9474,-2.7098 59.0583,94.9471 58.8564,220.1986 -0.2019,125.2514 -14.5128,170.744 -20.5869,183.7771 -6.0741,13.0331 -14.6471,22.8254 -44.8144,22.0978 -30.16718,-0.7277 -41.92878,-17.6895 -77.23728,-6.7361 -35.3085,10.9535 -104.0637,1.7104 -117.5569,-11.7828 -13.4932,-13.4932 -20.7048,-27.436 -40.1043,-30.1042 -19.3995,-2.6682 -32.14222,15.02264 -68.41172,35.40724 -36.2695,20.3846 -145.13648,18.68406 -180.93298,-20.81464 -35.7965,-39.4986 -38.1292,-106.725 -39.5578,-206.2335 -1.4286,-99.5085 -2.9783,-188.1954 53.1449,-185.2389 56.1233,2.9565 66.6243,59.1356 66.8687,149.7013 0.2445,90.5657 17.7802,132.5635 47.7929,132.5635 30.0127,0 56.1953,-33.4287 56.1953,-131.4046 0,-97.9758 13.3822,-147.4214 66.066,-150.8202 z"
       id="path3202-5"
       inkscape:connector-curvature="0"
       sodipodi:nodetypes="zzzzzzzzzzzzzzzzzzz" />
  </g>
</svg>
