<?xml version="1.0" encoding="UTF-8" standalone="no"?>
<!-- Created with Inkscape (http://www.inkscape.org/) -->

<svg
   xmlns:dc="http://purl.org/dc/elements/1.1/"
   xmlns:cc="http://creativecommons.org/ns#"
   xmlns:rdf="http://www.w3.org/1999/02/22-rdf-syntax-ns#"
   xmlns:svg="http://www.w3.org/2000/svg"
   xmlns="http://www.w3.org/2000/svg"
   xmlns:sodipodi="http://sodipodi.sourceforge.net/DTD/sodipodi-0.dtd"
   xmlns:inkscape="http://www.inkscape.org/namespaces/inkscape"
   width="1000"
   height="1000"
   id="svg7034"
   version="1.1"
   inkscape:version="0.48.3.1 r9886"
   sodipodi:docname="New document 73">
  <defs
     id="defs5498" />
  <sodipodi:namedview
     inkscape:window-height="618"
     inkscape:window-width="641"
     inkscape:pageshadow="2"
     inkscape:pageopacity="0.0"
     borderopacity="1.0"
     bordercolor="#666666"
     pagecolor="#ffffff"
     id="base"
     showgrid="false"
     showguides="true"
     inkscape:guide-bbox="true"
     inkscape:zoom="0.227"
     inkscape:cx="500"
     inkscape:cy="238.06334"
     inkscape:window-x="0"
     inkscape:window-y="31"
     inkscape:current-layer="layer1"
     inkscape:window-maximized="0">
    <sodipodi:guide
       orientation="horizontal"
       position="200"
       id="guide5596" />
  </sodipodi:namedview>
  <metadata
     id="metadata5594">
    <rdf:RDF>
      <cc:Work
         rdf:about="">
        <dc:format>image/svg+xml</dc:format>
        <dc:type
           rdf:resource="http://purl.org/dc/dcmitype/StillImage" />
        <dc:title></dc:title>
      </cc:Work>
    </rdf:RDF>
  </metadata>
  <g
     inkscape:label="Layer 1"
     inkscape:groupmode="layer"
     id="layer1">
    <path
       style="fill:#000000;fill-opacity:1;stroke:none"
       d="m 337.21561,561.43162 c 7.6603,88.0084 15.4549,129.5537 55.9139,183.5023 40.4589,53.9487 105.35906,49.65295 97.89736,76.66015 -7.4616,27.007 -24.25535,42.10693 -52.65335,62.05703 -28.398,19.9503 -56.48003,41.44031 -43.21723,68.18901 13.2627,26.74858 40.9025,49.08879 88.2692,47.90168 47.3667,-1.18713 102.66785,-37.03717 157.79402,-154.82737 55.12617,-117.7902 77.346,-239.6698 75.725,-359.6304 -1.621,-119.9606 -138.9363,-79.9943 -133.5265,38.6702 5.4098,118.6646 -49.6126,179.1767 -94.0266,106.843 -44.4139,-72.3337 -0.3092,-218.139 -81.4266,-216.0204 -81.1173,2.1184 -78.4095,58.6463 -70.7492,146.6548 z"
       id="path6930"
       inkscape:connector-curvature="0"
       sodipodi:nodetypes="zzzzzzzzzzzz" />
  </g>
</svg>
