<?xml version="1.0" encoding="UTF-8" standalone="no"?>
<!-- Created with Inkscape (http://www.inkscape.org/) -->

<svg
   xmlns:dc="http://purl.org/dc/elements/1.1/"
   xmlns:cc="http://creativecommons.org/ns#"
   xmlns:rdf="http://www.w3.org/1999/02/22-rdf-syntax-ns#"
   xmlns:svg="http://www.w3.org/2000/svg"
   xmlns="http://www.w3.org/2000/svg"
   xmlns:sodipodi="http://sodipodi.sourceforge.net/DTD/sodipodi-0.dtd"
   xmlns:inkscape="http://www.inkscape.org/namespaces/inkscape"
   width="1000"
   height="1000"
   id="svg12237"
   version="1.1"
   inkscape:version="0.48.3.1 r9886"
   sodipodi:docname="New document 13">
  <defs
     id="defs5498" />
  <sodipodi:namedview
     inkscape:window-height="618"
     inkscape:window-width="641"
     inkscape:pageshadow="2"
     inkscape:pageopacity="0.0"
     borderopacity="1.0"
     bordercolor="#666666"
     pagecolor="#ffffff"
     id="base"
     showgrid="false"
     showguides="true"
     inkscape:guide-bbox="true"
     inkscape:zoom="0.454"
     inkscape:cx="500"
     inkscape:cy="500"
     inkscape:window-x="0"
     inkscape:window-y="31"
     inkscape:current-layer="layer1"
     inkscape:window-maximized="0">
    <sodipodi:guide
       orientation="horizontal"
       position="200"
       id="guide5596" />
  </sodipodi:namedview>
  <metadata
     id="metadata5594">
    <rdf:RDF>
      <cc:Work
         rdf:about="">
        <dc:format>image/svg+xml</dc:format>
        <dc:type
           rdf:resource="http://purl.org/dc/dcmitype/StillImage" />
        <dc:title></dc:title>
      </cc:Work>
    </rdf:RDF>
  </metadata>
  <g
     inkscape:label="Layer 1"
     inkscape:groupmode="layer"
     id="layer1">
    <path
       sodipodi:nodetypes="sssssssccsssssssss"
       inkscape:connector-curvature="0"
       style="fill:#000000;fill-opacity:1;stroke:none"
       d="m 476.79899,400 c -22.408,-0.2412 -45.99,5.9532 -69.04801,18.2873 -70.481,37.701 -104.857,125.6561 -89.867,229.9868 11.817,82.2414 44.374,109.0202 63.391,121.5179 21.221,13.9464 59.45401,30.208 110.31601,30.208 36.548,0 56.486,-8.3309 74.76,-18.7272 18.643,-10.6074 39.259,-25.2946 45.115,-15.0964 l 6.11,31.8035 72.407,-0.2831 c -22.8,-49.917 -39.29,-164.9256 -55.881,-221.8702 -16.374,-56.2011 -40.417,-100.9822 -60.505,-128.8655 -25.582,-35.5112 -65.127,-46.6202 -96.798,-46.9611 z m -18.165,70.1581 c 20.228,-4.7794 58.616,4.4921 77.36,40.0314 40.152,76.13 57.744,179.412 -4.252,211.3402 -61.522,31.684 -129.39501,-0.1638 -145.19701,-60.923 -13.374,-51.4217 -17.714,-89.2232 2.458,-130.2521 22.928,-46.6312 49.35101,-55.405 69.63101,-60.1965 z"
       id="path11035" />
  </g>
</svg>
