<?xml version="1.0" encoding="UTF-8" standalone="no"?>
<!-- Created with Inkscape (http://www.inkscape.org/) -->

<svg
   xmlns:dc="http://purl.org/dc/elements/1.1/"
   xmlns:cc="http://creativecommons.org/ns#"
   xmlns:rdf="http://www.w3.org/1999/02/22-rdf-syntax-ns#"
   xmlns:svg="http://www.w3.org/2000/svg"
   xmlns="http://www.w3.org/2000/svg"
   xmlns:sodipodi="http://sodipodi.sourceforge.net/DTD/sodipodi-0.dtd"
   xmlns:inkscape="http://www.inkscape.org/namespaces/inkscape"
   width="1000"
   height="1000"
   id="svg13875"
   version="1.1"
   inkscape:version="0.48.3.1 r9886"
   sodipodi:docname="New document 124">
  <defs
     id="defs5498" />
  <sodipodi:namedview
     inkscape:window-height="618"
     inkscape:window-width="641"
     inkscape:pageshadow="2"
     inkscape:pageopacity="0.0"
     borderopacity="1.0"
     bordercolor="#666666"
     pagecolor="#ffffff"
     id="base"
     showgrid="false"
     showguides="true"
     inkscape:guide-bbox="true"
     inkscape:zoom="0.454"
     inkscape:cx="500"
     inkscape:cy="500"
     inkscape:window-x="0"
     inkscape:window-y="31"
     inkscape:current-layer="layer1"
     inkscape:window-maximized="0">
    <sodipodi:guide
       orientation="horizontal"
       position="200"
       id="guide5596" />
  </sodipodi:namedview>
  <metadata
     id="metadata5594">
    <rdf:RDF>
      <cc:Work
         rdf:about="">
        <dc:format>image/svg+xml</dc:format>
        <dc:type
           rdf:resource="http://purl.org/dc/dcmitype/StillImage" />
        <dc:title></dc:title>
      </cc:Work>
    </rdf:RDF>
  </metadata>
  <g
     inkscape:label="Layer 1"
     inkscape:groupmode="layer"
     id="layer1">
    <path
       inkscape:connector-curvature="0"
       d="m 619.69371,361.4959 c 79.372,-27.0175 103.443,-136.8896 69.708,-192.9089 -15.877,-26.3652 -62.891,-54.3929 -99.938,-58.2398 -53.49,-5.5543 -86.307,-0.7251 -85.373,-0.2265 17.461,72.7974 21.874,193.2209 20.754,271.7105 43.114,-2.626 55.631,-6.9859 94.849,-20.3353 z m 40.677,322.2326 c 17.7,-17.9242 39.811,-46.6107 38.989,-84.4707 -2.265,-104.3144 -83.541,-139.2232 -175.233,-132.2439 -0.326,77.8687 -10.759,195.1594 -18.1,259.2292 51.587,2.1997 133.649,-21.5561 154.344,-42.5146 z m -271.031,116.3669 -1.263,-71.2354 43.767,-0.3419 c 26.62,-209.3909 31.47,-395.2727 0.486,-615.8083 l -43.28,-0.6403 -1.225,-66.579699 197.412,-2.4648 c 61.331,-0.7658 100.434,12.4331 123.701,30.6585 31.763,24.8817 67.227,60.044999 67.641,138.300299 0.608,114.7382 -47.052,157.3662 -64.848,178.4709 -18.143,21.278 -30.997,19.944 -9.361,43.7994 25.802,28.448 76.779,89.9154 77.202,159.5715 0.418,68.7433 -28.591,113.4772 -50.205,136.3278 -44.478,47.0215 -100.156,69.8466 -187.585,69.8466 0,0 -148.178,0 -152.442,0.095 z"
       style="fill:#000000"
       id="path12279"
       sodipodi:nodetypes="sssccsssccsccccccssscssssc" />
  </g>
</svg>
