<?xml version="1.0" encoding="UTF-8" standalone="no"?>
<!-- Created with Inkscape (http://www.inkscape.org/) -->

<svg
   xmlns:dc="http://purl.org/dc/elements/1.1/"
   xmlns:cc="http://creativecommons.org/ns#"
   xmlns:rdf="http://www.w3.org/1999/02/22-rdf-syntax-ns#"
   xmlns:svg="http://www.w3.org/2000/svg"
   xmlns="http://www.w3.org/2000/svg"
   xmlns:sodipodi="http://sodipodi.sourceforge.net/DTD/sodipodi-0.dtd"
   xmlns:inkscape="http://www.inkscape.org/namespaces/inkscape"
   width="1000"
   height="1000"
   id="svg12130"
   version="1.1"
   inkscape:version="0.48.3.1 r9886"
   sodipodi:docname="h.svg">
  <defs
     id="defs5498" />
  <sodipodi:namedview
     inkscape:window-height="618"
     inkscape:window-width="641"
     inkscape:pageshadow="2"
     inkscape:pageopacity="0.0"
     borderopacity="1.0"
     bordercolor="#666666"
     pagecolor="#ffffff"
     id="base"
     showgrid="false"
     showguides="true"
     inkscape:guide-bbox="true"
     inkscape:zoom="0.454"
     inkscape:cx="496.899"
     inkscape:cy="500"
     inkscape:window-x="0"
     inkscape:window-y="31"
     inkscape:current-layer="layer1"
     inkscape:window-maximized="0">
    <sodipodi:guide
       orientation="horizontal"
       position="200"
       id="guide5596" />
  </sodipodi:namedview>
  <metadata
     id="metadata5594">
    <rdf:RDF>
      <cc:Work
         rdf:about="">
        <dc:format>image/svg+xml</dc:format>
        <dc:type
           rdf:resource="http://purl.org/dc/dcmitype/StillImage" />
        <dc:title></dc:title>
      </cc:Work>
    </rdf:RDF>
  </metadata>
  <g
     inkscape:label="Layer 1"
     inkscape:groupmode="layer"
     id="layer1">
    <path
       sodipodi:nodetypes="ssscccccssccs"
       style="fill:#000000;fill-opacity:1;stroke:none"
       d="m 592.95151,627.8794 c 1.855,-60.929 25.538,-118.6919 -34.288,-148.0426 -34.733,-17.0405 -80.261,-5.8111 -102.116,22.7842 -40.58,53.0967 -15.235,162.0708 -44.229,298.6584 l -64.367,1.8354 c 21.868,-205.2358 13.077,-599.10385 0.129,-777.22825 l 69.745,-2.2714 c 10.619,132.8168 16.9,277.9175 13.376,390.7393 53.827,-10.7343 119.837,-27.1066 166.489,-1.6824 66.889,36.4524 84.646,92.94725 68.519,203.92335 -8.4,57.8027 -4.524,131.7908 16.676,183.4046 l -83.421,1.2794 c 0,0 -8.855,-96.4739 -6.513,-173.4 z"
       id="path11022"
       inkscape:connector-curvature="0" />
  </g>
</svg>
