<?xml version="1.0" encoding="UTF-8" standalone="no"?>
<!-- Created with Inkscape (http://www.inkscape.org/) -->

<svg
   xmlns:dc="http://purl.org/dc/elements/1.1/"
   xmlns:cc="http://creativecommons.org/ns#"
   xmlns:rdf="http://www.w3.org/1999/02/22-rdf-syntax-ns#"
   xmlns:svg="http://www.w3.org/2000/svg"
   xmlns="http://www.w3.org/2000/svg"
   xmlns:sodipodi="http://sodipodi.sourceforge.net/DTD/sodipodi-0.dtd"
   xmlns:inkscape="http://www.inkscape.org/namespaces/inkscape"
   width="1000"
   height="1000"
   id="svg13743"
   version="1.1"
   inkscape:version="0.48.3.1 r9886"
   sodipodi:docname="New document 115">
  <defs
     id="defs5498" />
  <sodipodi:namedview
     inkscape:window-height="618"
     inkscape:window-width="641"
     inkscape:pageshadow="2"
     inkscape:pageopacity="0.0"
     borderopacity="1.0"
     bordercolor="#666666"
     pagecolor="#ffffff"
     id="base"
     showgrid="false"
     showguides="true"
     inkscape:guide-bbox="true"
     inkscape:zoom="0.454"
     inkscape:cx="500"
     inkscape:cy="500"
     inkscape:window-x="0"
     inkscape:window-y="31"
     inkscape:current-layer="layer1"
     inkscape:window-maximized="0">
    <sodipodi:guide
       orientation="horizontal"
       position="200"
       id="guide5596" />
  </sodipodi:namedview>
  <metadata
     id="metadata5594">
    <rdf:RDF>
      <cc:Work
         rdf:about="">
        <dc:format>image/svg+xml</dc:format>
        <dc:type
           rdf:resource="http://purl.org/dc/dcmitype/StillImage" />
        <dc:title></dc:title>
      </cc:Work>
    </rdf:RDF>
  </metadata>
  <g
     inkscape:label="Layer 1"
     inkscape:groupmode="layer"
     id="layer1">
    <path
       sodipodi:nodetypes="ccccccccccccccccccccccccccccccc"
       inkscape:connector-curvature="0"
       id="path12265"
       d="m 283.54451,48.928399 132.877,0 0,67.275401 -27.535,-0.7247 c 6.905,93.261 14.281,152.7473 17.073,253.6144 82.871,-9.7938 157.059,-12.3276 253.082,1.3008 6.151,-66.5287 9.497,-156.1995 15.764,-252.9152 l -30.484,0.7247 0,-69.275401 67.489,0 67.48897,0 0,68.483101 -28.253,-0.3478 c -21.46397,229.9492 -20.63897,339.9828 -5.01097,616.3857 l 32.90497,1.2752 0,65.2754 -139.49097,0 1.345,-66.2254 29.355,0.2269 c -5.376,-111.1222 -10.856,-166.6681 -15.882,-277.3223 -81.147,-8.4216 -163.512,-10.8289 -247.732,-1.6679 -3.404,124.2093 -4.98,179.9305 -9.129,276.438 l 30.656,1.2753 0,67.2754 -72.31,0 -72.309,0 0,-66.4832 34.19,0.1675 c 15.065,-251.7516 12.726,-397.9972 -6.429,-616.4478 l -28.83,0.846 z"
       style="fill:#000000" />
  </g>
</svg>
