<?xml version="1.0" encoding="UTF-8" standalone="no"?>
<!-- Created with Inkscape (http://www.inkscape.org/) -->

<svg
   xmlns:dc="http://purl.org/dc/elements/1.1/"
   xmlns:cc="http://creativecommons.org/ns#"
   xmlns:rdf="http://www.w3.org/1999/02/22-rdf-syntax-ns#"
   xmlns:svg="http://www.w3.org/2000/svg"
   xmlns="http://www.w3.org/2000/svg"
   xmlns:sodipodi="http://sodipodi.sourceforge.net/DTD/sodipodi-0.dtd"
   xmlns:inkscape="http://www.inkscape.org/namespaces/inkscape"
   width="1000"
   height="1000"
   id="svg13235"
   version="1.1"
   inkscape:version="0.48.3.1 r9886"
   sodipodi:docname="New document 81">
  <defs
     id="defs5498" />
  <sodipodi:namedview
     inkscape:window-height="618"
     inkscape:window-width="641"
     inkscape:pageshadow="2"
     inkscape:pageopacity="0.0"
     borderopacity="1.0"
     bordercolor="#666666"
     pagecolor="#ffffff"
     id="base"
     showgrid="false"
     showguides="true"
     inkscape:guide-bbox="true"
     inkscape:zoom="0.454"
     inkscape:cx="500"
     inkscape:cy="500"
     inkscape:window-x="0"
     inkscape:window-y="31"
     inkscape:current-layer="layer1"
     inkscape:window-maximized="0">
    <sodipodi:guide
       orientation="horizontal"
       position="200"
       id="guide5596" />
  </sodipodi:namedview>
  <metadata
     id="metadata5594">
    <rdf:RDF>
      <cc:Work
         rdf:about="">
        <dc:format>image/svg+xml</dc:format>
        <dc:type
           rdf:resource="http://purl.org/dc/dcmitype/StillImage" />
        <dc:title></dc:title>
      </cc:Work>
    </rdf:RDF>
  </metadata>
  <g
     inkscape:label="Layer 1"
     inkscape:groupmode="layer"
     id="layer1">
    <path
       id="path12384"
       d="m 421.25214,978.5122 c -19.452,-15.7442 -27.5,-33.7936 -34.644,-63.8846 -3.474,-14.6361 -6.306,-31.5979 -8.387,-46.3968 0,0 57.248,-1.5625 67.961,-1.5625 4.279,14.0996 3.644,26.9185 11.517,39.6112 10.591,17.0739 33.628,22.7197 46.147,19.8422 35.511,-8.1626 38.854,-28.9546 23.831,-149.4249 -20.343,-163.1363 -26.997,-229.9288 -15.1,-376.6968 l 78.665,0 c -21.883,162.7134 -21.472,212.5848 8.675,423.3489 17.24,120.5341 -18.441,176.6511 -100.573,176.6511 -40.104,0 -57.436,-4.769 -78.092,-21.4878 z"
       style="fill:#000000"
       inkscape:connector-curvature="0"
       sodipodi:nodetypes="ssccsssccsss" />
    <path
       sodipodi:nodetypes="ccccc"
       inkscape:connector-curvature="0"
       style="fill:#000000;fill-opacity:1;stroke:none"
       d="m 520.96714,319.0229 -8.166,-78.9459 77.043,0.159 -6.582,79.295 z"
       id="path12392" />
  </g>
</svg>
