<?xml version="1.0" encoding="UTF-8" standalone="no"?>
<!-- Created with Inkscape (http://www.inkscape.org/) -->

<svg
   xmlns:dc="http://purl.org/dc/elements/1.1/"
   xmlns:cc="http://creativecommons.org/ns#"
   xmlns:rdf="http://www.w3.org/1999/02/22-rdf-syntax-ns#"
   xmlns:svg="http://www.w3.org/2000/svg"
   xmlns="http://www.w3.org/2000/svg"
   xmlns:sodipodi="http://sodipodi.sourceforge.net/DTD/sodipodi-0.dtd"
   xmlns:inkscape="http://www.inkscape.org/namespaces/inkscape"
   width="1000"
   height="1000"
   id="svg14069"
   version="1.1"
   inkscape:version="0.48.3.1 r9886"
   sodipodi:docname="New document 137">
  <defs
     id="defs5498" />
  <sodipodi:namedview
     inkscape:window-height="618"
     inkscape:window-width="641"
     inkscape:pageshadow="2"
     inkscape:pageopacity="0.0"
     borderopacity="1.0"
     bordercolor="#666666"
     pagecolor="#ffffff"
     id="base"
     showgrid="false"
     showguides="true"
     inkscape:guide-bbox="true"
     inkscape:zoom="0.454"
     inkscape:cx="500"
     inkscape:cy="500"
     inkscape:window-x="0"
     inkscape:window-y="31"
     inkscape:current-layer="layer1"
     inkscape:window-maximized="0">
    <sodipodi:guide
       orientation="horizontal"
       position="200"
       id="guide5596" />
  </sodipodi:namedview>
  <metadata
     id="metadata5594">
    <rdf:RDF>
      <cc:Work
         rdf:about="">
        <dc:format>image/svg+xml</dc:format>
        <dc:type
           rdf:resource="http://purl.org/dc/dcmitype/StillImage" />
        <dc:title></dc:title>
      </cc:Work>
    </rdf:RDF>
  </metadata>
  <g
     inkscape:label="Layer 1"
     inkscape:groupmode="layer"
     id="layer1">
    <path
       id="path12417"
       d="m 353.93537,669.0168 c -4.913,-43.252 -14.815,-52.5429 -27.863,-53.2544 l -15.281,-0.9423 -2,-60.9424 75.297,0 75.296,0 0,62.9424 -18.344,0.9423 c -17.432,0.8955 -23.959,1.7313 -18.309,37.505 3.415,21.6221 27.662,58.5406 51.715,63.5568 104.216,21.7337 102.474,-217.975 102.204,-237.9007 -1.653,-122.1837 -25.258,-308.5167 -39.104,-330.9202 -82.059,-1.9119 -135.953,-7.762 -207.286,-16.7522 l -0.352,-66.655598 c 156.911,9.4108 313.748,15.5841 480.24299,-3.9367 l -1.317,66.973898 c -65.53299,13.689 -130.86799,15.3101 -192.54799,19.2278 8.855,41.2291 37.664,285.7421 33.469,385.8415 -4.342,103.6205 -23.83,265.298 -154.476,265.298 -83.253,0 -133.771,-64.3056 -141.344,-130.9832 z"
       style="fill:#000000"
       inkscape:connector-curvature="0"
       sodipodi:nodetypes="sscccccssssccccccsss" />
  </g>
</svg>
