<?xml version="1.0" encoding="UTF-8" standalone="no"?>
<!-- Created with Inkscape (http://www.inkscape.org/) -->

<svg
   xmlns:dc="http://purl.org/dc/elements/1.1/"
   xmlns:cc="http://creativecommons.org/ns#"
   xmlns:rdf="http://www.w3.org/1999/02/22-rdf-syntax-ns#"
   xmlns:svg="http://www.w3.org/2000/svg"
   xmlns="http://www.w3.org/2000/svg"
   xmlns:sodipodi="http://sodipodi.sourceforge.net/DTD/sodipodi-0.dtd"
   xmlns:inkscape="http://www.inkscape.org/namespaces/inkscape"
   width="1000"
   height="1000"
   id="svg13655"
   version="1.1"
   inkscape:version="0.48.3.1 r9886"
   sodipodi:docname="New document 109">
  <defs
     id="defs5498" />
  <sodipodi:namedview
     inkscape:window-height="618"
     inkscape:window-width="641"
     inkscape:pageshadow="2"
     inkscape:pageopacity="0.0"
     borderopacity="1.0"
     bordercolor="#666666"
     pagecolor="#ffffff"
     id="base"
     showgrid="false"
     showguides="true"
     inkscape:guide-bbox="true"
     inkscape:zoom="0.454"
     inkscape:cx="500"
     inkscape:cy="500"
     inkscape:window-x="0"
     inkscape:window-y="31"
     inkscape:current-layer="layer1"
     inkscape:window-maximized="0">
    <sodipodi:guide
       orientation="horizontal"
       position="200"
       id="guide5596" />
  </sodipodi:namedview>
  <metadata
     id="metadata5594">
    <rdf:RDF>
      <cc:Work
         rdf:about="">
        <dc:format>image/svg+xml</dc:format>
        <dc:type
           rdf:resource="http://purl.org/dc/dcmitype/StillImage" />
        <dc:title></dc:title>
      </cc:Work>
    </rdf:RDF>
  </metadata>
  <g
     inkscape:label="Layer 1"
     inkscape:groupmode="layer"
     id="layer1">
    <path
       inkscape:connector-curvature="0"
       style="fill:#000000"
       d="m 292.57015,133.246 -46.911,-2.0524 -1.29,-82.024398 191.789,-2.7761 1.649,84.202098 -54.296,1.0464 c 16.277,83.3064 16.157,163.7695 17.316,229.2452 159.932,-117.8108 222.61,-174.2686 318.147,-314.038098 l 72.299,-0.4985 2.3,73.501498 c -97.218,131.8126 -176.073,188.2108 -314.11,300.1483 135.493,98.8908 233.041,181.9208 314.199,302 l -1,78.1665 -69,0.1665 c -88.948,-130.4407 -172.164,-216.7622 -323.576,-317.7101 -6.59,91.6562 -10.878,112.4336 -31.85,236.7485 l 48.284,-0.6979 -5.235,81.3265 -169.705,0 3.149,-77.6259 42.747,-2.8284 c 24.532,-324.9914 37.175,-317.7171 5.094,-586.2997 z"
       id="path12257"
       sodipodi:nodetypes="cccccccccccccccccccccc" />
  </g>
</svg>
