<?xml version="1.0" encoding="UTF-8" standalone="no"?>
<!-- Created with Inkscape (http://www.inkscape.org/) -->

<svg
   xmlns:dc="http://purl.org/dc/elements/1.1/"
   xmlns:cc="http://creativecommons.org/ns#"
   xmlns:rdf="http://www.w3.org/1999/02/22-rdf-syntax-ns#"
   xmlns:svg="http://www.w3.org/2000/svg"
   xmlns="http://www.w3.org/2000/svg"
   xmlns:sodipodi="http://sodipodi.sourceforge.net/DTD/sodipodi-0.dtd"
   xmlns:inkscape="http://www.inkscape.org/namespaces/inkscape"
   width="1000"
   height="1000"
   id="svg14465"
   version="1.1"
   inkscape:version="0.48.3.1 r9886"
   sodipodi:docname="New document 164">
  <defs
     id="defs5498" />
  <sodipodi:namedview
     inkscape:window-height="618"
     inkscape:window-width="641"
     inkscape:pageshadow="2"
     inkscape:pageopacity="0.0"
     borderopacity="1.0"
     bordercolor="#666666"
     pagecolor="#ffffff"
     id="base"
     showgrid="false"
     showguides="true"
     inkscape:guide-bbox="true"
     inkscape:zoom="0.454"
     inkscape:cx="500"
     inkscape:cy="500"
     inkscape:window-x="0"
     inkscape:window-y="31"
     inkscape:current-layer="layer1"
     inkscape:window-maximized="0">
    <sodipodi:guide
       orientation="horizontal"
       position="200"
       id="guide5596" />
  </sodipodi:namedview>
  <metadata
     id="metadata5594">
    <rdf:RDF>
      <cc:Work
         rdf:about="">
        <dc:format>image/svg+xml</dc:format>
        <dc:type
           rdf:resource="http://purl.org/dc/dcmitype/StillImage" />
        <dc:title></dc:title>
      </cc:Work>
    </rdf:RDF>
  </metadata>
  <g
     inkscape:label="Layer 1"
     inkscape:groupmode="layer"
     id="layer1">
    <path
       sodipodi:nodetypes="sssccscccssscssscccscsscsccccscssscccsssssscccs"
       style="fill:#000000"
       d="m 748.39668,768.8713 c 0,-17.1207 3.959,-31.1286 8.796,-31.1286 5.716,0 18.153,-7.4792 14,-22.8138 -41.765,-154.1982 -44.35304,-214.175 -66.02504,-386.3943 -77.056,305.1128 -177.451,400.1966 -112.164,409.2081 5.643,0 10.199,13.9043 10.199,31.1286 l 0,31.1287 -76.288,0 -76.287,0 0.315,-32.3606 c 0.157,-16.1197 -3.794,-27.7697 12.316,-28.3606 17.783,-0.6522 17.923,-29.0512 6.941,-60.4328 -49.997,-142.8649 -76.043,-194.4886 -116.972,-337.9308 -24.166,165.5308 -42.858,234.9282 -76.602,360.5814 -7.256,27.0204 1.566,36.2461 10.042,36.2461 8.817,0 12.976,9.9771 12.976,31.1286 l 0,31.1287 -58.625,0 -58.625,0 0,-31.1287 c 0,-17.1207 3.044,-31.1375 6.764,-31.1484 3.721,-0.01 16.021,-10.9274 27.68,-64.701 36.267,-167.264 45.646,-248.7025 66.967,-437.3364 5.871,-51.947 7.353,-61.7959 -5.512,-71.0725 -9.23,-6.6558 -14.617,-23.0182 -15.784,-39.3064 l 0,-27.924696 77.837,0 77.837,0 -4.739,41.456996 c -4.273,37.3867 -29.218,35.1975 -13.746,99.2431 25.677,106.2927 66.31,220.1109 125.319,357.2706 63.187,-131.7536 104.696,-250.1381 136.827,-367.1224 11.914,-43.3752 17.868,-65.6971 2.577,-65.6971 -4.382,0 -6.87,-14.0431 -7.968,-31.1286 l 0,-31.1287 67.645,0 67.64404,0 0,31.1287 c 0,17.1207 -3.282,31.1286 -7.294,31.1286 -4.012,0 -11.625,42.7121 -9.011,99.4101 8.824,191.3787 20.332,267.3678 72.116,446.2456 8.511,29.3996 13.916,29.5539 22.106,29.5539 10.018,0 14.027,8.8958 14.027,31.1286 l 0,31.1287 -67.644,0 -67.645,0 z"
       id="path12049"
       inkscape:connector-curvature="0" />
  </g>
</svg>
