<?xml version="1.0" encoding="UTF-8" standalone="no"?>
<!-- Created with Inkscape (http://www.inkscape.org/) -->

<svg
   xmlns:dc="http://purl.org/dc/elements/1.1/"
   xmlns:cc="http://creativecommons.org/ns#"
   xmlns:rdf="http://www.w3.org/1999/02/22-rdf-syntax-ns#"
   xmlns:svg="http://www.w3.org/2000/svg"
   xmlns="http://www.w3.org/2000/svg"
   xmlns:sodipodi="http://sodipodi.sourceforge.net/DTD/sodipodi-0.dtd"
   xmlns:inkscape="http://www.inkscape.org/namespaces/inkscape"
   width="1000"
   height="1000"
   id="svg12926"
   version="1.1"
   inkscape:version="0.48.3.1 r9886"
   sodipodi:docname="New document 60">
  <defs
     id="defs5498" />
  <sodipodi:namedview
     inkscape:window-height="618"
     inkscape:window-width="641"
     inkscape:pageshadow="2"
     inkscape:pageopacity="0.0"
     borderopacity="1.0"
     bordercolor="#666666"
     pagecolor="#ffffff"
     id="base"
     showgrid="false"
     showguides="true"
     inkscape:guide-bbox="true"
     inkscape:zoom="0.454"
     inkscape:cx="500"
     inkscape:cy="500"
     inkscape:window-x="0"
     inkscape:window-y="31"
     inkscape:current-layer="layer1"
     inkscape:window-maximized="0">
    <sodipodi:guide
       orientation="horizontal"
       position="200"
       id="guide5596" />
  </sodipodi:namedview>
  <metadata
     id="metadata5594">
    <rdf:RDF>
      <cc:Work
         rdf:about="">
        <dc:format>image/svg+xml</dc:format>
        <dc:type
           rdf:resource="http://purl.org/dc/dcmitype/StillImage" />
        <dc:title></dc:title>
      </cc:Work>
    </rdf:RDF>
  </metadata>
  <g
     inkscape:label="Layer 1"
     inkscape:groupmode="layer"
     id="layer1">
    <path
       id="path11630"
       d="m 441.38485,501.1946 c -15.961,-14.8896 -62.098,-20.7901 -93.6,0.3841 -46.392,31.1816 -9.948,30.5283 -36.5,298.4213 l -63.927,0 c 8.881,-131.3124 5.007,-257.9713 -18.133,-399.9359 l 68.485,0 6.069,24.2187 c -0.268,0.4659 32.765,-23.8039 89.221,-24.2828 65.889,-0.5589 121.037,42.2789 121.037,42.2789 0,0 71.992,-44.1051 141.971,-42.2789 75.894,1.9805 135.839,43.5115 134.661,101.6188 -2.273,112.0374 -16.727,162.2435 6.538,298.3812 l -70.909,0 c -25.961,-136.0242 1.201,-155.142 -14.364,-268.2203 -6.03,-43.8109 -74.215,-51.1911 -114.149,-29.2806 -54.26,29.7713 -51.69,138.5144 -38.39,297.5009 l -84.505,0 c 6.475,-155.2068 19.535,-249.3247 -33.505,-298.8054 z"
       style="fill:#000000;fill-opacity:1;stroke:none"
       inkscape:connector-curvature="0"
       sodipodi:nodetypes="sscccccscssccssccs" />
  </g>
</svg>
