<?xml version="1.0" encoding="UTF-8" standalone="no"?>
<!-- Created with Inkscape (http://www.inkscape.org/) -->

<svg
   xmlns:dc="http://purl.org/dc/elements/1.1/"
   xmlns:cc="http://creativecommons.org/ns#"
   xmlns:rdf="http://www.w3.org/1999/02/22-rdf-syntax-ns#"
   xmlns:svg="http://www.w3.org/2000/svg"
   xmlns="http://www.w3.org/2000/svg"
   xmlns:sodipodi="http://sodipodi.sourceforge.net/DTD/sodipodi-0.dtd"
   xmlns:inkscape="http://www.inkscape.org/namespaces/inkscape"
   width="1000"
   height="1000"
   id="svg12193"
   version="1.1"
   inkscape:version="0.48.3.1 r9886"
   sodipodi:docname="New document 10">
  <defs
     id="defs5498" />
  <sodipodi:namedview
     inkscape:window-height="618"
     inkscape:window-width="641"
     inkscape:pageshadow="2"
     inkscape:pageopacity="0.0"
     borderopacity="1.0"
     bordercolor="#666666"
     pagecolor="#ffffff"
     id="base"
     showgrid="false"
     showguides="true"
     inkscape:guide-bbox="true"
     inkscape:zoom="0.454"
     inkscape:cx="500"
     inkscape:cy="500"
     inkscape:window-x="0"
     inkscape:window-y="31"
     inkscape:current-layer="layer1"
     inkscape:window-maximized="0">
    <sodipodi:guide
       orientation="horizontal"
       position="200"
       id="guide5596" />
  </sodipodi:namedview>
  <metadata
     id="metadata5594">
    <rdf:RDF>
      <cc:Work
         rdf:about="">
        <dc:format>image/svg+xml</dc:format>
        <dc:type
           rdf:resource="http://purl.org/dc/dcmitype/StillImage" />
        <dc:title></dc:title>
      </cc:Work>
    </rdf:RDF>
  </metadata>
  <g
     inkscape:label="Layer 1"
     inkscape:groupmode="layer"
     id="layer1">
    <path
       inkscape:connector-curvature="0"
       id="path11037-3"
       d="m 346.63614,799.5811 c 9.846,-119.3933 4.912,-292.3962 -8.709,-400.3183 l 65.997,0.7372 c 0,0 -4.221,62.861 13.156,57.7456 47.325,-13.9311 89.087,-56.7394 150.641,-54.1024 35.731,1.5307 55.79296,15.8929 69.30896,28.8329 22.876,21.9014 22.309,69.4552 18.61,102.5438 -17.337,155.0972 2.355,115.2825 10.838,264.9728 l -63.10796,1.1079 c -43.049,-194.6143 4.31,-256.9885 -16.917,-307.2865 -16.493,-39.0803 -125.449,10.1092 -159.14,48.7275 -18.544,21.2563 5.413,25.2023 -17.447,257.4584 z"
       style="fill:#000000;fill-opacity:1;stroke:none"
       sodipodi:nodetypes="cccssssccsscc" />
  </g>
</svg>
