<?xml version="1.0" encoding="UTF-8" standalone="no"?>
<!-- Created with Inkscape (http://www.inkscape.org/) -->

<svg
   xmlns:dc="http://purl.org/dc/elements/1.1/"
   xmlns:cc="http://creativecommons.org/ns#"
   xmlns:rdf="http://www.w3.org/1999/02/22-rdf-syntax-ns#"
   xmlns:svg="http://www.w3.org/2000/svg"
   xmlns="http://www.w3.org/2000/svg"
   xmlns:sodipodi="http://sodipodi.sourceforge.net/DTD/sodipodi-0.dtd"
   xmlns:inkscape="http://www.inkscape.org/namespaces/inkscape"
   width="1000"
   height="1000"
   id="svg14113"
   version="1.1"
   inkscape:version="0.48.3.1 r9886"
   sodipodi:docname="New document 140">
  <defs
     id="defs5498" />
  <sodipodi:namedview
     inkscape:window-height="618"
     inkscape:window-width="641"
     inkscape:pageshadow="2"
     inkscape:pageopacity="0.0"
     borderopacity="1.0"
     bordercolor="#666666"
     pagecolor="#ffffff"
     id="base"
     showgrid="false"
     showguides="true"
     inkscape:guide-bbox="true"
     inkscape:zoom="0.454"
     inkscape:cx="500"
     inkscape:cy="500"
     inkscape:window-x="0"
     inkscape:window-y="31"
     inkscape:current-layer="layer1"
     inkscape:window-maximized="0">
    <sodipodi:guide
       orientation="horizontal"
       position="200"
       id="guide5596" />
  </sodipodi:namedview>
  <metadata
     id="metadata5594">
    <rdf:RDF>
      <cc:Work
         rdf:about="">
        <dc:format>image/svg+xml</dc:format>
        <dc:type
           rdf:resource="http://purl.org/dc/dcmitype/StillImage" />
        <dc:title></dc:title>
      </cc:Work>
    </rdf:RDF>
  </metadata>
  <g
     inkscape:label="Layer 1"
     inkscape:groupmode="layer"
     id="layer1">
    <path
       d="m 595.30428,721.00932 c 105.081,-39.3528 137.367,-143.5766 135.985,-293.5715 -0.851,-92.3102 -22.743,-173.4753 -62.661,-228.1869 -42.092,-57.6899 -129.606,-84.0032 -204.148,-41.6052 -74.419,42.3276 -114.634,135.2096 -121.416,286.4447 -4.091,91.2091 18.084,149.6129 50.942,196.6037 62.463,89.3288 149.345,99.7713 201.298,80.3152 z m -124.583,70.9525 c -52.67,-15.5802 -112.054,-51.8511 -141.463,-108.0968 -40.379,-77.2267 -56.203,-127.7897 -56.079,-238.9049 0.126,-113.5565 20.198,-189.1158 55.883,-255.6409 43.143,-80.4275 133.815,-133.418 223.696,-131.5625 91.19,1.8825 139.926,44.4604 169.321,87.3058 44.155,64.3609 73.063,150.8706 75.094,282.3753 1.875,121.3871 -16.196,176.4971 -48.917,257.5633 -17.678,43.7959 -64.792,88.0457 -117.55,102.7968 -52.664,14.7245 -119.514,16.1354 -159.985,4.1639 z"
       style="fill:#000000"
       id="path12015"
       inkscape:connector-curvature="0"
       sodipodi:nodetypes="sssssssssssssssss" />
  </g>
</svg>
