<?xml version="1.0" encoding="UTF-8" standalone="no"?>
<!-- Created with Inkscape (http://www.inkscape.org/) -->

<svg
   xmlns:dc="http://purl.org/dc/elements/1.1/"
   xmlns:cc="http://creativecommons.org/ns#"
   xmlns:rdf="http://www.w3.org/1999/02/22-rdf-syntax-ns#"
   xmlns:svg="http://www.w3.org/2000/svg"
   xmlns="http://www.w3.org/2000/svg"
   xmlns:sodipodi="http://sodipodi.sourceforge.net/DTD/sodipodi-0.dtd"
   xmlns:inkscape="http://www.inkscape.org/namespaces/inkscape"
   width="1000"
   height="1000"
   id="svg12377"
   version="1.1"
   inkscape:version="0.48.3.1 r9886"
   sodipodi:docname="New document 23">
  <defs
     id="defs5498" />
  <sodipodi:namedview
     inkscape:window-height="618"
     inkscape:window-width="641"
     inkscape:pageshadow="2"
     inkscape:pageopacity="0.0"
     borderopacity="1.0"
     bordercolor="#666666"
     pagecolor="#ffffff"
     id="base"
     showgrid="false"
     showguides="true"
     inkscape:guide-bbox="true"
     inkscape:zoom="0.454"
     inkscape:cx="500"
     inkscape:cy="500"
     inkscape:window-x="0"
     inkscape:window-y="31"
     inkscape:current-layer="layer1"
     inkscape:window-maximized="0">
    <sodipodi:guide
       orientation="horizontal"
       position="200"
       id="guide5596" />
  </sodipodi:namedview>
  <metadata
     id="metadata5594">
    <rdf:RDF>
      <cc:Work
         rdf:about="">
        <dc:format>image/svg+xml</dc:format>
        <dc:type
           rdf:resource="http://purl.org/dc/dcmitype/StillImage" />
        <dc:title></dc:title>
      </cc:Work>
    </rdf:RDF>
  </metadata>
  <g
     inkscape:label="Layer 1"
     inkscape:groupmode="layer"
     id="layer1">
    <path
       sodipodi:nodetypes="ssssssssssssssss"
       inkscape:connector-curvature="0"
       id="path11132"
       d="m 509.23406,400 c -28.022,0.032 -63.074,7.564 -85.90799,23.2188 -64.91,44.5023 -95.62801,92.7124 -93.50101,182.4374 1.03,43.4398 25.21901,99.2835 42.71001,124.8438 25.353,37.0484 66.11599,69.257 117.19899,69.5 51.209,0.2436 82.39,-13.5776 126.815,-53.4063 38.986,-34.9522 54.382,-107.9872 53.708,-159.9999 -0.644,-49.7457 -10.203,-107.7331 -34.062,-135 -34.048,-38.9118 -80.256,-51.6474 -126.961,-51.5938 z m 7.305,80.125 c 42.655,2.0781 62.787,20.1865 75.621,41.1563 13.954,22.7991 18.554,74.1469 11.087,104.9999 -15.278,63.1219 -43.714,94.8849 -107.738,95.4376 -18.345,0.1584 -51.766,-10.3695 -74.61099,-44.2188 -18.911,-28.0201 -28.413,-66.4869 -20.935,-103.9375 6.457,-32.3249 32.54599,-97.5314 116.57599,-93.4375 z"
       style="fill:#000000;fill-opacity:1;stroke:none" />
  </g>
</svg>
