<?xml version="1.0" encoding="UTF-8" standalone="no"?>
<!-- Created with Inkscape (http://www.inkscape.org/) -->

<svg
   xmlns:dc="http://purl.org/dc/elements/1.1/"
   xmlns:cc="http://creativecommons.org/ns#"
   xmlns:rdf="http://www.w3.org/1999/02/22-rdf-syntax-ns#"
   xmlns:svg="http://www.w3.org/2000/svg"
   xmlns="http://www.w3.org/2000/svg"
   xmlns:sodipodi="http://sodipodi.sourceforge.net/DTD/sodipodi-0.dtd"
   xmlns:inkscape="http://www.inkscape.org/namespaces/inkscape"
   width="1000"
   height="1000"
   id="svg14157"
   version="1.1"
   inkscape:version="0.48.3.1 r9886"
   sodipodi:docname="New document 143">
  <defs
     id="defs5498" />
  <sodipodi:namedview
     inkscape:window-height="618"
     inkscape:window-width="641"
     inkscape:pageshadow="2"
     inkscape:pageopacity="0.0"
     borderopacity="1.0"
     bordercolor="#666666"
     pagecolor="#ffffff"
     id="base"
     showgrid="false"
     showguides="true"
     inkscape:guide-bbox="true"
     inkscape:zoom="0.454"
     inkscape:cx="500"
     inkscape:cy="500"
     inkscape:window-x="0"
     inkscape:window-y="31"
     inkscape:current-layer="layer1"
     inkscape:window-maximized="0">
    <sodipodi:guide
       orientation="horizontal"
       position="200"
       id="guide5596" />
  </sodipodi:namedview>
  <metadata
     id="metadata5594">
    <rdf:RDF>
      <cc:Work
         rdf:about="">
        <dc:format>image/svg+xml</dc:format>
        <dc:type
           rdf:resource="http://purl.org/dc/dcmitype/StillImage" />
        <dc:title></dc:title>
      </cc:Work>
    </rdf:RDF>
  </metadata>
  <g
     inkscape:label="Layer 1"
     inkscape:groupmode="layer"
     id="layer1">
    <path
       id="path12432"
       style="fill:#000000"
       d="m 635.81931,427.6017 c 30.534,-17.7912 51.157,-39.1736 59.84,-88.1532 6.177,-34.8454 8.703,-77.8466 -0.667,-115.0714 -17.61,-69.9651 -51.125,-93.9459 -105.106,-92.7418 -40.405,0.9013 -78.124,21.5756 -101.407,35.6275 2.329,72.023 2.928,142.3143 0.463,232.7372 22.332,49.0363 99.471,55.2228 146.877,27.6017 z M 384.75031,800 c 32.926,-293.4846 36.387,-463.4555 6.524,-755.264698 l 71.642,2.2975 9.644,33.264098 c 3.175,10.9475 26.373,1.1799 48.406,-8.4619 65.388,-28.615098 125.768,-15.2923 169.971,13.1667 53.671,34.5554 83.401,117.7247 77.833,227.9805 -3.14,62.1905 -16.366,96.8226 -43.398,143.7603 -18.146,31.5067 -75.91,59.9048 -131.717,61.2919 -49.176,1.2223 -78.307,-4.568 -106.751,-18.3831 -4.471,120.0038 -8.411,162.9026 -27.043,300.3487 z"
       inkscape:connector-curvature="0"
       sodipodi:nodetypes="ssssccscccssssssccc" />
  </g>
</svg>
