<?xml version="1.0" encoding="UTF-8" standalone="no"?>
<!-- Created with Inkscape (http://www.inkscape.org/) -->

<svg
   xmlns:dc="http://purl.org/dc/elements/1.1/"
   xmlns:cc="http://creativecommons.org/ns#"
   xmlns:rdf="http://www.w3.org/1999/02/22-rdf-syntax-ns#"
   xmlns:svg="http://www.w3.org/2000/svg"
   xmlns="http://www.w3.org/2000/svg"
   xmlns:sodipodi="http://sodipodi.sourceforge.net/DTD/sodipodi-0.dtd"
   xmlns:inkscape="http://www.inkscape.org/namespaces/inkscape"
   width="1000"
   height="1000"
   id="svg14201"
   version="1.1"
   inkscape:version="0.48.3.1 r9886"
   sodipodi:docname="Q.svg">
  <defs
     id="defs5498" />
  <sodipodi:namedview
     inkscape:window-height="618"
     inkscape:window-width="697"
     inkscape:pageshadow="2"
     inkscape:pageopacity="0.0"
     borderopacity="1.0"
     bordercolor="#666666"
     pagecolor="#ffffff"
     id="base"
     showgrid="false"
     showguides="true"
     inkscape:guide-bbox="true"
     inkscape:zoom="0.32102648"
     inkscape:cx="785.89732"
     inkscape:cy="403.8587"
     inkscape:window-x="0"
     inkscape:window-y="31"
     inkscape:current-layer="layer1"
     inkscape:window-maximized="0">
    <sodipodi:guide
       orientation="horizontal"
       position="200"
       id="guide5596" />
  </sodipodi:namedview>
  <metadata
     id="metadata5594">
    <rdf:RDF>
      <cc:Work
         rdf:about="">
        <dc:format>image/svg+xml</dc:format>
        <dc:type
           rdf:resource="http://purl.org/dc/dcmitype/StillImage" />
        <dc:title />
      </cc:Work>
    </rdf:RDF>
  </metadata>
  <g
     inkscape:label="Layer 1"
     inkscape:groupmode="layer"
     id="layer1">
    <path
       sodipodi:nodetypes="scssssscssssssssssssssssssccssss"
       inkscape:connector-curvature="0"
       id="path12455"
       style="fill:#000000"
       d="m 583.82191,614.9167 c 27.076,14.1296 47.616,25.0766 53.87,32.0805 34.416,-65.3523 42.656,-141.0343 44.48,-210.9531 2.406,-92.2828 -22.743,-173.4753 -62.661,-228.1869 -42.092,-57.68989 -129.606,-84.00319 -204.148,-41.60519 -74.419,42.32759 -114.634,135.20959 -121.416,286.44469 -4.091,91.2091 18.216,151.7306 50.942,198.8134 l 24.949,35.8931 c 0,0 -0.0192,-21.94539 3.648,-34.8319 25.25138,-88.73296 182.926,-51.9584 210.336,-37.6546 z m -44.264,105.8601 c 17.952,-7.5008 32.64,-16.034 32.64,-18.9625 0,-8.8183 -44.507,-34.0734 -69.828,-36.8931 -20.151,-2.2438 -27.549,1.1622 -37.641,8.4562 -10.597,7.6591 -13.64125,22.20205 -7.261,37.349 6.08675,14.45016 34.483,29.9417 82.09,10.0504 z m -117.954,79.7913 c -52.67,-15.5802 -112.054,-51.8511 -141.463,-108.0968 -40.379,-77.2267 -56.203,-127.7897 -56.079,-238.9049 0.126,-113.5565 20.198,-189.1158 55.883,-255.6409 43.143,-80.42749 133.815,-133.41799 223.696,-131.56249 91.19,1.8825 139.926,44.4604 169.321,87.3058 44.155,64.36089 73.063,150.87059 75.094,282.37529 1.875,121.3871 -22.87,174.1129 -48.917,257.5633 -4.7,15.0598 -1.253,17.1036 13.222,24.8502 16.067,8.599 30.324,6.8054 35.921,-2.6062 8.053,-13.5401 37.85247,-8.53198 49.53375,-5.80635 l 0.13325,80.60105 c -3.1663,3.1663 -8.00122,9.3539 -72.805,9.3539 -37.61442,0 -70.201,-5.3636 -79.88,-12.7133 -13.706,-10.4068 -24.358,-9.6472 -65.885,4.6981 -51.686,17.8547 -117.304,20.5548 -157.775,8.5833 z" />
  </g>
</svg>
