<?xml version="1.0" encoding="UTF-8" standalone="no"?>
<!-- Created with Inkscape (http://www.inkscape.org/) -->

<svg
   xmlns:dc="http://purl.org/dc/elements/1.1/"
   xmlns:cc="http://creativecommons.org/ns#"
   xmlns:rdf="http://www.w3.org/1999/02/22-rdf-syntax-ns#"
   xmlns:svg="http://www.w3.org/2000/svg"
   xmlns="http://www.w3.org/2000/svg"
   xmlns:sodipodi="http://sodipodi.sourceforge.net/DTD/sodipodi-0.dtd"
   xmlns:inkscape="http://www.inkscape.org/namespaces/inkscape"
   width="1000"
   height="1000"
   id="svg12421"
   version="1.1"
   inkscape:version="0.48.3.1 r9886"
   sodipodi:docname="u.svg">
  <defs
     id="defs5498" />
  <sodipodi:namedview
     inkscape:window-height="618"
     inkscape:window-width="641"
     inkscape:pageshadow="2"
     inkscape:pageopacity="0.0"
     borderopacity="1.0"
     bordercolor="#666666"
     pagecolor="#ffffff"
     id="base"
     showgrid="false"
     showguides="true"
     inkscape:guide-bbox="true"
     inkscape:zoom="0.454"
     inkscape:cx="638.87267"
     inkscape:cy="590.57059"
     inkscape:window-x="360"
     inkscape:window-y="31"
     inkscape:current-layer="layer1"
     inkscape:window-maximized="0">
    <sodipodi:guide
       orientation="horizontal"
       position="200"
       id="guide5596" />
  </sodipodi:namedview>
  <metadata
     id="metadata5594">
    <rdf:RDF>
      <cc:Work
         rdf:about="">
        <dc:format>image/svg+xml</dc:format>
        <dc:type
           rdf:resource="http://purl.org/dc/dcmitype/StillImage" />
        <dc:title />
      </cc:Work>
    </rdf:RDF>
  </metadata>
  <g
     inkscape:label="Layer 1"
     inkscape:groupmode="layer"
     id="layer1">
    <path
       inkscape:connector-curvature="0"
       id="path11134-8"
       d="m 364.89364,764.3914 c -14.219,-14.6089 -31.048,-44.9597 -27.909,-71.2833 12.942,-108.5596 6.325,-191.08 -8.326,-293.1081 l 67.257,0 c 18.391,97.3203 23.42,162.0321 17.695,243.4844 -1.891,26.9117 2.883,57.4409 20.921,68.7941 32.234,20.288 79.966,13.9766 104.915,-3.4363 29.167,-20.3572 36.27041,-67.32791 44.779,-173.1192 C 594.82965,403.87836 606.67665,400 606.67665,400 l 69.07,0 c -35.604,159.0385 -36.008,252.1402 -2.107,400 l -71.85,0 -8.64901,-39.7531 c -20.78,16.6223 -53.462,39.7531 -116.532,39.7531 -49.701,0 -84.23,-7.3722 -111.715,-35.6086 z"
       style="fill:#000000;fill-opacity:1;stroke:none"
       sodipodi:nodetypes="ssccsssscccccss" />
  </g>
</svg>
