<?xml version="1.0" encoding="UTF-8" standalone="no"?>
<!-- Created with Inkscape (http://www.inkscape.org/) -->

<svg
   xmlns:dc="http://purl.org/dc/elements/1.1/"
   xmlns:cc="http://creativecommons.org/ns#"
   xmlns:rdf="http://www.w3.org/1999/02/22-rdf-syntax-ns#"
   xmlns:svg="http://www.w3.org/2000/svg"
   xmlns="http://www.w3.org/2000/svg"
   xmlns:sodipodi="http://sodipodi.sourceforge.net/DTD/sodipodi-0.dtd"
   xmlns:inkscape="http://www.inkscape.org/namespaces/inkscape"
   width="1000"
   height="1000"
   id="svg14289"
   version="1.1"
   inkscape:version="0.48.3.1 r9886"
   sodipodi:docname="New document 152">
  <defs
     id="defs5498" />
  <sodipodi:namedview
     inkscape:window-height="618"
     inkscape:window-width="641"
     inkscape:pageshadow="2"
     inkscape:pageopacity="0.0"
     borderopacity="1.0"
     bordercolor="#666666"
     pagecolor="#ffffff"
     id="base"
     showgrid="false"
     showguides="true"
     inkscape:guide-bbox="true"
     inkscape:zoom="0.454"
     inkscape:cx="500"
     inkscape:cy="500"
     inkscape:window-x="0"
     inkscape:window-y="31"
     inkscape:current-layer="layer1"
     inkscape:window-maximized="0">
    <sodipodi:guide
       orientation="horizontal"
       position="200"
       id="guide5596" />
  </sodipodi:namedview>
  <metadata
     id="metadata5594">
    <rdf:RDF>
      <cc:Work
         rdf:about="">
        <dc:format>image/svg+xml</dc:format>
        <dc:type
           rdf:resource="http://purl.org/dc/dcmitype/StillImage" />
        <dc:title></dc:title>
      </cc:Work>
    </rdf:RDF>
  </metadata>
  <g
     inkscape:label="Layer 1"
     inkscape:groupmode="layer"
     id="layer1">
    <path
       sodipodi:nodetypes="cssscscccssscssscccsssssscccc"
       inkscape:connector-curvature="0"
       style="fill:#000000"
       d="m 425.20736,763.5371 c 0,-10.5195 1.081,-28.8035 15.388,-30.4277 11.557,-1.312 9.762,-16.3873 6.355,-29.5443 -62.316,-240.6531 -94.065,-344.7252 -202.432,-575.6803 -8.602,-18.3335 -13.032,-23.4539 -33.436,-24.041 -7.107,-0.2044 -11.766,-13.382196 -11.766,-33.280796 l 0,-32.9423 80.709,0 80.709,0 0,32.158 c 0,17.6869 -4.638,31.703996 -10.307,33.593596 -6.409,2.1363 -29.681,-0.3338 -19.123,23.3406 80.29,180.0381 122.88,287.122 173.293,497.0737 48.159,-206.6717 85.111,-315.6697 170.613,-493.123 7.665,-15.9089 10.217,-27.1583 -13.289,-27.1583 -15.238,0 -18.824,-6.274696 -18.824,-32.942296 l 0,-32.9423 76.591,0 76.59,0 0,32.9423 c 0,26.6676 -3.585,32.942296 -18.824,32.942296 -15.927,0 -5.383,-0.6464 -20.082,30.5597 -95.048,201.7888 -136.585,319.5811 -192.151,569.9681 -3.127,14.0894 -1.634,24.1612 11.814,27.678 12.806,3.3487 17.59,13.2606 17.59,36.4443 l 0,31.8446 -84.709,0 -84.709,0 z"
       id="path12033" />
  </g>
</svg>
