<?xml version="1.0" encoding="UTF-8" standalone="no"?>
<!-- Created with Inkscape (http://www.inkscape.org/) -->

<svg
   xmlns:dc="http://purl.org/dc/elements/1.1/"
   xmlns:cc="http://creativecommons.org/ns#"
   xmlns:rdf="http://www.w3.org/1999/02/22-rdf-syntax-ns#"
   xmlns:svg="http://www.w3.org/2000/svg"
   xmlns="http://www.w3.org/2000/svg"
   xmlns:sodipodi="http://sodipodi.sourceforge.net/DTD/sodipodi-0.dtd"
   xmlns:inkscape="http://www.inkscape.org/namespaces/inkscape"
   width="1000"
   height="1000"
   id="svg12783"
   version="1.1"
   inkscape:version="0.48.3.1 r9886"
   sodipodi:docname="w.svg">
  <defs
     id="defs5498" />
  <sodipodi:namedview
     inkscape:window-height="618"
     inkscape:window-width="641"
     inkscape:pageshadow="2"
     inkscape:pageopacity="0.0"
     borderopacity="1.0"
     bordercolor="#666666"
     pagecolor="#ffffff"
     id="base"
     showgrid="false"
     showguides="true"
     inkscape:guide-bbox="true"
     inkscape:zoom="0.64205296"
     inkscape:cx="496.97367"
     inkscape:cy="489.50261"
     inkscape:window-x="0"
     inkscape:window-y="31"
     inkscape:current-layer="layer1"
     inkscape:window-maximized="0">
    <sodipodi:guide
       orientation="horizontal"
       position="200"
       id="guide5596" />
  </sodipodi:namedview>
  <metadata
     id="metadata5594">
    <rdf:RDF>
      <cc:Work
         rdf:about="">
        <dc:format>image/svg+xml</dc:format>
        <dc:type
           rdf:resource="http://purl.org/dc/dcmitype/StillImage" />
        <dc:title />
      </cc:Work>
    </rdf:RDF>
  </metadata>
  <g
     inkscape:label="Layer 1"
     inkscape:groupmode="layer"
     id="layer1">
    <path
       inkscape:connector-curvature="0"
       id="path11245"
       d="m 331.51657,800 c -21.73,-150.0665 -43.464,-245.6023 -102.152,-400 l 71.897,0 c 51.089,123.9428 65.013,185.8791 87.877,306.1386 21.487,-123.2228 41.603,-185.4143 101.755,-306.1386 l 69.256,0 c 54.471,107.9291 72.291,190.3303 98.681,311.9428 21.308,-121.8066 38.462,-211.6007 82.148,-311.9428 l 78.11502,0 c -62.039,149.0656 -87.77902,250.4946 -97.22002,400 l -117.935,0 c -16.238,-113.8 -35.402,-190.0659 -77.999,-280.0692 -48.309,87.2769 -67.001,168.8799 -83.381,280.0692 z"
       style="fill:#000000;fill-opacity:1;stroke:none"
       sodipodi:nodetypes="cccccccccccccc" />
  </g>
</svg>
