<?xml version="1.0" encoding="UTF-8" standalone="no"?>
<!-- Created with Inkscape (http://www.inkscape.org/) -->

<svg
   xmlns:dc="http://purl.org/dc/elements/1.1/"
   xmlns:cc="http://creativecommons.org/ns#"
   xmlns:rdf="http://www.w3.org/1999/02/22-rdf-syntax-ns#"
   xmlns:svg="http://www.w3.org/2000/svg"
   xmlns="http://www.w3.org/2000/svg"
   xmlns:sodipodi="http://sodipodi.sourceforge.net/DTD/sodipodi-0.dtd"
   xmlns:inkscape="http://www.inkscape.org/namespaces/inkscape"
   width="1000"
   height="1000"
   id="svg13281"
   version="1.1"
   inkscape:version="0.48.3.1 r9886"
   sodipodi:docname="New document 84">
  <defs
     id="defs5498" />
  <sodipodi:namedview
     inkscape:window-height="618"
     inkscape:window-width="641"
     inkscape:pageshadow="2"
     inkscape:pageopacity="0.0"
     borderopacity="1.0"
     bordercolor="#666666"
     pagecolor="#ffffff"
     id="base"
     showgrid="false"
     showguides="true"
     inkscape:guide-bbox="true"
     inkscape:zoom="0.454"
     inkscape:cx="496.899"
     inkscape:cy="500"
     inkscape:window-x="0"
     inkscape:window-y="31"
     inkscape:current-layer="layer1"
     inkscape:window-maximized="0">
    <sodipodi:guide
       orientation="horizontal"
       position="200"
       id="guide5596" />
  </sodipodi:namedview>
  <metadata
     id="metadata5594">
    <rdf:RDF>
      <cc:Work
         rdf:about="">
        <dc:format>image/svg+xml</dc:format>
        <dc:type
           rdf:resource="http://purl.org/dc/dcmitype/StillImage" />
        <dc:title></dc:title>
      </cc:Work>
    </rdf:RDF>
  </metadata>
  <g
     inkscape:label="Layer 1"
     inkscape:groupmode="layer"
     id="layer1">
    <path
       style="font-size:medium;font-style:normal;font-variant:normal;font-weight:normal;font-stretch:normal;text-indent:0;text-align:start;text-decoration:none;line-height:normal;letter-spacing:normal;word-spacing:normal;text-transform:none;direction:ltr;block-progression:tb;writing-mode:lr-tb;text-anchor:start;baseline-shift:baseline;color:#000000;fill:#000000;fill-opacity:1;stroke:none;stroke-width:1px;marker:none;visibility:visible;display:inline;overflow:visible;enable-background:accumulate;font-family:Sans;-inkscape-font-specification:Sans"
       d="M 346.09375 392 C 347.07275 393.1042 348.05225 394.2083 349.03125 395.3125 C 406.62219 459.07279 458.62454 528.50853 500.59375 603.625 C 474.43104 651.4529 445.72377 697.95196 410.59375 739.65625 C 393.11875 760.78445 374.5185 780.6967 354.9375 800 L 456.6875 800 C 488.64564 760.87297 513.55979 716.97337 537.3125 672.46875 C 559.54158 713.60029 583.18531 753.97678 612.625 790.375 C 616.454 794.9871 620.29125 801.8536 627.40625 800 L 711 800 C 654.20255 743.97591 608.13587 677.04237 573.59375 604.96875 C 609.11569 543.31906 651.77711 486.09192 699.375 433.34375 C 711.851 419.35915 724.67475 405.5777 737.59375 392 L 642.375 392 L 641.78125 392.53125 C 597.95488 431.30882 565.95412 480.88878 538.25 532.28125 C 517.8452 491.94437 495.04536 452.9437 463.65625 420.125 C 454.09225 410.1939 444.6115 399.3464 433.0625 392 L 346.09375 392 z "
       id="path11719" />
  </g>
</svg>
