<?xml version="1.0" encoding="UTF-8" standalone="no"?>
<!-- Created with Inkscape (http://www.inkscape.org/) -->

<svg
   xmlns:dc="http://purl.org/dc/elements/1.1/"
   xmlns:cc="http://creativecommons.org/ns#"
   xmlns:rdf="http://www.w3.org/1999/02/22-rdf-syntax-ns#"
   xmlns:svg="http://www.w3.org/2000/svg"
   xmlns="http://www.w3.org/2000/svg"
   xmlns:sodipodi="http://sodipodi.sourceforge.net/DTD/sodipodi-0.dtd"
   xmlns:inkscape="http://www.inkscape.org/namespaces/inkscape"
   width="1000"
   height="1000"
   id="svg14333"
   version="1.1"
   inkscape:version="0.48.3.1 r9886"
   sodipodi:docname="New document 155">
  <defs
     id="defs5498" />
  <sodipodi:namedview
     inkscape:window-height="618"
     inkscape:window-width="641"
     inkscape:pageshadow="2"
     inkscape:pageopacity="0.0"
     borderopacity="1.0"
     bordercolor="#666666"
     pagecolor="#ffffff"
     id="base"
     showgrid="false"
     showguides="true"
     inkscape:guide-bbox="true"
     inkscape:zoom="0.454"
     inkscape:cx="500"
     inkscape:cy="500"
     inkscape:window-x="0"
     inkscape:window-y="31"
     inkscape:current-layer="layer1"
     inkscape:window-maximized="0">
    <sodipodi:guide
       orientation="horizontal"
       position="200"
       id="guide5596" />
  </sodipodi:namedview>
  <metadata
     id="metadata5594">
    <rdf:RDF>
      <cc:Work
         rdf:about="">
        <dc:format>image/svg+xml</dc:format>
        <dc:type
           rdf:resource="http://purl.org/dc/dcmitype/StillImage" />
        <dc:title></dc:title>
      </cc:Work>
    </rdf:RDF>
  </metadata>
  <g
     inkscape:label="Layer 1"
     inkscape:groupmode="layer"
     id="layer1">
    <path
       sodipodi:nodetypes="ssscssscccssscssscccssscssscccssscssscccs"
       inkscape:connector-curvature="0"
       style="fill:#000000"
       d="m 284.87479,767.0577 c 0,-23.0074 4.258,-32.9424 14.119,-32.9424 10.213,0 13.024,2.579 20.118,-23.9167 28.412,-106.1105 76.802,-220.1656 152.036,-345.535 -53.033,-99.4369 -98.462,-166.429 -151.496,-239.3494 -11.297,-15.5331 0.285,-11.066 -23.601,-16.9817 -16.426,-4.0681 -20.939,-17.315796 -20.939,-40.001396 l 0,-30.710404 76.016,0 76.017,0 -2.594,35.917204 c -1.801,24.9422 -2.964,35.300296 -21.843,36.015696 -7.801,0.2956 -3.783,1.4852 12.629,21.9907 41.984,52.4422 64.592,85.8466 109.045,160.9299 42.244,-66.3381 72.198,-113.7858 109.456,-166.7446 15.279,-21.7171 20.744,-22.2243 -1.114,-22.2243 -10.348,0 -14.545,-9.505596 -14.545,-32.942296 l 0,-32.942304 73.179,0 73.178,0 0,32.942304 c 0,21.4453 -4.452,32.942296 -12.757,32.942296 -8.829,0 -16.873,8.6845 -25.678,21.5015 -61.155,89.0233 -98.552,148.3933 -152.874,242.6745 69.951,132.7397 121.303,235.4141 147.12,335.0557 4.059,15.6664 8.828,31.3783 28.209,31.3783 8.491,0 12.92,11.2935 12.92,32.9424 l 0,32.9423 -67.297,0 -67.297,0 0,-31.2709 c 0,-17.3383 1.87,-31.3207 16.201,-32.2122 14.584,-0.9072 -0.696,-20.3083 -6.075,-37.6413 -19.888,-64.0816 -57.309,-156.1524 -112.552,-248.9603 -59.662,92.8078 -96.986,177.65 -123.501,257.1995 -4.7,14.0994 -0.547,24.7908 17.568,27.0005 9.787,1.1939 14.118,9.935 14.118,32.9424 l 0,32.9423 -73.885,0 -73.885,0 z"
       id="path12035" />
  </g>
</svg>
