<?xml version="1.0" encoding="UTF-8" standalone="no"?>
<!-- Created with Inkscape (http://www.inkscape.org/) -->

<svg
   xmlns:dc="http://purl.org/dc/elements/1.1/"
   xmlns:cc="http://creativecommons.org/ns#"
   xmlns:rdf="http://www.w3.org/1999/02/22-rdf-syntax-ns#"
   xmlns:svg="http://www.w3.org/2000/svg"
   xmlns="http://www.w3.org/2000/svg"
   xmlns:sodipodi="http://sodipodi.sourceforge.net/DTD/sodipodi-0.dtd"
   xmlns:inkscape="http://www.inkscape.org/namespaces/inkscape"
   width="1000"
   height="1000"
   id="svg14046"
   version="1.1"
   inkscape:version="0.48.3.1 r9886"
   sodipodi:docname="New document 135">
  <defs
     id="defs5498" />
  <sodipodi:namedview
     inkscape:window-height="618"
     inkscape:window-width="641"
     inkscape:pageshadow="2"
     inkscape:pageopacity="0.0"
     borderopacity="1.0"
     bordercolor="#666666"
     pagecolor="#ffffff"
     id="base"
     showgrid="false"
     showguides="true"
     inkscape:guide-bbox="true"
     inkscape:zoom="0.454"
     inkscape:cx="500"
     inkscape:cy="500"
     inkscape:window-x="0"
     inkscape:window-y="31"
     inkscape:current-layer="layer1"
     inkscape:window-maximized="0">
    <sodipodi:guide
       orientation="horizontal"
       position="200"
       id="guide5596" />
  </sodipodi:namedview>
  <metadata
     id="metadata5594">
    <rdf:RDF>
      <cc:Work
         rdf:about="">
        <dc:format>image/svg+xml</dc:format>
        <dc:type
           rdf:resource="http://purl.org/dc/dcmitype/StillImage" />
        <dc:title></dc:title>
      </cc:Work>
    </rdf:RDF>
  </metadata>
  <g
     inkscape:label="Layer 1"
     inkscape:groupmode="layer"
     id="layer1">
    <path
       style="fill:#000000;fill-opacity:1;stroke:none"
       d="m 517.9345,21.030995 c -17.554,0.06 -91.412,0.4044 -91.412,0.4044 -1.247,96.707905 12.739,78.483105 12.755,85.689305 0.08,37.1708 -22.464,140.0503 -89.593,463.7813 -10.008,48.259 -20.871,104.173 -24.157,124.281 -3.716,22.755 -11.329,36.563 -20.156,36.563 -9.708,0 -14.187,10.765 -14.187,34.125 l 0,34.125 68.25,0 68.25,0 0,-34.125 c 0,-23.832 -4.412,-34.125 -14.625,-34.125 -18.474,0 -18.412,-2.177 3.75,-99.531 10.117,-44.446 21.282,-97.267 24.812,-117.375 l 6.438,-36.563 57.375,0 c 46.137,0 58.442,3.348 62.718,17.063 18.624,59.721 46.67,219.496 45.344,258.343 l -1.562,46.313 63.843,0 63.87501,0 0,-34.125 c 0,-22.448 -4.59,-34.125 -13.406,-34.125 -22.983,0 -64.00301,-149.712 -113.50001,-414.344 -10.029,-53.621 -25.86,-123.059 -35.187,-154.312 -13.372,-44.804 -14.345,-58.407 -4.688,-64.375 7.104,-4.392 9.599,-8.1683 9.844,-32.094305 l 0.469,-45.625 c 0,0 -57.272,0.01 -65.25,0.031 z M 506.3405,221.906 c 0.233,0 0.425,0.113 0.625,0.313 8.555,8.555 37.687,139.162 37.687,168.968 0,15.713 -6.965,18.844 -41.75,18.844 l -41.75,0 19.032,-97.781 c 9.984,-51.257 21.424,-90.464 26.156,-90.344 z"
       id="path11388"
       inkscape:connector-curvature="0"
       sodipodi:nodetypes="ccsccsscccsscccscccccsssccscccsssccc" />
  </g>
</svg>
