<?xml version="1.0" encoding="UTF-8" standalone="no"?>
<!-- Created with Inkscape (http://www.inkscape.org/) -->

<svg
   xmlns:dc="http://purl.org/dc/elements/1.1/"
   xmlns:cc="http://creativecommons.org/ns#"
   xmlns:rdf="http://www.w3.org/1999/02/22-rdf-syntax-ns#"
   xmlns:svg="http://www.w3.org/2000/svg"
   xmlns="http://www.w3.org/2000/svg"
   xmlns:sodipodi="http://sodipodi.sourceforge.net/DTD/sodipodi-0.dtd"
   xmlns:inkscape="http://www.inkscape.org/namespaces/inkscape"
   width="1000"
   height="1000"
   id="svg12337"
   version="1.1"
   inkscape:version="0.48.3.1 r9886"
   sodipodi:docname="New document 23">
  <defs
     id="defs5498" />
  <sodipodi:namedview
     inkscape:window-height="618"
     inkscape:window-width="641"
     inkscape:pageshadow="2"
     inkscape:pageopacity="0.0"
     borderopacity="1.0"
     bordercolor="#666666"
     pagecolor="#ffffff"
     id="base"
     showgrid="false"
     showguides="true"
     inkscape:guide-bbox="true"
     inkscape:zoom="0.454"
     inkscape:cx="500"
     inkscape:cy="500"
     inkscape:window-x="0"
     inkscape:window-y="31"
     inkscape:current-layer="layer1"
     inkscape:window-maximized="0">
    <sodipodi:guide
       orientation="horizontal"
       position="200"
       id="guide5596" />
  </sodipodi:namedview>
  <metadata
     id="metadata5594">
    <rdf:RDF>
      <cc:Work
         rdf:about="">
        <dc:format>image/svg+xml</dc:format>
        <dc:type
           rdf:resource="http://purl.org/dc/dcmitype/StillImage" />
        <dc:title></dc:title>
      </cc:Work>
    </rdf:RDF>
  </metadata>
  <g
     inkscape:label="Layer 1"
     inkscape:groupmode="layer"
     id="layer1">
    <path
       style="fill:#000000;fill-opacity:1;stroke:none"
       d="m 460.84703,400 c -116.098,-0.1733 -175.144,133.1275 -166.315,224.1679 7.83,80.7388 46.815,146.741 94.846,163.4145 52.782,18.3227 112.815,15.7308 154.58,-6.6539 32.394,-17.3622 47.337,-24.5989 58.063,-11.6749 6.929,8.3493 26.96,30.7464 49.196,30.7464 38.5,0 50.71,-28.017 50.71,-62.7676 0,-19.6851 -21.413,-22.5352 -33.953,-19.2206 -34.228,9.0475 -26.199,-55.0729 -39.533,-135.0457 -15.239,-91.3979 -65.456,-182.8135 -167.594,-182.9661 z m 0.06,74.5922 c 76.47,-2.0972 101.082,95.8205 103.755,155.8043 1.484,33.3066 -14.236,59.9215 -40.645,76.2625 -37.509,23.2098 -86.048,22.3067 -107.936,7.045 -24.228,-16.893 -45.421,-50.8709 -46.21,-105.1108 -0.686,-47.1285 17.66,-131.9887 91.036,-134.001 z"
       id="path10076"
       inkscape:connector-curvature="0"
       sodipodi:nodetypes="ssssssssssssssss" />
  </g>
</svg>
