<?xml version="1.0" encoding="UTF-8" standalone="no"?>
<!-- Created with Inkscape (http://www.inkscape.org/) -->

<svg
   xmlns:dc="http://purl.org/dc/elements/1.1/"
   xmlns:cc="http://creativecommons.org/ns#"
   xmlns:rdf="http://www.w3.org/1999/02/22-rdf-syntax-ns#"
   xmlns:svg="http://www.w3.org/2000/svg"
   xmlns="http://www.w3.org/2000/svg"
   xmlns:sodipodi="http://sodipodi.sourceforge.net/DTD/sodipodi-0.dtd"
   xmlns:inkscape="http://www.inkscape.org/namespaces/inkscape"
   width="1000"
   height="1000"
   id="svg13072"
   version="1.1"
   inkscape:version="0.48.3.1 r9886"
   sodipodi:docname="New document 69">
  <defs
     id="defs5498" />
  <sodipodi:namedview
     inkscape:window-height="618"
     inkscape:window-width="641"
     inkscape:pageshadow="2"
     inkscape:pageopacity="0.0"
     borderopacity="1.0"
     bordercolor="#666666"
     pagecolor="#ffffff"
     id="base"
     showgrid="false"
     showguides="true"
     inkscape:guide-bbox="true"
     inkscape:zoom="0.454"
     inkscape:cx="500"
     inkscape:cy="500"
     inkscape:window-x="0"
     inkscape:window-y="31"
     inkscape:current-layer="layer1"
     inkscape:window-maximized="0">
    <sodipodi:guide
       orientation="horizontal"
       position="200"
       id="guide5596" />
  </sodipodi:namedview>
  <metadata
     id="metadata5594">
    <rdf:RDF>
      <cc:Work
         rdf:about="">
        <dc:format>image/svg+xml</dc:format>
        <dc:type
           rdf:resource="http://purl.org/dc/dcmitype/StillImage" />
        <dc:title></dc:title>
      </cc:Work>
    </rdf:RDF>
  </metadata>
  <g
     inkscape:label="Layer 1"
     inkscape:groupmode="layer"
     id="layer1">
    <path
       style="fill:#000000;fill-opacity:1;stroke:none"
       d="m 418.62472,59.375 c 0,246.875 0,493.75 0,740.625 l 35.688,0 c 18.768,0 34.094,-8.5429 34.094,-14.0937 0,-6.957 5.875,-8.9572 18.875,-2 11.919,6.379 35.206,16.0937 73.698,16.0937 33.847,0 67.157,-5.129 81.427,-15.5 41.206,-29.949 64.354,-72.8552 64.343,-171.0312 -0.01,-109.8239 -28.214,-146.6607 -54.593,-179.3751 -22.354,-27.7231 -50.073,-34.0937 -91.907,-34.0937 -48.296,0 -68.959,17.3256 -78.343,21.625 -15.943,7.3047 -15.063,16.9552 -15.063,-166.2187 l 0,-196.0313 c -22.74,0 -45.479,0 -68.219,0 z m 164,435.875 c 27.576,-0.3862 57.604,23.6723 69.5,66.5 14.556,52.3999 6.22,108.0182 -18.062,139.25 -28.449,36.5908 -94.883,34.4778 -122.156,-25.1875 -20.861,-45.6393 -22.279,-82.9902 4.937,-136.9688 14.586,-28.9279 46.914,-43.3295 65.781,-43.5937 z"
       id="path11616"
       inkscape:connector-curvature="0"
       sodipodi:nodetypes="ccssssssssssccssssss" />
  </g>
</svg>
