<?xml version="1.0" encoding="UTF-8" standalone="no"?>
<!-- Created with Inkscape (http://www.inkscape.org/) -->

<svg
   xmlns:dc="http://purl.org/dc/elements/1.1/"
   xmlns:cc="http://creativecommons.org/ns#"
   xmlns:rdf="http://www.w3.org/1999/02/22-rdf-syntax-ns#"
   xmlns:svg="http://www.w3.org/2000/svg"
   xmlns="http://www.w3.org/2000/svg"
   xmlns:sodipodi="http://sodipodi.sourceforge.net/DTD/sodipodi-0.dtd"
   xmlns:inkscape="http://www.inkscape.org/namespaces/inkscape"
   width="1000"
   height="1000"
   id="svg14178"
   version="1.1"
   inkscape:version="0.48.3.1 r9886"
   sodipodi:docname="New document 144">
  <defs
     id="defs5498" />
  <sodipodi:namedview
     inkscape:window-height="618"
     inkscape:window-width="641"
     inkscape:pageshadow="2"
     inkscape:pageopacity="0.0"
     borderopacity="1.0"
     bordercolor="#666666"
     pagecolor="#ffffff"
     id="base"
     showgrid="false"
     showguides="true"
     inkscape:guide-bbox="true"
     inkscape:zoom="0.454"
     inkscape:cx="500"
     inkscape:cy="500"
     inkscape:window-x="0"
     inkscape:window-y="31"
     inkscape:current-layer="layer1"
     inkscape:window-maximized="0">
    <sodipodi:guide
       orientation="horizontal"
       position="200"
       id="guide5596" />
  </sodipodi:namedview>
  <metadata
     id="metadata5594">
    <rdf:RDF>
      <cc:Work
         rdf:about="">
        <dc:format>image/svg+xml</dc:format>
        <dc:type
           rdf:resource="http://purl.org/dc/dcmitype/StillImage" />
        <dc:title></dc:title>
      </cc:Work>
    </rdf:RDF>
  </metadata>
  <g
     inkscape:label="Layer 1"
     inkscape:groupmode="layer"
     id="layer1">
    <path
       inkscape:connector-curvature="0"
       style="fill:#000000;fill-opacity:1;stroke:none"
       d="m 457.70028,790.87213 c -47.533,-16.5821 -96.399,-68.1839 -114.228,-109.9684 -49.472,-115.9502 -55.695,-283.4826 -18.553,-444.3746 27.474,-119.01389 93.443,-170.901891 185.884,-171.683991 78.518,-0.6643 125.457,26.310004 141.631,71.039001 6.805,18.819 18.073,34.21599 25.038,34.21599 7.975,0 12.666,12.636 12.666,34.123 l 0,34.123 -73.12,0 -73.121,0 0,-34.123 c 0,-25.885 10.12,-34.194 23.062,-34.419 -4.741,-32.51029 -50.242,-29.23519 -52.702,-29.06399 -52.002,3.6175 -95.416,37.19319 -116.893,133.02699 -22.78,101.6472 -27.154,176.625 -14.532,249.076 27.198,156.114 74.109,212.2505 158.787,197.8028 16.438,-2.8047 21.165,-23.4748 14.462,-23.6898 -7.354,-0.234 -12.186,-13.922 -12.186,-34.513 l 0,-34.123 68.245,0 68.246,0 0,34.123 c 0,18.767 -4.388,34.123 -9.75,34.123 -5.362,0 -9.749,4.806 -9.749,10.681 0,5.875 -8.435,24.045 -20.311,39.206 -43.584,55.6375 -129.68,62.9764 -182.876,44.419 z"
       id="path11442"
       sodipodi:nodetypes="ssssssscccscsssscscccsssss" />
  </g>
</svg>
