<?xml version="1.0" encoding="UTF-8" standalone="no"?>
<!-- Created with Inkscape (http://www.inkscape.org/) -->

<svg
   xmlns:dc="http://purl.org/dc/elements/1.1/"
   xmlns:cc="http://creativecommons.org/ns#"
   xmlns:rdf="http://www.w3.org/1999/02/22-rdf-syntax-ns#"
   xmlns:svg="http://www.w3.org/2000/svg"
   xmlns="http://www.w3.org/2000/svg"
   xmlns:sodipodi="http://sodipodi.sourceforge.net/DTD/sodipodi-0.dtd"
   xmlns:inkscape="http://www.inkscape.org/namespaces/inkscape"
   width="1000"
   height="1000"
   id="svg13738"
   version="1.1"
   inkscape:version="0.48.3.1 r9886"
   sodipodi:docname="New document 114">
  <defs
     id="defs5498" />
  <sodipodi:namedview
     inkscape:window-height="618"
     inkscape:window-width="641"
     inkscape:pageshadow="2"
     inkscape:pageopacity="0.0"
     borderopacity="1.0"
     bordercolor="#666666"
     pagecolor="#ffffff"
     id="base"
     showgrid="false"
     showguides="true"
     inkscape:guide-bbox="true"
     inkscape:zoom="0.454"
     inkscape:cx="500"
     inkscape:cy="500"
     inkscape:window-x="0"
     inkscape:window-y="31"
     inkscape:current-layer="layer1"
     inkscape:window-maximized="0">
    <sodipodi:guide
       orientation="horizontal"
       position="200"
       id="guide5596" />
  </sodipodi:namedview>
  <metadata
     id="metadata5594">
    <rdf:RDF>
      <cc:Work
         rdf:about="">
        <dc:format>image/svg+xml</dc:format>
        <dc:type
           rdf:resource="http://purl.org/dc/dcmitype/StillImage" />
        <dc:title></dc:title>
      </cc:Work>
    </rdf:RDF>
  </metadata>
  <g
     inkscape:label="Layer 1"
     inkscape:groupmode="layer"
     id="layer1">
    <path
       style="fill:#000000;fill-opacity:1;stroke:none"
       d="m 354.67081,49.062004 3.125,38.061996 c 2.528,30.89 7.226,38.628 25.031,41.157 20.827,2.957 21.906,1.4 21.906,81.75 -0.01,46.545 -2.924,180.643 -6.468,298 -5.913,195.814 -7.912,213.765 -24.344,218.062 -12.694,3.32 -17.906,13.798 -17.906,36.031 0,17.248 2.925,34.301 6.5,37.876 19.962,19.964 206.723,-3.2775 263.031,-42.282 61.741,-42.768 91.352,-85.73 111.344,-147.781 23.428,-72.718 29.238,-96.2797 26.906,-200.813 -1.908,-85.5234 -12.895,-131.3621 -43.767,-193.9991 -56.952,-115.554 -107.279,-153.455896 -284.264,-166.218896 z m 118.344,84.999996 43.906,3.188 c 63.387,16.17 106.047,55.004 143.094,130.25 45.494,92.403 49.753,184.518 13.531,293.281 -27.389,82.241 -45.825,103.59 -107.906,134.719 -21.449,10.755 -53.986,18.643 -72.282,22.406 l -33.25,6.844 6.469,-172.188 c 3.55,-97.994 6.438,-234.052 6.438,-302.344 z"
       id="path11860"
       inkscape:connector-curvature="0"
       sodipodi:nodetypes="ccccscscssssccccssscccsc" />
  </g>
</svg>
