<?xml version="1.0" encoding="UTF-8" standalone="no"?>
<!-- Created with Inkscape (http://www.inkscape.org/) -->

<svg
   xmlns:dc="http://purl.org/dc/elements/1.1/"
   xmlns:cc="http://creativecommons.org/ns#"
   xmlns:rdf="http://www.w3.org/1999/02/22-rdf-syntax-ns#"
   xmlns:svg="http://www.w3.org/2000/svg"
   xmlns="http://www.w3.org/2000/svg"
   xmlns:sodipodi="http://sodipodi.sourceforge.net/DTD/sodipodi-0.dtd"
   xmlns:inkscape="http://www.inkscape.org/namespaces/inkscape"
   width="1000"
   height="1000"
   id="svg13336"
   version="1.1"
   inkscape:version="0.48.3.1 r9886"
   sodipodi:docname="New document 87">
  <defs
     id="defs5498" />
  <sodipodi:namedview
     inkscape:window-height="618"
     inkscape:window-width="641"
     inkscape:pageshadow="2"
     inkscape:pageopacity="0.0"
     borderopacity="1.0"
     bordercolor="#666666"
     pagecolor="#ffffff"
     id="base"
     showgrid="false"
     showguides="true"
     inkscape:guide-bbox="true"
     inkscape:zoom="0.32102648"
     inkscape:cx="500"
     inkscape:cy="699.4504"
     inkscape:window-x="0"
     inkscape:window-y="31"
     inkscape:current-layer="layer1"
     inkscape:window-maximized="0">
    <sodipodi:guide
       orientation="horizontal"
       position="200"
       id="guide5596" />
  </sodipodi:namedview>
  <metadata
     id="metadata5594">
    <rdf:RDF>
      <cc:Work
         rdf:about="">
        <dc:format>image/svg+xml</dc:format>
        <dc:type
           rdf:resource="http://purl.org/dc/dcmitype/StillImage" />
        <dc:title></dc:title>
      </cc:Work>
    </rdf:RDF>
  </metadata>
  <g
     inkscape:label="Layer 1"
     inkscape:groupmode="layer"
     id="layer1">
    <path
       style="fill:#000000;fill-opacity:1;stroke:none"
       d="m 650.25693,39.562999 c -28.216,0.2049 -31.87039,15.045806 -32.937,65.500001 -1.60074,75.72031 -7.64134,153.18894 -9.129,214.5313 -2.11944,87.3933 -12.216,100.118 -25.594,93.9375 -8.572,-3.9603 -39.695,-8.8807 -69.187,-10.9375 -104.487,-7.2869 -154.454,58.954 -155.469,206.1562 -0.636,92.2754 14.097,146.9919 46.406,172.4063 l -0.06,0 c 29.64,23.3141 120.168,25.6473 161.375,4.1562 34.468,-17.9771 35.438,-17.9719 35.438,0.062 0,10.1462 10.202,14.625 33.312,14.625 l 33.313,0 5.625,-216.9375 c 3.084,-119.3078 8.19,-290.4027 11.375,-380.2187 l 5.812,-163.281301 -34.281,0 c -2.138,0 -4.119,-0.014 -6,0 z M 508.13193,482.0005 c 20.114,0.2412 43.5,13.0827 71.063,38.1875 17.792,16.206 21.937,30.3483 21.937,74.9375 0,47.7106 -3.543,58.1288 -26.812,78.75 -14.746,13.0681 -36.602,29.2348 -48.594,35.9375 -11.993,6.7027 -30.11,12.1875 -40.25,12.1875 -40.704,0 -69.707,-84.5926 -50.719,-147.9687 18.616,-62.1331 41.999,-92.4075 73.375,-92.0313 z"
       id="path11684"
       inkscape:connector-curvature="0"
       sodipodi:nodetypes="csscsscccssccccsccscsscsss" />
  </g>
</svg>
