<?xml version="1.0" encoding="UTF-8" standalone="no"?>
<!-- Created with Inkscape (http://www.inkscape.org/) -->

<svg
   xmlns:dc="http://purl.org/dc/elements/1.1/"
   xmlns:cc="http://creativecommons.org/ns#"
   xmlns:rdf="http://www.w3.org/1999/02/22-rdf-syntax-ns#"
   xmlns:svg="http://www.w3.org/2000/svg"
   xmlns="http://www.w3.org/2000/svg"
   xmlns:sodipodi="http://sodipodi.sourceforge.net/DTD/sodipodi-0.dtd"
   xmlns:inkscape="http://www.inkscape.org/namespaces/inkscape"
   width="1000"
   height="1000"
   id="svg12805"
   version="1.1"
   inkscape:version="0.48.3.1 r9886"
   sodipodi:docname="f.svg">
  <defs
     id="defs5498" />
  <sodipodi:namedview
     inkscape:window-height="618"
     inkscape:window-width="641"
     inkscape:pageshadow="2"
     inkscape:pageopacity="0.0"
     borderopacity="1.0"
     bordercolor="#666666"
     pagecolor="#ffffff"
     id="base"
     showgrid="false"
     showguides="true"
     inkscape:guide-bbox="true"
     inkscape:zoom="0.64205296"
     inkscape:cx="500"
     inkscape:cy="475.50609"
     inkscape:window-x="0"
     inkscape:window-y="31"
     inkscape:current-layer="layer1"
     inkscape:window-maximized="0">
    <sodipodi:guide
       orientation="horizontal"
       position="200"
       id="guide5596" />
  </sodipodi:namedview>
  <metadata
     id="metadata5594">
    <rdf:RDF>
      <cc:Work
         rdf:about="">
        <dc:format>image/svg+xml</dc:format>
        <dc:type
           rdf:resource="http://purl.org/dc/dcmitype/StillImage" />
        <dc:title />
      </cc:Work>
    </rdf:RDF>
  </metadata>
  <g
     inkscape:label="Layer 1"
     inkscape:groupmode="layer"
     id="layer1">
    <path
       id="path11209"
       d="m 461.6947,800 c 0,0 -4.67,-72.9879 -8.843,-145.7042 -9.343,-162.7911 -1.02,-185.4369 -53.828,-186.3009 l -71.218,0.8348 -1.563,-68.8297 53.622,0 53.621,0 0,-92.139 c 0,-129.9707 14.014,-188.2344 55.61098,-227.1525 26.77,-25.0461 56.595,-41.8259 108.686,-41.0604 56.117,0.8246 89.073,27.2602 89.187,52.4463 0.168,37.1029 -5.766,36.8604 -23.131,43.1104 -15.204,5.4723 -34.224,-8.1021 -54.902,-11.0598 -27.77,-3.9724 -66.233,15.2664 -83.609,56.851 -18.27,43.726 -27.041,123.0446 -19.31,174.6046 l 2.658,44.3994 81.398,0 77.397,0 0,34.1228 0,34.1227 -74.644,0 -78.645,0 c 0,0 7.676,110.4545 10.517,165.7391 2.836,55.2162 6.515,166.0154 6.515,166.0154 1.8e-4,0 -69.51898,0 -69.51898,0 z"
       style="fill:#000000;fill-opacity:1;stroke:none"
       inkscape:connector-curvature="0"
       sodipodi:nodetypes="cssccccsssssssscccccccscc" />
  </g>
</svg>
