<?xml version="1.0" encoding="UTF-8" standalone="no"?>
<!-- Created with Inkscape (http://www.inkscape.org/) -->

<svg
   xmlns:dc="http://purl.org/dc/elements/1.1/"
   xmlns:cc="http://creativecommons.org/ns#"
   xmlns:rdf="http://www.w3.org/1999/02/22-rdf-syntax-ns#"
   xmlns:svg="http://www.w3.org/2000/svg"
   xmlns="http://www.w3.org/2000/svg"
   xmlns:sodipodi="http://sodipodi.sourceforge.net/DTD/sodipodi-0.dtd"
   xmlns:inkscape="http://www.inkscape.org/namespaces/inkscape"
   width="1000"
   height="1000"
   id="svg14706"
   version="1.1"
   inkscape:version="0.48.3.1 r9886"
   sodipodi:docname="New document 180">
  <defs
     id="defs5498" />
  <sodipodi:namedview
     inkscape:window-height="618"
     inkscape:window-width="641"
     inkscape:pageshadow="2"
     inkscape:pageopacity="0.0"
     borderopacity="1.0"
     bordercolor="#666666"
     pagecolor="#ffffff"
     id="base"
     showgrid="false"
     showguides="true"
     inkscape:guide-bbox="true"
     inkscape:zoom="0.454"
     inkscape:cx="500"
     inkscape:cy="500"
     inkscape:window-x="0"
     inkscape:window-y="31"
     inkscape:current-layer="layer1"
     inkscape:window-maximized="0">
    <sodipodi:guide
       orientation="horizontal"
       position="200"
       id="guide5596" />
  </sodipodi:namedview>
  <metadata
     id="metadata5594">
    <rdf:RDF>
      <cc:Work
         rdf:about="">
        <dc:format>image/svg+xml</dc:format>
        <dc:type
           rdf:resource="http://purl.org/dc/dcmitype/StillImage" />
        <dc:title></dc:title>
      </cc:Work>
    </rdf:RDF>
  </metadata>
  <g
     inkscape:label="Layer 1"
     inkscape:groupmode="layer"
     id="layer1">
    <path
       inkscape:connector-curvature="0"
       style="fill:#000000"
       d="m 422.16021,803.6553 c -41.261,-10.897 -90.404,-37.386 -120.519,-94.7506 -35.13,-66.9136 -50.717,-162.9972 -49.645,-313.2074 0.59,-82.7224 22.034,-164.7022 59.964,-230.6983 40.436,-70.359201 147.829,-130.425301 262.12,-121.471601 68.74,5.3851 110.46,34.9953 134.474,60.613501 15.933,16.9977 18.92,23.5704 16.93,99.5527 l -0.13,81.3534 -33.86,0 -33.86,0 -1.733,-63.3429 -1.732,-63.343 c 0,0 -18.241,-18.012 -28.924,-23.8932 -47.767,-26.2968 -106.265,-27.2792 -150.015,-10.103 -31.531,12.3791 -65.939,33.4949 -98.923,81.772 -62.78,91.8886 -59.623,265.3451 -48.773,336.9702 9.497,62.6973 32.695,142.9753 99.328,180.8119 10.191,5.787 42.335,16.1972 63.312,16.8472 37.422,1.1596 87.031,-14.2455 117.399,-55.3774 21.522,-29.15 42.066,-86.7786 34.728,-93.4044 -1.684,-1.5209 -25.472,-5.0975 -52.862,-7.948 -48.173,-5.0135 -49.88,-4.6166 -52.255,12.1446 -2.101,14.8294 -6.76,17.3273 -32.315,17.3273 l -29.86,0 0,-63.4527 0,-63.4528 28.565,-2.3509 c 23.657,-1.947 29.259,0.298 32.598,13.0638 3.489,13.3418 9.854,15.4148 47.34,15.4148 23.819,0 48.355,1.9364 54.522,4.3032 7.686,2.949 11.989,-1.162 13.675,-13.0638 2.107,-14.8748 6.745,-17.3671 32.321,-17.3671 l 37.86,0 -1.393,84.3777 c -1.011,61.2464 -16.971,106.4851 -31.146,131.1593 -27.548,47.9552 -62.958,77.3429 -113.143,97.8602 -39.026,15.9551 -109.122,15.5206 -154.048,3.6553 z"
       id="path12081"
       sodipodi:nodetypes="ssssssscccccssssssscssscccscsccscssss" />
  </g>
</svg>
