<?xml version="1.0" encoding="UTF-8" standalone="no"?>
<!-- Created with Inkscape (http://www.inkscape.org/) -->

<svg
   xmlns:dc="http://purl.org/dc/elements/1.1/"
   xmlns:cc="http://creativecommons.org/ns#"
   xmlns:rdf="http://www.w3.org/1999/02/22-rdf-syntax-ns#"
   xmlns:svg="http://www.w3.org/2000/svg"
   xmlns="http://www.w3.org/2000/svg"
   xmlns:sodipodi="http://sodipodi.sourceforge.net/DTD/sodipodi-0.dtd"
   xmlns:inkscape="http://www.inkscape.org/namespaces/inkscape"
   width="1000"
   height="1000"
   id="svg13958"
   version="1.1"
   inkscape:version="0.48.3.1 r9886"
   sodipodi:docname="New document 129">
  <defs
     id="defs5498" />
  <sodipodi:namedview
     inkscape:window-height="618"
     inkscape:window-width="641"
     inkscape:pageshadow="2"
     inkscape:pageopacity="0.0"
     borderopacity="1.0"
     bordercolor="#666666"
     pagecolor="#ffffff"
     id="base"
     showgrid="false"
     showguides="true"
     inkscape:guide-bbox="true"
     inkscape:zoom="0.454"
     inkscape:cx="500"
     inkscape:cy="500"
     inkscape:window-x="0"
     inkscape:window-y="31"
     inkscape:current-layer="layer1"
     inkscape:window-maximized="0">
    <sodipodi:guide
       orientation="horizontal"
       position="200"
       id="guide5596" />
  </sodipodi:namedview>
  <metadata
     id="metadata5594">
    <rdf:RDF>
      <cc:Work
         rdf:about="">
        <dc:format>image/svg+xml</dc:format>
        <dc:type
           rdf:resource="http://purl.org/dc/dcmitype/StillImage" />
        <dc:title></dc:title>
      </cc:Work>
    </rdf:RDF>
  </metadata>
  <g
     inkscape:label="Layer 1"
     inkscape:groupmode="layer"
     id="layer1">
    <path
       inkscape:connector-curvature="0"
       style="fill:#000000;fill-opacity:1;stroke:none"
       d="m 278.29243,765.877 c 0,-18.767 4.17,-34.122 9.267,-34.122 5.666,0 9.183,-119.357 9.05,-307.105 -0.129,-182.253 -3.897,-307.105 -9.268,-307.105 -4.977,0 -9.049,-15.355 -9.049,-34.123001 l 0,-34.123 53.621,0 53.622,0 0,34.123 c 0,18.768001 -4.388,34.123001 -9.75,34.123001 -5.995,0 -9.749,48.399 -9.749,125.698 0,105.628 2.462,126.644 15.421,131.617 8.482,3.255 73.665,5.918 144.852,5.918 l 129.43,0 6.264,-59.927 c 11.396,-109.036 7.859,-193.557 -8.361,-199.781 -9.023,-3.462 -14.624,-18.281 -14.624,-38.691001 l 0,-33.08 63.371,0 63.371,0 0,34.123 c 0,22.045001 -4.631,34.123001 -13.083,34.123001 -10.251,0 -14.465,39.558 -19.471,182.8 -9.355,267.671 -8.1,431.41 3.306,431.41 5.362,0 9.749,15.355 9.749,34.122 l 0,34.123 -53.622,0 -53.621,0 0,-34.123 c 0,-18.767 4.387,-34.122 9.749,-34.122 6.052,0 9.75,-53.622 9.75,-141.366 l 0,-141.366 -146.241,0 -146.24,0 0,141.366 c 0,134.866 0.896,141.366 19.499,141.366 15.784,0 19.498,6.499 19.498,34.122 l 0,34.123 -63.371,0 -63.37,0 0,-34.123 z"
       id="path11436" />
  </g>
</svg>
