<?xml version="1.0" encoding="UTF-8" standalone="no"?>
<!-- Created with Inkscape (http://www.inkscape.org/) -->

<svg
   xmlns:dc="http://purl.org/dc/elements/1.1/"
   xmlns:cc="http://creativecommons.org/ns#"
   xmlns:rdf="http://www.w3.org/1999/02/22-rdf-syntax-ns#"
   xmlns:svg="http://www.w3.org/2000/svg"
   xmlns="http://www.w3.org/2000/svg"
   xmlns:sodipodi="http://sodipodi.sourceforge.net/DTD/sodipodi-0.dtd"
   xmlns:inkscape="http://www.inkscape.org/namespaces/inkscape"
   width="1000"
   height="1000"
   id="svg12894"
   version="1.1"
   inkscape:version="0.48.3.1 r9886"
   sodipodi:docname="New document 57">
  <defs
     id="defs5498" />
  <sodipodi:namedview
     inkscape:window-height="618"
     inkscape:window-width="641"
     inkscape:pageshadow="2"
     inkscape:pageopacity="0.0"
     borderopacity="1.0"
     bordercolor="#666666"
     pagecolor="#ffffff"
     id="base"
     showgrid="false"
     showguides="true"
     inkscape:guide-bbox="true"
     inkscape:zoom="0.454"
     inkscape:cx="500"
     inkscape:cy="500"
     inkscape:window-x="0"
     inkscape:window-y="31"
     inkscape:current-layer="layer1"
     inkscape:window-maximized="0">
    <sodipodi:guide
       orientation="horizontal"
       position="200"
       id="guide5596" />
  </sodipodi:namedview>
  <metadata
     id="metadata5594">
    <rdf:RDF>
      <cc:Work
         rdf:about="">
        <dc:format>image/svg+xml</dc:format>
        <dc:type
           rdf:resource="http://purl.org/dc/dcmitype/StillImage" />
        <dc:title></dc:title>
      </cc:Work>
    </rdf:RDF>
  </metadata>
  <g
     inkscape:label="Layer 1"
     inkscape:groupmode="layer"
     id="layer1">
    <path
       id="path11225"
       d="m 469.16631,780.525 c -15.772,-17.4286 -16.922,-31.5149 -10.941,-134.0537 3.677,-63.0183 12.346,-140.902 19.267,-173.0749 12.409,-57.6893 13.077,-58.5378 48.427,-61.522 32.88701,-2.7761 38.97001,11.5679 38.97001,34.8471 0,13.9551 -9.347,44.4953 -16.95201,83.1448 -25.969,131.9862 -28.569,158.4135 -12.023,183.6656 8.425,12.8588 23.91301,19.5082 24.69401,45.1583 0.824,27.045 -11.38601,41.3098 -41.20501,41.3098 -20.218,0 -39.311,-7.4019 -50.237,-19.475 z"
       style="fill:#000000;fill-opacity:1;stroke:none"
       inkscape:connector-curvature="0"
       sodipodi:nodetypes="sscsssssss" />
    <path
       id="path11227"
       d="m 499.85931,345.91581 c -5.571,-5.9207 -11.684,-24.6734 -9.943,-39.8723 2.856,-24.946 19.695,-27.9258 44.599,-30.6322 0,0 20.358,-1.4923 30.49701,7.9396 10.845,10.0879 10.938,33.4952 10.938,33.4952 0,0 -0.465,24.5848 -10.938,35.0577 -9.264,9.264 -28.36601,9.375 -28.36601,9.375 -24.9,0 -25.619,-3.4947 -36.787,-15.363 z"
       style="fill:#000000;fill-opacity:1;stroke:none"
       inkscape:connector-curvature="0"
       sodipodi:nodetypes="sssscsss" />
  </g>
</svg>
