<?xml version="1.0" encoding="UTF-8" standalone="no"?>
<!-- Created with Inkscape (http://www.inkscape.org/) -->

<svg
   xmlns:dc="http://purl.org/dc/elements/1.1/"
   xmlns:cc="http://creativecommons.org/ns#"
   xmlns:rdf="http://www.w3.org/1999/02/22-rdf-syntax-ns#"
   xmlns:svg="http://www.w3.org/2000/svg"
   xmlns="http://www.w3.org/2000/svg"
   xmlns:sodipodi="http://sodipodi.sourceforge.net/DTD/sodipodi-0.dtd"
   xmlns:inkscape="http://www.inkscape.org/namespaces/inkscape"
   width="1000"
   height="1000"
   id="svg13425"
   version="1.1"
   inkscape:version="0.48.3.1 r9886"
   sodipodi:docname="New document 93">
  <defs
     id="defs5498" />
  <sodipodi:namedview
     inkscape:window-height="618"
     inkscape:window-width="641"
     inkscape:pageshadow="2"
     inkscape:pageopacity="0.0"
     borderopacity="1.0"
     bordercolor="#666666"
     pagecolor="#ffffff"
     id="base"
     showgrid="false"
     showguides="true"
     inkscape:guide-bbox="true"
     inkscape:zoom="0.454"
     inkscape:cx="500"
     inkscape:cy="500"
     inkscape:window-x="0"
     inkscape:window-y="31"
     inkscape:current-layer="layer1"
     inkscape:window-maximized="0">
    <sodipodi:guide
       orientation="horizontal"
       position="200"
       id="guide5596" />
  </sodipodi:namedview>
  <metadata
     id="metadata5594">
    <rdf:RDF>
      <cc:Work
         rdf:about="">
        <dc:format>image/svg+xml</dc:format>
        <dc:type
           rdf:resource="http://purl.org/dc/dcmitype/StillImage" />
        <dc:title></dc:title>
      </cc:Work>
    </rdf:RDF>
  </metadata>
  <g
     inkscape:label="Layer 1"
     inkscape:groupmode="layer"
     id="layer1">
    <path
       id="path11705"
       d="m 405.76938,948.29626 c -2.937,-30.9958 21.311,-35.2846 39.661,-28.3879 44.828,16.8485 78.424,-28.1997 84.91,-57.0708 9.825,-43.7379 15.667,-63.4243 18.537,-241.6273 l 3.571,-221.797 34.045,0 34.045,0 -3.569,251.046 c -3.341,235.0437 -16.93,270.2047 -48.425,306.143 -21.038,24.005 -47.402,42.811 -94.728,42.811 -52.597,3.08434 -63.664,-4.8634 -68.047,-51.117 z"
       style="fill:#000000;fill-opacity:1;stroke:none"
       inkscape:connector-curvature="0"
       sodipodi:nodetypes="sssscccsscs" />
    <path
       id="path11707"
       d="m 546.99538,297.04026 c 2.214,-38.296 15.068,-42.981 43.621,-42.906 25.473,0.067 39.1,16.939 39.1,42.158 0,26.91 -12.145,40.0691 -41.435,41.996 -21.108,1.3886 -43.128,-9.3739 -41.286,-41.248 z"
       style="fill:#000000;fill-opacity:1;stroke:none"
       inkscape:connector-curvature="0"
       sodipodi:nodetypes="sssss" />
  </g>
</svg>
