<?xml version="1.0" encoding="UTF-8" standalone="no"?>
<!-- Created with Inkscape (http://www.inkscape.org/) -->

<svg
   xmlns:dc="http://purl.org/dc/elements/1.1/"
   xmlns:cc="http://creativecommons.org/ns#"
   xmlns:rdf="http://www.w3.org/1999/02/22-rdf-syntax-ns#"
   xmlns:svg="http://www.w3.org/2000/svg"
   xmlns="http://www.w3.org/2000/svg"
   xmlns:sodipodi="http://sodipodi.sourceforge.net/DTD/sodipodi-0.dtd"
   xmlns:inkscape="http://www.inkscape.org/namespaces/inkscape"
   width="1000"
   height="1000"
   id="svg13870"
   version="1.1"
   inkscape:version="0.48.3.1 r9886"
   sodipodi:docname="New document 123">
  <defs
     id="defs5498" />
  <sodipodi:namedview
     inkscape:window-height="618"
     inkscape:window-width="641"
     inkscape:pageshadow="2"
     inkscape:pageopacity="0.0"
     borderopacity="1.0"
     bordercolor="#666666"
     pagecolor="#ffffff"
     id="base"
     showgrid="false"
     showguides="true"
     inkscape:guide-bbox="true"
     inkscape:zoom="0.454"
     inkscape:cx="500"
     inkscape:cy="500"
     inkscape:window-x="0"
     inkscape:window-y="31"
     inkscape:current-layer="layer1"
     inkscape:window-maximized="0">
    <sodipodi:guide
       orientation="horizontal"
       position="200"
       id="guide5596" />
  </sodipodi:namedview>
  <metadata
     id="metadata5594">
    <rdf:RDF>
      <cc:Work
         rdf:about="">
        <dc:format>image/svg+xml</dc:format>
        <dc:type
           rdf:resource="http://purl.org/dc/dcmitype/StillImage" />
        <dc:title></dc:title>
      </cc:Work>
    </rdf:RDF>
  </metadata>
  <g
     inkscape:label="Layer 1"
     inkscape:groupmode="layer"
     id="layer1">
    <path
       inkscape:connector-curvature="0"
       style="fill:#000000"
       d="m 654.05585,802.598 c -36.855,-3.3195 -41.232,-6.3617 -41.232,-28.6594 0,-14.0897 -13.722,-41.0407 -31.53,-61.9299 -185.143,-217.1679 -172.204,-211.0161 -172.204,-81.8691 0,84.1536 2.54,101.9491 14.552,101.9491 10.164,0 14.553,10.2406 14.553,33.9557 l 0,33.9556 -67.912,0 -67.911,0 0,-33.9556 c 0,-26.8797 3.837,-33.9557 18.414,-33.9557 17.72,0 18.38,-11.7082 17.5,-310.4516 -0.861,-292.3903 -1.932,-310.4516 -18.414,-310.4516 -13.532,0 -17.5,-7.6989 -17.5,-33.9556 l 0,-33.9557 82.464,0 82.464,0 0,33.3112 c 0,29.1276 -3.351,33.6968 -26.68,36.3811 l -26.679,3.0698 -2.744,115.1986 -2.744,115.1984 57.199,-56.9888 c 101.604,-101.2301 156.873,-174.2824 156.873,-207.3469 l 0,-29.938 75.188,2.8335 75.187,2.8335 3.012,36.3811 c 2.814,34.0072 1.231,36.4206 -24.255,36.9876 -21.58,0.4803 -39.4,15.0637 -85.474,69.9472 -32.016,38.1373 -93.136,105.647 -135.822,150.0216 -42.688,44.3746 -78.805,84.1416 -80.262,88.3711 -1.456,4.2296 7.277,13.0015 19.407,19.4932 12.13,6.4917 50.43,44.8918 85.112,85.3336 112.763,131.4924 159.677,180.1381 181.901,188.6188 16.934,6.4613 21.829,15.9984 21.829,42.525 0,37.6928 3.451,36.7964 -104.292,27.0922 z"
       id="path12079" />
  </g>
</svg>
