<?xml version="1.0" encoding="UTF-8" standalone="no"?>
<!-- Created with Inkscape (http://www.inkscape.org/) -->

<svg
   xmlns:dc="http://purl.org/dc/elements/1.1/"
   xmlns:cc="http://creativecommons.org/ns#"
   xmlns:rdf="http://www.w3.org/1999/02/22-rdf-syntax-ns#"
   xmlns:svg="http://www.w3.org/2000/svg"
   xmlns="http://www.w3.org/2000/svg"
   xmlns:sodipodi="http://sodipodi.sourceforge.net/DTD/sodipodi-0.dtd"
   xmlns:inkscape="http://www.inkscape.org/namespaces/inkscape"
   width="1000"
   height="1000"
   id="svg14662"
   version="1.1"
   inkscape:version="0.48.3.1 r9886"
   sodipodi:docname="New document 177">
  <defs
     id="defs5498" />
  <sodipodi:namedview
     inkscape:window-height="618"
     inkscape:window-width="641"
     inkscape:pageshadow="2"
     inkscape:pageopacity="0.0"
     borderopacity="1.0"
     bordercolor="#666666"
     pagecolor="#ffffff"
     id="base"
     showgrid="false"
     showguides="true"
     inkscape:guide-bbox="true"
     inkscape:zoom="0.454"
     inkscape:cx="500"
     inkscape:cy="500"
     inkscape:window-x="0"
     inkscape:window-y="31"
     inkscape:current-layer="layer1"
     inkscape:window-maximized="0">
    <sodipodi:guide
       orientation="horizontal"
       position="200"
       id="guide5596" />
  </sodipodi:namedview>
  <metadata
     id="metadata5594">
    <rdf:RDF>
      <cc:Work
         rdf:about="">
        <dc:format>image/svg+xml</dc:format>
        <dc:type
           rdf:resource="http://purl.org/dc/dcmitype/StillImage" />
        <dc:title></dc:title>
      </cc:Work>
    </rdf:RDF>
  </metadata>
  <g
     inkscape:label="Layer 1"
     inkscape:groupmode="layer"
     id="layer1">
    <path
       inkscape:connector-curvature="0"
       style="fill:#000000"
       d="m 440.26878,731.5277 c -5.455,-68.3175 -54.892,-273.5615 -91.35,-379.2562 -10.584,-30.6813 -19.607,-64.6813 -20.054,-75.5556 -1.809,-44.0675 -17.217,37.246 -27.287,143.9998 -5.713,60.5647 -14.573,152.5862 -19.686,204.4924 -6.304,63.9804 -6.192,95.4111 0.358,97.5925 5.31,1.7699 9.654,17.7388 9.654,35.4864 l 0,32.2685 -61.389,0 -61.389,0 0,-33.0556 c 0,-21.6073 4.458,-33.0555 12.871,-33.0555 15.794,0 30.082,-85.5128 44.188,-264.4444 5.527,-70.125 16.327,-167.5557 24,-216.5127 8.333,-53.1775 11.508,-110.5942 7.885,-142.6199 l -6.065,-53.607301 36.477,-6.0261 c 20.062,-3.3144 48.145,-6.0729 62.405,-6.13 25.088,-0.1007 25.903,1.5013 25.186,49.4793 -0.803,53.471601 18.948,156.012601 43.171,224.161801 20.619,58.0179 80.32,290.5817 80.945,315.3299 0.671,26.477 26.708,-55.1449 84.072,-263.5328 25.782,-93.6601 53.029,-185.0351 60.549,-203.0555 8.706,-20.8669 11.829,-49.0547 8.599,-77.625601 l -5.073,-44.8611 67.33897,0 67.34,0 0,32.2685 c 0,17.7477 -4.85,33.885301 -10.778,35.861301 -8.056,2.6849 -8.123,30.9256 -0.264,111.7592 10.523,108.2948 24.524,281.2769 35.321,436.361 4.323,62.103 9.062,82.6389 19.072,82.6389 8.925,0 13.319,10.9043 13.319,33.0555 l 0,33.0556 -56.667,0 -56.667,0 0,-32.2686 c 0,-17.7477 3.308,-33.6851 7.353,-35.4166 4.035,-1.7315 4.542,-47.7731 1.118,-102.3149 -9.356,-149.0421 -28.67197,-391.6139 -31.40397,-394.3784 -1.323,-1.3388 -18.276,56.0362 -37.673,127.4999 -35.491,130.7591 -92.53,323.5371 -104.811,354.2397 -4.651,11.6269 -2.111,16.5278 8.566,16.5278 11.049,0 15.177,8.991 15.177,33.0555 l 0,33.0556 -69.471,0 -69.469,0 -5.468,-68.4723 z"
       id="path12091" />
  </g>
</svg>
