<?xml version="1.0" encoding="UTF-8" standalone="no"?>
<!-- Created with Inkscape (http://www.inkscape.org/) -->

<svg
   xmlns:dc="http://purl.org/dc/elements/1.1/"
   xmlns:cc="http://creativecommons.org/ns#"
   xmlns:rdf="http://www.w3.org/1999/02/22-rdf-syntax-ns#"
   xmlns:svg="http://www.w3.org/2000/svg"
   xmlns="http://www.w3.org/2000/svg"
   xmlns:sodipodi="http://sodipodi.sourceforge.net/DTD/sodipodi-0.dtd"
   xmlns:inkscape="http://www.inkscape.org/namespaces/inkscape"
   width="1000"
   height="1000"
   id="svg13116"
   version="1.1"
   inkscape:version="0.48.3.1 r9886"
   sodipodi:docname="New document 72">
  <defs
     id="defs5498" />
  <sodipodi:namedview
     inkscape:window-height="618"
     inkscape:window-width="641"
     inkscape:pageshadow="2"
     inkscape:pageopacity="0.0"
     borderopacity="1.0"
     bordercolor="#666666"
     pagecolor="#ffffff"
     id="base"
     showgrid="false"
     showguides="true"
     inkscape:guide-bbox="true"
     inkscape:zoom="0.454"
     inkscape:cx="500"
     inkscape:cy="500"
     inkscape:window-x="0"
     inkscape:window-y="31"
     inkscape:current-layer="layer1"
     inkscape:window-maximized="0">
    <sodipodi:guide
       orientation="horizontal"
       position="200"
       id="guide5596" />
  </sodipodi:namedview>
  <metadata
     id="metadata5594">
    <rdf:RDF>
      <cc:Work
         rdf:about="">
        <dc:format>image/svg+xml</dc:format>
        <dc:type
           rdf:resource="http://purl.org/dc/dcmitype/StillImage" />
        <dc:title></dc:title>
      </cc:Work>
    </rdf:RDF>
  </metadata>
  <g
     inkscape:label="Layer 1"
     inkscape:groupmode="layer"
     id="layer1">
    <path
       inkscape:connector-curvature="0"
       id="path11628"
       d="m 249.82007,619.048 c 4.601,-100.503 4.902,-218.9839 4.902,-218.9839 0,0 21.723,4.5627 70.023,0 -1.491,41.8207 20.956,0 79.345,0 53.354,0 83.306,12.1652 97.806,26.856 26.406,26.7533 32.06,19.0402 65.70703,2.031 22.285,-11.2649 42.484,-20.887 95.842,-20.887 109.7,0 121.346,42.4627 115.992,227.2956 -1.589,54.8596 -4.438,164.6403 -4.438,164.6403 -22.748,0 -48.622,0 -71.37,0 0,0 2.37,-101.013 3.75,-146.0236 3.733,-121.7545 -5.356,-131.3546 -26.125,-149.0585 -12.401,-10.5709 -41.165,-15.9742 -56.129,-11.0284 -45.28,14.9667 -66.11003,44.749 -66.11003,190.0535 l 0,116.057 c -24.374,-2.0165 -51.872,2.0175 -76.245,0 l 0.363,-114.2228 c 0.362,-113.8357 -7.984,-169.5641 -42.61,-193.8166 -19.319,-13.5312 -48.465,-20.0412 -77.095,8.6692 -35.481,35.5824 -38.472,48.4802 -42.303,160.915 L 316.40807,800 c -22.874,0 -51.998,0 -74.872,0 z"
       style="fill:#000000;fill-opacity:1;stroke:none"
       sodipodi:nodetypes="sccsssssccssssccssssccs" />
  </g>
</svg>
