<?xml version="1.0" encoding="UTF-8" standalone="no"?>
<!-- Created with Inkscape (http://www.inkscape.org/) -->

<svg
   xmlns:dc="http://purl.org/dc/elements/1.1/"
   xmlns:cc="http://creativecommons.org/ns#"
   xmlns:rdf="http://www.w3.org/1999/02/22-rdf-syntax-ns#"
   xmlns:svg="http://www.w3.org/2000/svg"
   xmlns="http://www.w3.org/2000/svg"
   xmlns:sodipodi="http://sodipodi.sourceforge.net/DTD/sodipodi-0.dtd"
   xmlns:inkscape="http://www.inkscape.org/namespaces/inkscape"
   width="1000"
   height="1000"
   id="svg13826"
   version="1.1"
   inkscape:version="0.48.3.1 r9886"
   sodipodi:docname="New document 120">
  <defs
     id="defs5498" />
  <sodipodi:namedview
     inkscape:window-height="618"
     inkscape:window-width="641"
     inkscape:pageshadow="2"
     inkscape:pageopacity="0.0"
     borderopacity="1.0"
     bordercolor="#666666"
     pagecolor="#ffffff"
     id="base"
     showgrid="false"
     showguides="true"
     inkscape:guide-bbox="true"
     inkscape:zoom="0.454"
     inkscape:cx="500"
     inkscape:cy="500"
     inkscape:window-x="0"
     inkscape:window-y="31"
     inkscape:current-layer="layer1"
     inkscape:window-maximized="0">
    <sodipodi:guide
       orientation="horizontal"
       position="200"
       id="guide5596" />
  </sodipodi:namedview>
  <metadata
     id="metadata5594">
    <rdf:RDF>
      <cc:Work
         rdf:about="">
        <dc:format>image/svg+xml</dc:format>
        <dc:type
           rdf:resource="http://purl.org/dc/dcmitype/StillImage" />
        <dc:title></dc:title>
      </cc:Work>
    </rdf:RDF>
  </metadata>
  <g
     inkscape:label="Layer 1"
     inkscape:groupmode="layer"
     id="layer1">
    <path
       id="path11881"
       d="m 268.76179,765.627 c 0,-27.623 3.714,-34.123 19.499,-34.123 15.551,0 19.446,-6.414 19.242,-31.685 -0.142,-17.427 1.984,-160.012 4.722,-316.855 4.328,-247.887 3.087,-285.168 -9.493,-285.168 -10.039,0 -14.471,-10.451 -14.471,-34.122996 l 0,-34.123 47.528,0 c 26.14,0 61.41,2.777 78.377,6.17 28.967,5.794 30.758,8.618 29.369,46.308996 -0.814,22.077 5.211,58.249 13.389,80.383 46.419,125.635 167.648,366.3511 189.952,407.215 l 25.917,47.483 6.068,-184.225 c 3.156,-95.8301 7.432,-210.419 9.099,-254.657 2.728,-72.403 1.258,-80.432 -14.721,-80.432 -13.787,0 -16.2,-7.6644 -17.751,-34.122996 l 0,-34.123 73.12,0 73.121,0 0,32.986 c 0,24.114996 -4.942,34.277996 -18.378,37.791996 -22.562,5.899 -27.129,65.227 -36.096,399.879 -4.478,167.12 -3.188,231.548 4.636,231.548 5.962,0 10.84,15.355 10.84,34.122 l 0,34.123 -63.371,0 -63.371,0 0,-34.582 c 0,-22.416 -14.577,-60.979 -41.434,-109.614 -22.789,-41.268 -75.393,-166.6352 -120.744,-259.256 l -85.308,-174.223 -7.016,132.388 c -3.859,72.814 -3.883,187.378 -0.06,254.59 6.281,110.254 8.739,122.201 25.14,122.201 14.276,0 18.179,7.326 18.179,34.123 l 0,34.123 -77.995,0 -77.995,0 0,-34.123 z"
       style="fill:#000000;fill-opacity:1;stroke:none"
       inkscape:connector-curvature="0"
       sodipodi:nodetypes="cscssscsccsscsssscccscssscccssscscssccccc" />
  </g>
</svg>
