<?xml version="1.0" encoding="UTF-8" standalone="no"?>
<!-- Created with Inkscape (http://www.inkscape.org/) -->

<svg
   xmlns:dc="http://purl.org/dc/elements/1.1/"
   xmlns:cc="http://creativecommons.org/ns#"
   xmlns:rdf="http://www.w3.org/1999/02/22-rdf-syntax-ns#"
   xmlns:svg="http://www.w3.org/2000/svg"
   xmlns="http://www.w3.org/2000/svg"
   xmlns:sodipodi="http://sodipodi.sourceforge.net/DTD/sodipodi-0.dtd"
   xmlns:inkscape="http://www.inkscape.org/namespaces/inkscape"
   width="1000"
   height="1000"
   id="svg14310"
   version="1.1"
   inkscape:version="0.48.3.1 r9886"
   sodipodi:docname="New document 153">
  <defs
     id="defs5498" />
  <sodipodi:namedview
     inkscape:window-height="618"
     inkscape:window-width="641"
     inkscape:pageshadow="2"
     inkscape:pageopacity="0.0"
     borderopacity="1.0"
     bordercolor="#666666"
     pagecolor="#ffffff"
     id="base"
     showgrid="false"
     showguides="true"
     inkscape:guide-bbox="true"
     inkscape:zoom="0.454"
     inkscape:cx="500"
     inkscape:cy="500"
     inkscape:window-x="0"
     inkscape:window-y="31"
     inkscape:current-layer="layer1"
     inkscape:window-maximized="0">
    <sodipodi:guide
       orientation="horizontal"
       position="200"
       id="guide5596" />
  </sodipodi:namedview>
  <metadata
     id="metadata5594">
    <rdf:RDF>
      <cc:Work
         rdf:about="">
        <dc:format>image/svg+xml</dc:format>
        <dc:type
           rdf:resource="http://purl.org/dc/dcmitype/StillImage" />
        <dc:title></dc:title>
      </cc:Work>
    </rdf:RDF>
  </metadata>
  <g
     inkscape:label="Layer 1"
     inkscape:groupmode="layer"
     id="layer1">
    <path
       inkscape:connector-curvature="0"
       d="m 550.90256,159.4959 31.288,-10.9068 -22.719,-17.46879 c -27.652,-21.2628 -74.463,-22.9558 -99.512,-3.5989 -18.31,14.1492 -18.31,14.4383 0,28.58749 22.14,17.1088 48.739,18.0994 90.943,3.387 z m 60.863,541.3533 c 38.441,-29.3203 62.556,-65.0871 80.899,-136.9905 15.924,-62.4245 20.013,-135.9642 11.883,-202.3896 -5.139,-41.982 -17.37,-75.0792 -29.091,-102.1951 l -21.31,-49.3017 -38.076,20.7628 c -20.382,11.1146 -62.838,23.1147 -107.587,23.7621 -48.827,0.7064 -83.711,-15.719 -109.751,-34.9055 -16.631,-12.2538 -31.75,-20.7675 -33.598,-18.9193 -1.848,1.8482 -20.231,27.3728 -31.07399,66.4987 -35.735,128.9547 -17.047,310.7103 36.73399,392.6641 33.548,51.1217 73.563,76.1118 135.187,74.3143 43.869,-1.2796 77.223,-11.5155 105.784,-33.3003 z M 424.04356,800 c -65.899,-18.4369 -104.01499,-67.6705 -122.45999,-103.3847 -30.437,-58.9318 -56.263,-159.7243 -57.941,-279.4262 -3.568,-254.5943 92.692,-373.458193 255.67399,-374.836693 66.357,-0.5612 95.908,10.924 124.768,25.3935 l 43.855,21.9871 16.633,-19.6048 c 13.806,-16.2716 20.042,-23.6048 49.13896,-23.6048 34.904,0 36.491,1.3591 36.164,30.9698 -0.197,17.8429 -9.695,42.400603 -22.407,57.938103 l -22.064,26.96829 24.544,58.7942 c 22.616,54.1759 31.335,118.6702 32.789,201.732 1.53,87.4062 -9.018,130.7193 -23.771,183.7641 -17.157,61.6908 -65.65196,124.1392 -96.62896,150.655 -55.978,47.9148 -145.178,68.7067 -238.294,42.6551 z"
       style="fill:#000000"
       id="path12075"
       sodipodi:nodetypes="sccssssssscssscssssssssscsssccsssss" />
  </g>
</svg>
