<?xml version="1.0" encoding="UTF-8" standalone="no"?>
<!-- Created with Inkscape (http://www.inkscape.org/) -->

<svg
   xmlns:dc="http://purl.org/dc/elements/1.1/"
   xmlns:cc="http://creativecommons.org/ns#"
   xmlns:rdf="http://www.w3.org/1999/02/22-rdf-syntax-ns#"
   xmlns:svg="http://www.w3.org/2000/svg"
   xmlns="http://www.w3.org/2000/svg"
   xmlns:sodipodi="http://sodipodi.sourceforge.net/DTD/sodipodi-0.dtd"
   xmlns:inkscape="http://www.inkscape.org/namespaces/inkscape"
   width="1000"
   height="1000"
   id="svg12591"
   version="1.1"
   inkscape:version="0.48.3.1 r9886"
   sodipodi:docname="New document 38">
  <defs
     id="defs5498" />
  <sodipodi:namedview
     inkscape:window-height="618"
     inkscape:window-width="641"
     inkscape:pageshadow="2"
     inkscape:pageopacity="0.0"
     borderopacity="1.0"
     bordercolor="#666666"
     pagecolor="#ffffff"
     id="base"
     showgrid="false"
     showguides="true"
     inkscape:guide-bbox="true"
     inkscape:zoom="0.227"
     inkscape:cx="500"
     inkscape:cy="280.24847"
     inkscape:window-x="0"
     inkscape:window-y="31"
     inkscape:current-layer="layer1"
     inkscape:window-maximized="0">
    <sodipodi:guide
       orientation="horizontal"
       position="200"
       id="guide5596" />
  </sodipodi:namedview>
  <metadata
     id="metadata5594">
    <rdf:RDF>
      <cc:Work
         rdf:about="">
        <dc:format>image/svg+xml</dc:format>
        <dc:type
           rdf:resource="http://purl.org/dc/dcmitype/StillImage" />
        <dc:title></dc:title>
      </cc:Work>
    </rdf:RDF>
  </metadata>
  <g
     inkscape:label="Layer 1"
     inkscape:groupmode="layer"
     id="layer1">
    <path
       style="fill:#000000;fill-opacity:1;stroke:none"
       d="m 530.69796,400.00857 c -55.605,0 -83.483,11.751 -103.211,23.8324 -24.132,14.7788 -40.869,31.4072 -51.7,56.2129 -17.837,40.8501 -25.928,55.1517 -26.216,124.5644 -0.44,105.9559 26.458,154.1494 93.709,180.1418 56.894,21.9894 134.423,18.9077 178.362,-1.0804 35.365,-16.0873 48.094,-34.5641 57.993,-53.4483 9.758,-18.6147 26.468,-53.5563 23.26,-125.8355 -3.934,-88.6559 -17.966,-128.1761 -59.708,-167.4311 -15.897,-14.9497 -48.941,-36.9562 -112.489,-36.9562 z m -0.985,78.6211 c 74.24,-0.2031 96.411,56.9733 101.234,99.9973 3.962,35.336 0.05,76.5157 -17.189,106.0328 -19.586,33.536 -66.923,47.1758 -99.268,40.1975 -41.537,-8.9614 -93.434,-20.8956 -92.272,-119.9212 0.776,-66.0924 45.264,-126.1361 107.495,-126.3064 z"
       id="path11194"
       inkscape:connector-curvature="0"
       sodipodi:nodetypes="ssssssssssssssss" />
  </g>
</svg>
