<?xml version="1.0" encoding="UTF-8" standalone="no"?>
<!-- Created with Inkscape (http://www.inkscape.org/) -->

<svg
   xmlns:dc="http://purl.org/dc/elements/1.1/"
   xmlns:cc="http://creativecommons.org/ns#"
   xmlns:rdf="http://www.w3.org/1999/02/22-rdf-syntax-ns#"
   xmlns:svg="http://www.w3.org/2000/svg"
   xmlns="http://www.w3.org/2000/svg"
   xmlns:sodipodi="http://sodipodi.sourceforge.net/DTD/sodipodi-0.dtd"
   xmlns:inkscape="http://www.inkscape.org/namespaces/inkscape"
   width="1000"
   height="1000"
   id="svg13160"
   version="1.1"
   inkscape:version="0.48.3.1 r9886"
   sodipodi:docname="New document 75">
  <defs
     id="defs5498" />
  <sodipodi:namedview
     inkscape:window-height="618"
     inkscape:window-width="641"
     inkscape:pageshadow="2"
     inkscape:pageopacity="0.0"
     borderopacity="1.0"
     bordercolor="#666666"
     pagecolor="#ffffff"
     id="base"
     showgrid="false"
     showguides="true"
     inkscape:guide-bbox="true"
     inkscape:zoom="0.454"
     inkscape:cx="500"
     inkscape:cy="500"
     inkscape:window-x="0"
     inkscape:window-y="31"
     inkscape:current-layer="layer1"
     inkscape:window-maximized="0">
    <sodipodi:guide
       orientation="horizontal"
       position="200"
       id="guide5596" />
  </sodipodi:namedview>
  <metadata
     id="metadata5594">
    <rdf:RDF>
      <cc:Work
         rdf:about="">
        <dc:format>image/svg+xml</dc:format>
        <dc:type
           rdf:resource="http://purl.org/dc/dcmitype/StillImage" />
        <dc:title></dc:title>
      </cc:Work>
    </rdf:RDF>
  </metadata>
  <g
     inkscape:label="Layer 1"
     inkscape:groupmode="layer"
     id="layer1">
    <path
       style="fill:#000000;fill-opacity:1;stroke:none"
       d="m 622.64509,390.4688 c -18.32,0 -34.987,5.0242 -37.031,11.1562 -2.724,8.173 -9.869,7.8322 -26.781,-1.2188 -31.341,-16.7729 -123.212,-6.7199 -148.594,16.25 -43.421,39.296 -59.717,100.8379 -61.344,183.1876 -1.421,71.9147 13.86,123.6534 27.25,148.5624 27.493,51.1411 56.718,64.7083 124.188,57.6563 l 58.125,-6.0625 0,47.9375 c 0,56.099 11.026,89.4948 38.625,117.0937 15.013,15.014 32.552,19.9063 71.562,19.9063 60.387,0 75.063,-11.1218 75.063,-56.8437 l 0,-33.4376 -43.344,4.875 c -41.384,4.664 -44.079,3.418 -58.75,-27.5 -16.501,-34.7719 -14.715,-154.9435 4.781,-340.1874 14.941,-141.9601 15.029,-141.375 -23.75,-141.375 z m -124.219,81.6874 c 8.681,-0.2168 29.892,0.7767 45.625,8.5938 19.812,9.8435 26.412,30.1847 26.938,39.9375 0.419,7.7811 -4.187,42.788 -7.969,91.125 l -6.875,87.875 c 0,0 -17.714,17.2786 -39.531,25.25 -27.145,9.9177 -48.801,6.2207 -60.094,-13.5625 -42.363,-74.2127 -33.124,-202.6197 25.219,-233.8438 6.297,-3.3701 11.479,-5.245 16.687,-5.375 z"
       id="path11368"
       inkscape:connector-curvature="0"
       sodipodi:nodetypes="scscscccsssscccsssssscssss" />
  </g>
</svg>
