<?xml version="1.0" encoding="UTF-8" standalone="no"?>
<!-- Created with Inkscape (http://www.inkscape.org/) -->

<svg
   xmlns:dc="http://purl.org/dc/elements/1.1/"
   xmlns:cc="http://creativecommons.org/ns#"
   xmlns:rdf="http://www.w3.org/1999/02/22-rdf-syntax-ns#"
   xmlns:svg="http://www.w3.org/2000/svg"
   xmlns="http://www.w3.org/2000/svg"
   xmlns:sodipodi="http://sodipodi.sourceforge.net/DTD/sodipodi-0.dtd"
   xmlns:inkscape="http://www.inkscape.org/namespaces/inkscape"
   width="1000"
   height="1000"
   id="svg14134"
   version="1.1"
   inkscape:version="0.48.3.1 r9886"
   sodipodi:docname="R.svg">
  <defs
     id="defs5498" />
  <sodipodi:namedview
     inkscape:window-height="618"
     inkscape:window-width="641"
     inkscape:pageshadow="2"
     inkscape:pageopacity="0.0"
     borderopacity="1.0"
     bordercolor="#666666"
     pagecolor="#ffffff"
     id="base"
     showgrid="false"
     showguides="true"
     inkscape:guide-bbox="true"
     inkscape:zoom="0.16051324"
     inkscape:cx="623.27725"
     inkscape:cy="320.6328"
     inkscape:window-x="371"
     inkscape:window-y="111"
     inkscape:current-layer="layer1"
     inkscape:window-maximized="0">
    <sodipodi:guide
       orientation="horizontal"
       position="200"
       id="guide5596" />
  </sodipodi:namedview>
  <metadata
     id="metadata5594">
    <rdf:RDF>
      <cc:Work
         rdf:about="">
        <dc:format>image/svg+xml</dc:format>
        <dc:type
           rdf:resource="http://purl.org/dc/dcmitype/StillImage" />
        <dc:title />
      </cc:Work>
    </rdf:RDF>
  </metadata>
  <g
     inkscape:label="Layer 1"
     inkscape:groupmode="layer"
     id="layer1">
    <path
       inkscape:connector-curvature="0"
       d="m 550.95923,404.0809 c 61.614,-42.2482 69.457,-69.0721 76.843,-142.1234 4.103,-40.5815 -1.049,-88.4434 -22.589,-115.3787 -25.223,-31.5411 -99.86,-47.182202 -132.938,-47.182202 -16.339,0 -16.691,1.563602 -16.752,74.189102 -0.04,40.8039 -4.892,114.9024 -10.795,164.6633 -5.902,49.7609 -8.759,91.3271 -8.794,92.3694 -0.281,8.4587 83.326,-4.8017 115.025,-26.5375 z m 134.47737,346.60924 1.49861,30.19226 c -3.789,16.0514 -7.145,16.9764 -61.58398,16.9764 l -57.578,0 -2.284,-31.9447 c -1.838,-25.7279 -8.529,-39.0855 -34.38,-68.6362 -17.653,-20.1803 -32.244,-40.0045 -32.425,-44.0537 -0.18,-4.0493 -16.466,-25.0823 -36.189,-46.74 l -35.862,-39.3777 0,80.2216 c 0,64.631 2.11,81.0311 10.857,84.3877 6.835,2.6225 10.857,13.703 10.857,29.9053 0,21.2696 -3.376,27.0224 -19.439,33.1296 -10.69,4.0647 -35.933,6.4269 -56.093,5.2493 -36.51,-2.1326 -36.665,-2.2463 -38.862,-28.5957 -1.62,-19.436 1.437,-29.0375 11.52,-36.1898 12.54,-8.8943 14.138,-24.1279 18.508,-176.3568 2.631,-91.6419 9.597,-207.2682 15.479,-256.9473 5.884,-49.679 10.761,-115.3712 10.84,-145.9827 l 0.144,-55.6572 -27.143,-2.246502 c -26.467,-2.1904 -27.142,-2.9674 -27.142,-31.1982 l 0,-28.9517 90.474,-2.1275 c 98.089,-2.3064 151.965,10.5434 199.174,41.9531 59.84698,39.817602 78.02298,90.941602 75.69698,165.790302 -2.659,85.5433 -21.98,160.5909 -90.25898,213.9368 -31.576,24.6703 -71.252,33.1982 -106.804,37.4658 -11.135,1.3366 -19.889,6.8764 -19.872,11.7766 0.02,4.9003 17.932,28.9742 39.809,53.4977 21.877,24.5234 39.776,47.3789 39.776,50.79 0,3.411 14.133,22.4313 31.407,42.2673 17.275,19.836 42.61093,57.71074 48.22593,69.35934 26.3521,4.3231 40.33207,1.56575 41.64944,28.1066 z"
       style="fill:#000000"
       id="path12087"
       sodipodi:nodetypes="sssscccsscsccscscscsssccscscsscsssssccsccs" />
  </g>
</svg>
