<?xml version="1.0" encoding="UTF-8" standalone="no"?>
<!-- Created with Inkscape (http://www.inkscape.org/) -->

<svg
   xmlns:dc="http://purl.org/dc/elements/1.1/"
   xmlns:cc="http://creativecommons.org/ns#"
   xmlns:rdf="http://www.w3.org/1999/02/22-rdf-syntax-ns#"
   xmlns:svg="http://www.w3.org/2000/svg"
   xmlns="http://www.w3.org/2000/svg"
   xmlns:sodipodi="http://sodipodi.sourceforge.net/DTD/sodipodi-0.dtd"
   xmlns:inkscape="http://www.inkscape.org/namespaces/inkscape"
   width="1000"
   height="1000"
   id="svg12849"
   version="1.1"
   inkscape:version="0.48.3.1 r9886"
   sodipodi:docname="New document 54">
  <defs
     id="defs5498" />
  <sodipodi:namedview
     inkscape:window-height="618"
     inkscape:window-width="641"
     inkscape:pageshadow="2"
     inkscape:pageopacity="0.0"
     borderopacity="1.0"
     bordercolor="#666666"
     pagecolor="#ffffff"
     id="base"
     showgrid="false"
     showguides="true"
     inkscape:guide-bbox="true"
     inkscape:zoom="0.454"
     inkscape:cx="500"
     inkscape:cy="500"
     inkscape:window-x="0"
     inkscape:window-y="31"
     inkscape:current-layer="layer1"
     inkscape:window-maximized="0">
    <sodipodi:guide
       orientation="horizontal"
       position="200"
       id="guide5596" />
  </sodipodi:namedview>
  <metadata
     id="metadata5594">
    <rdf:RDF>
      <cc:Work
         rdf:about="">
        <dc:format>image/svg+xml</dc:format>
        <dc:type
           rdf:resource="http://purl.org/dc/dcmitype/StillImage" />
        <dc:title></dc:title>
      </cc:Work>
    </rdf:RDF>
  </metadata>
  <g
     inkscape:label="Layer 1"
     inkscape:groupmode="layer"
     id="layer1">
    <path
       id="path11219"
       d="m 355.49713,395.65221 36.56,-3.0259 c 27.249,-2.2552 36.561,0.6756 36.561,11.5062 0,11.7534 6.045,12.7981 31.621,5.4632 17.392,-4.9878 60.672,-9.0688 96.178,-9.0688 83.809,0 111.6,32.8321 114.372,77.14 1.563,24.97629 -9.6,36.72729 -27.242,39.85229 -17.67,3.13 -26.542,-13.4102 -42.956,-28.21329 -40.49,-26.8201 -77.941,-24.1493 -128.101,7.73199 -35.414,22.5084 -37.176,58.2661 -36.302,111.0231 0.817,49.39 -2.18,191.939 -2.18,191.939 -21.879,0 -51.757,0 -73.635,0 -1.213,-136.2778 0.688,-264.4652 -4.876,-404.34779 z"
       style="fill:#000000;fill-opacity:1;stroke:none"
       inkscape:connector-curvature="0"
       sodipodi:nodetypes="csssssscssccc" />
  </g>
</svg>
