<?xml version="1.0" encoding="UTF-8" standalone="no"?>
<!-- Created with Inkscape (http://www.inkscape.org/) -->

<svg
   xmlns:dc="http://purl.org/dc/elements/1.1/"
   xmlns:cc="http://creativecommons.org/ns#"
   xmlns:rdf="http://www.w3.org/1999/02/22-rdf-syntax-ns#"
   xmlns:svg="http://www.w3.org/2000/svg"
   xmlns="http://www.w3.org/2000/svg"
   xmlns:sodipodi="http://sodipodi.sourceforge.net/DTD/sodipodi-0.dtd"
   xmlns:inkscape="http://www.inkscape.org/namespaces/inkscape"
   width="1000"
   height="1000"
   id="svg14751"
   version="1.1"
   inkscape:version="0.48.3.1 r9886"
   sodipodi:docname="semicolon.svg">
  <defs
     id="defs5498" />
  <sodipodi:namedview
     inkscape:window-height="618"
     inkscape:window-width="641"
     inkscape:pageshadow="2"
     inkscape:pageopacity="0.0"
     borderopacity="1.0"
     bordercolor="#666666"
     pagecolor="#ffffff"
     id="base"
     showgrid="false"
     showguides="true"
     inkscape:guide-bbox="true"
     inkscape:zoom="0.32102648"
     inkscape:cx="500"
     inkscape:cy="500"
     inkscape:window-x="0"
     inkscape:window-y="31"
     inkscape:current-layer="layer1"
     inkscape:window-maximized="0">
    <sodipodi:guide
       orientation="horizontal"
       position="200"
       id="guide5596" />
  </sodipodi:namedview>
  <metadata
     id="metadata5594">
    <rdf:RDF>
      <cc:Work
         rdf:about="">
        <dc:format>image/svg+xml</dc:format>
        <dc:type
           rdf:resource="http://purl.org/dc/dcmitype/StillImage" />
        <dc:title />
      </cc:Work>
    </rdf:RDF>
  </metadata>
  <g
     inkscape:label="Layer 1"
     inkscape:groupmode="layer"
     id="layer1">
    <path
       id="path12153"
       d="m 462.41808,915.1068 c 0,-18.0734 9.826,-41.9554 24.374,-59.2449 27.491,-32.6711 29.91,-63.3475 9.468,-120.0887 -7.727,-21.4486 -14.115,-45.4495 -14.196,-65.5576 -0.141,-35.2342 7.706,-46.5601 33.598,-46.5601 32.222,0 38.841,15.5386 48.747,50.5163 8.08,28.533 21.631,78.4716 21.631,125.8282 0,57.3748 -16.988,98.8653 -33.973,119.1869 -16,19.1425 -37.973,26.1975 -58.497,26.1975 -28.349,0 -31.152,-2.724 -31.152,-30.2776 z"
       style="fill:#000000;fill-opacity:1;stroke:none"
       inkscape:connector-curvature="0"
       sodipodi:nodetypes="ssssssssss" />
    <path
       id="path12274"
       d="m 479.08508,454.4505 c -3.038,-7.9165 -4.1,-26.8293 -2.36,-42.0275 2.888,-25.2128 6.582,-27.6346 42.162,-27.6346 38.998,0 38.998,0 38.998,38.9975 0,38.041 -0.897,39.0715 -36.638,42.0275 -25.426,2.1039 -38.33,-1.3747 -42.162,-11.3629 z"
       style="fill:#000000;fill-opacity:1;stroke:none"
       inkscape:connector-curvature="0" />
  </g>
</svg>
