<?xml version="1.0" encoding="UTF-8" standalone="no"?>
<!-- Created with Inkscape (http://www.inkscape.org/) -->

<svg
   xmlns:dc="http://purl.org/dc/elements/1.1/"
   xmlns:cc="http://creativecommons.org/ns#"
   xmlns:rdf="http://www.w3.org/1999/02/22-rdf-syntax-ns#"
   xmlns:svg="http://www.w3.org/2000/svg"
   xmlns="http://www.w3.org/2000/svg"
   xmlns:sodipodi="http://sodipodi.sourceforge.net/DTD/sodipodi-0.dtd"
   xmlns:inkscape="http://www.inkscape.org/namespaces/inkscape"
   width="1000"
   height="1000"
   id="svg14486"
   version="1.1"
   inkscape:version="0.48.3.1 r9886"
   sodipodi:docname="New document 165">
  <defs
     id="defs5498" />
  <sodipodi:namedview
     inkscape:window-height="618"
     inkscape:window-width="641"
     inkscape:pageshadow="2"
     inkscape:pageopacity="0.0"
     borderopacity="1.0"
     bordercolor="#666666"
     pagecolor="#ffffff"
     id="base"
     showgrid="false"
     showguides="true"
     inkscape:guide-bbox="true"
     inkscape:zoom="0.454"
     inkscape:cx="500"
     inkscape:cy="500"
     inkscape:window-x="0"
     inkscape:window-y="31"
     inkscape:current-layer="layer1"
     inkscape:window-maximized="0">
    <sodipodi:guide
       orientation="horizontal"
       position="200"
       id="guide5596" />
  </sodipodi:namedview>
  <metadata
     id="metadata5594">
    <rdf:RDF>
      <cc:Work
         rdf:about="">
        <dc:format>image/svg+xml</dc:format>
        <dc:type
           rdf:resource="http://purl.org/dc/dcmitype/StillImage" />
        <dc:title></dc:title>
      </cc:Work>
    </rdf:RDF>
  </metadata>
  <g
     inkscape:label="Layer 1"
     inkscape:groupmode="layer"
     id="layer1">
    <path
       inkscape:connector-curvature="0"
       style="fill:#000000;fill-opacity:1;stroke:none"
       d="m 435.02181,766.69 c -0.194,-18.3646 3.308,-34.773 7.783,-36.561 4.475,-1.787 -6.243,-62.476 -23.817,-134.865 -17.575,-72.389 -45.662,-198.407 -62.416,-280.039 -35.173,-171.379 -44.808,-197.68 -72.409,-197.68 -16.061,0 -19.816,-6.2928 -20.151,-34.122996 l -0.411,-34.123 82.869,0 82.87,0 0.411,34.123 c 0.34,28.276196 -3.153,34.122996 -20.145,34.122996 -16.36,0 -19.177,4.477 -13.797,21.936 3.717,12.065 11.433,48.259 17.146,80.432 17.806,100.27 82.23296,370.066 90.40196,378.577 4.278,4.454 11.524,-15.288 16.105,-43.872 4.58,-28.586 23.103,-111.201 41.162,-183.59 46.873,-187.892 51.119,-213.307 45.198,-270.544 l -1.294,-51.184996 63.521,0 63.521,0 0.411,34.123 c 0.284,23.591896 -4.04,34.122996 -13.932,34.122996 -9.437,0 -19.594,24.183 -29.687,70.683 -13.532,62.337 -30.447,135.457 -106.569,460.657 -14.594,62.345 -15.536,78.628 -4.702,81.147 8.203,1.908 13.696,16.2908 13.914,36.56 l 0.36,33.408 -77.995,0 -77.99496,0 z"
       id="path11402"
       sodipodi:nodetypes="sccssscccssccccsccccsscscscccs" />
  </g>
</svg>
