<?xml version="1.0" encoding="UTF-8" standalone="no"?>
<!-- Created with Inkscape (http://www.inkscape.org/) -->

<svg
   xmlns:dc="http://purl.org/dc/elements/1.1/"
   xmlns:cc="http://creativecommons.org/ns#"
   xmlns:rdf="http://www.w3.org/1999/02/22-rdf-syntax-ns#"
   xmlns:svg="http://www.w3.org/2000/svg"
   xmlns="http://www.w3.org/2000/svg"
   xmlns:sodipodi="http://sodipodi.sourceforge.net/DTD/sodipodi-0.dtd"
   xmlns:inkscape="http://www.inkscape.org/namespaces/inkscape"
   width="1000"
   height="1000"
   id="svg12984"
   version="1.1"
   inkscape:version="0.48.3.1 r9886"
   sodipodi:docname="New document 63">
  <defs
     id="defs5498" />
  <sodipodi:namedview
     inkscape:window-height="618"
     inkscape:window-width="641"
     inkscape:pageshadow="2"
     inkscape:pageopacity="0.0"
     borderopacity="1.0"
     bordercolor="#666666"
     pagecolor="#ffffff"
     id="base"
     showgrid="false"
     showguides="true"
     inkscape:guide-bbox="true"
     inkscape:zoom="0.454"
     inkscape:cx="500"
     inkscape:cy="500"
     inkscape:window-x="0"
     inkscape:window-y="31"
     inkscape:current-layer="layer1"
     inkscape:window-maximized="0">
    <sodipodi:guide
       orientation="horizontal"
       position="200"
       id="guide5596" />
  </sodipodi:namedview>
  <metadata
     id="metadata5594">
    <rdf:RDF>
      <cc:Work
         rdf:about="">
        <dc:format>image/svg+xml</dc:format>
        <dc:type
           rdf:resource="http://purl.org/dc/dcmitype/StillImage" />
        <dc:title></dc:title>
      </cc:Work>
    </rdf:RDF>
  </metadata>
  <g
     inkscape:label="Layer 1"
     inkscape:groupmode="layer"
     id="layer1">
    <path
       id="path11243"
       d="m 549.52473,770.3351 c -14.377,-11.7904 -24.348,-28.9604 -24.348,-28.9604 l -14.116,16.3529 c -17.4,20.1588 -45.061,42.2724 -102.039,42.2724 -25.814,0 -57.191,-6.0746 -92.108,-25.2198 -40.31,-22.1019 -52.534,-45.9775 -56.598,-86.161 -7.296,-72.1366 -10.422,-231.7291 -2.502,-263.2879 5.19,-20.6773 12.003,-25.055 38.989,-25.055 l 32.699,0 -1.2,119.4296 c -0.66,65.6864 1.91,130.4418 5.711,143.9014 8.844,31.3202 20.212,46.8793 72.562,47.8372 95.527,1.7478 90.89,-123.685 90.89,-244.2534 l 0,-67.1911 c 22.748,0 45.497,0 68.246,0 0,0 0,78.2014 0,112.2893 0,78.1269 0.531,81.8907 4.836,122.9609 5.454,52.0386 29.274,75.0244 69.654,74.678 43.723,-0.3752 91.56798,-13.2723 93.33298,-213.548 l 0.847,-96.1039 c 21.771,0 43.542,0 65.314,0 0,0 0,133.2412 0,199.8619 0,66.6206 0,199.8618 0,199.8618 l -33.31,0 c -18.32,0 -34.966,-4.9671 -36.989,-11.038 -2.545,-7.6322 -5.441,-14.9449 -26.71798,-3.942 -18.425,9.5281 -22.895,14.98 -65.847,14.98 -42.166,0 -73.098,-18.0142 -87.306,-29.6649 z"
       style="fill:#000000;fill-opacity:1;stroke:none"
       inkscape:connector-curvature="0"
       sodipodi:nodetypes="scsssssscssssccssssccscscsss" />
  </g>
</svg>
