<?xml version="1.0" encoding="UTF-8" standalone="no"?>
<!-- Created with Inkscape (http://www.inkscape.org/) -->

<svg
   xmlns:dc="http://purl.org/dc/elements/1.1/"
   xmlns:cc="http://creativecommons.org/ns#"
   xmlns:rdf="http://www.w3.org/1999/02/22-rdf-syntax-ns#"
   xmlns:svg="http://www.w3.org/2000/svg"
   xmlns="http://www.w3.org/2000/svg"
   xmlns:sodipodi="http://sodipodi.sourceforge.net/DTD/sodipodi-0.dtd"
   xmlns:inkscape="http://www.inkscape.org/namespaces/inkscape"
   width="1000"
   height="1000"
   id="svg13694"
   version="1.1"
   inkscape:version="0.48.3.1 r9886"
   sodipodi:docname="New document 111">
  <defs
     id="defs5498" />
  <sodipodi:namedview
     inkscape:window-height="618"
     inkscape:window-width="641"
     inkscape:pageshadow="2"
     inkscape:pageopacity="0.0"
     borderopacity="1.0"
     bordercolor="#666666"
     pagecolor="#ffffff"
     id="base"
     showgrid="false"
     showguides="true"
     inkscape:guide-bbox="true"
     inkscape:zoom="0.454"
     inkscape:cx="500"
     inkscape:cy="500"
     inkscape:window-x="0"
     inkscape:window-y="31"
     inkscape:current-layer="layer1"
     inkscape:window-maximized="0">
    <sodipodi:guide
       orientation="horizontal"
       position="200"
       id="guide5596" />
  </sodipodi:namedview>
  <metadata
     id="metadata5594">
    <rdf:RDF>
      <cc:Work
         rdf:about="">
        <dc:format>image/svg+xml</dc:format>
        <dc:type
           rdf:resource="http://purl.org/dc/dcmitype/StillImage" />
        <dc:title></dc:title>
      </cc:Work>
    </rdf:RDF>
  </metadata>
  <g
     inkscape:label="Layer 1"
     inkscape:groupmode="layer"
     id="layer1">
    <path
       id="path11636"
       d="m 603.97357,772.1412 c 0,-18.7676 3.983,-41.1228 12.853,-42.1228 17.756,-2.0019 7.007,-12.8393 -0.139,-38.3095 -36.297,-129.3841 -54.923,-211.8931 -69.288,-306.94 -8.7,-57.5525 -19.089,-102.6187 -23.088,-100.1471 -3.999,2.4717 -10.226,23.2368 -13.838,46.1448 -3.612,22.908 -15.231,72.3613 -25.822,109.8963 -10.59,37.5351 -26.049,94.5688 -34.355,126.7417 -8.305,32.1729 -21.413,78.2386 -29.128,102.3683 -17.443,54.549 -17.396,58.4961 0.692,58.4961 10.214,0 15.258,10.2995 14.624,34.1228 l -1,37.6082 c -48.164,0 -96.327,0 -144.491,0 l 1,-37.6082 c 0.499,-18.7609 3.76,-33.9928 8.351,-34.1228 35.31,-1 9.964,-32.0586 -79.718,-436.9849 -33.532,-151.3964 -42.513,-169.816 -63.208,-177.6845 -18.569,-7.0598 -23.164,-15.8935 -23.164,-44.529 l 0,-35.7221 129.179,0.3807 c 24.125,0.078 26.811,15.5027 26.811,46.2074 0,24.4838 -4.317,34.1228 -15.281,34.1228 -9.954,0 -13.542,5.9478 -10.294,17.0614 12.55,42.9249 74.675,316.5046 85.591,376.9056 10.933,60.5021 12.987,64.4743 20.163,38.9975 71.356,-253.3132 111.152,-435.8082 96.127,-440.8163 -5.811,-1.9373 -10.567,-19.1371 -10.567,-38.2216 l 0,-34.6992 137.921,0.5271 c 14.15,0 18.069,19.3998 18.069,46.1227 0,25.0556 -4.228,34.1228 -15.908,34.1228 -17.9,0 -18.387,-6.1574 15.433,194.9872 11.269,67.0268 29.017,154.7711 39.44,194.9872 10.422,40.2161 21.801,86.2818 25.287,102.3682 5.426,25.0469 10.328,14.5438 34.12,-73.1201 67.00299,-246.8778 101.96599,-418.564 88.03999,-423.2061 -6.008,-2.0028 -10.924,-16.631 -10.924,-34.9516 l 0,-41.3103 c 42.247,0 84.495,0 126.742,0 l 0,38.6106 c 0,16.8358 -5.872,33.4815 -13.05,39.4348 -7.176,5.9533 -25.008,71.6643 -39.624,138.6911 -34.153,156.6124 -47.754,212.3994 -87.352,358.289 -24.53999,90.4087 -29.23399,119.4296 -19.316,119.4296 8.367,0 13.101,11.8275 13.101,32.7339 l -2,38.9971 -55.92599,0 c -97.314,0 -106.063,10.5341 -106.063,-27.8588 z"
       style="fill:#000000;fill-opacity:1;stroke:none"
       inkscape:connector-curvature="0"
       sodipodi:nodetypes="sssccscscssccssscsccssccscsccsssccscsccscssssccs" />
  </g>
</svg>
