<?xml version="1.0" encoding="UTF-8" standalone="no"?>
<!-- Created with Inkscape (http://www.inkscape.org/) -->

<svg
   xmlns:dc="http://purl.org/dc/elements/1.1/"
   xmlns:cc="http://creativecommons.org/ns#"
   xmlns:rdf="http://www.w3.org/1999/02/22-rdf-syntax-ns#"
   xmlns:svg="http://www.w3.org/2000/svg"
   xmlns="http://www.w3.org/2000/svg"
   xmlns:sodipodi="http://sodipodi.sourceforge.net/DTD/sodipodi-0.dtd"
   xmlns:inkscape="http://www.inkscape.org/namespaces/inkscape"
   width="1000"
   height="1000"
   id="svg13471"
   version="1.1"
   inkscape:version="0.48.3.1 r9886"
   sodipodi:docname="New document 96">
  <defs
     id="defs5498" />
  <sodipodi:namedview
     inkscape:window-height="618"
     inkscape:window-width="641"
     inkscape:pageshadow="2"
     inkscape:pageopacity="0.0"
     borderopacity="1.0"
     bordercolor="#666666"
     pagecolor="#ffffff"
     id="base"
     showgrid="false"
     showguides="true"
     inkscape:guide-bbox="true"
     inkscape:zoom="0.454"
     inkscape:cx="490.69699"
     inkscape:cy="500"
     inkscape:window-x="0"
     inkscape:window-y="31"
     inkscape:current-layer="layer1"
     inkscape:window-maximized="0">
    <sodipodi:guide
       orientation="horizontal"
       position="200"
       id="guide5596" />
  </sodipodi:namedview>
  <metadata
     id="metadata5594">
    <rdf:RDF>
      <cc:Work
         rdf:about="">
        <dc:format>image/svg+xml</dc:format>
        <dc:type
           rdf:resource="http://purl.org/dc/dcmitype/StillImage" />
        <dc:title></dc:title>
      </cc:Work>
    </rdf:RDF>
  </metadata>
  <g
     inkscape:label="Layer 1"
     inkscape:groupmode="layer"
     id="layer1">
    <path
       style="fill:#000000;fill-opacity:1;stroke:none"
       d="m 449.33156,382.605 c -18.262,1.1336 -37.447,-0.2875 -54.724,6.2653 -10.33,10.4973 -9.076,27.0529 -8.256,40.7246 0.912,8.6008 5.72,16.9672 13.694,20.5391 16.56,14.7864 25.983,35.8086 36.879,54.8856 12.103,23.5409 24.512,47.3183 41.156,67.8622 5.883,9.629 2.115,21.6958 -4.667,29.7929 -20.992,31.4681 -37.02,65.5488 -54.749,98.8701 -7.276,12.3277 -14.354,25.3594 -24.644,35.4103 -4.751,1.5769 -6.195,6.0823 -6.788,10.5728 -2.374,12.5213 -2.095,25.9776 1.077,38.2446 2.324,6.5083 9.012,9.689 15.533,9.5611 26.122,3.9698 52.757,3.8797 79.165,4.6664 -0.849,-27.7558 0.105,-56.2476 9.692,-82.4284 7.053,-20.5413 16.021,-40.9928 29.857,-57.8237 6.849,-5.1796 16.599,-1.0398 20.25,6.0217 23.139,28.8753 37.874,63.4652 49.367,98.4293 3.061,9.857 3.484,20.4712 5.404,30.4168 6.799,8.5018 19.437,4.7862 28.809,4.8124 20.536,-1.8038 41.336,-4.3453 60.962,-10.5883 8.232,-5.1047 5.201,-16.0893 6.198,-24.1145 0.432,-9.9005 -0.319,-23.5481 -11.55,-27.085 -11.309,-3.6769 -24.803,-6.4878 -31.391,-17.4907 -4.021,-7.7411 -4.937,-16.7079 -9.533,-24.3098 -19.264,-40.7564 -44.861,-78.0054 -67.452,-116.9788 -4.061,-4.8306 4.563,-8.6792 6.57,-13.0871 27.507,-33.7371 52.718,-69.0325 78.149,-104.2956 5.908,-7.6701 13.019,-14.7478 21.928,-18.6348 5.214,-13.4107 4.909,-28.6831 3.035,-42.6826 -1.325,-8.2011 -11.588,-8.0812 -17.868,-9.8307 -23.095,-3.4939 -46.518,-6.9136 -69.978,-5.8326 -5.109,0.5203 -12.333,0.048 -13.509,6.4937 -6.414,21.8113 -1.352,46.4468 -12.53,67.0261 -10.166,22.1014 -28.881,38.4109 -43.303,57.6279 -14.08,-21.9921 -32.038,-43.668 -34.05,-70.7685 -2.844,-20.6722 -0.233,-41.5784 0.699,-62.3044 -14.477,0.01 -28.955,-0.024 -43.432,0.032 z"
       id="path11352"
       inkscape:connector-curvature="0" />
  </g>
</svg>
