<?xml version="1.0" encoding="UTF-8" standalone="no"?>
<!-- Created with Inkscape (http://www.inkscape.org/) -->

<svg
   xmlns:dc="http://purl.org/dc/elements/1.1/"
   xmlns:cc="http://creativecommons.org/ns#"
   xmlns:rdf="http://www.w3.org/1999/02/22-rdf-syntax-ns#"
   xmlns:svg="http://www.w3.org/2000/svg"
   xmlns="http://www.w3.org/2000/svg"
   xmlns:sodipodi="http://sodipodi.sourceforge.net/DTD/sodipodi-0.dtd"
   xmlns:inkscape="http://www.inkscape.org/namespaces/inkscape"
   width="1000"
   height="1000"
   id="svg14530"
   version="1.1"
   inkscape:version="0.48.3.1 r9886"
   sodipodi:docname="New document 168">
  <defs
     id="defs5498" />
  <sodipodi:namedview
     inkscape:window-height="618"
     inkscape:window-width="641"
     inkscape:pageshadow="2"
     inkscape:pageopacity="0.0"
     borderopacity="1.0"
     bordercolor="#666666"
     pagecolor="#ffffff"
     id="base"
     showgrid="false"
     showguides="true"
     inkscape:guide-bbox="true"
     inkscape:zoom="0.454"
     inkscape:cx="500"
     inkscape:cy="500"
     inkscape:window-x="0"
     inkscape:window-y="31"
     inkscape:current-layer="layer1"
     inkscape:window-maximized="0">
    <sodipodi:guide
       orientation="horizontal"
       position="200"
       id="guide5596" />
  </sodipodi:namedview>
  <metadata
     id="metadata5594">
    <rdf:RDF>
      <cc:Work
         rdf:about="">
        <dc:format>image/svg+xml</dc:format>
        <dc:type
           rdf:resource="http://purl.org/dc/dcmitype/StillImage" />
        <dc:title></dc:title>
      </cc:Work>
    </rdf:RDF>
  </metadata>
  <g
     inkscape:label="Layer 1"
     inkscape:groupmode="layer"
     id="layer1">
    <path
       id="path12121"
       d="m 238.75264,799.025 c -2.914,-2.9139 -5.299,-16.6733 -5.299,-30.5764 0,-19.6853 3.958,-26.7829 17.886,-32.0784 10.172,-3.8675 24.856,-21.1987 34.048,-40.1873 24.738,-51.1021 104.083,-173.5784 145.555,-224.6788 15.587,-19.2054 28.34,-38.5801 28.34,-43.0548 0,-4.4747 -7.311,-20.9418 -16.247,-36.5934 -38.744,-67.8631 -134.305,-259.983 -134.305,-270.013 0,-6.046 -8.674,-14.29 -19.275,-18.32 -16.653,-6.331999 -18.956,-11.168999 -16.937,-35.569999 l 2.337,-28.242 63.985,0 63.985,0 2.474,26.014 c 1.604,16.863 -1.531,28.944 -8.912,34.340999 -11.768,8.605 -9.649,13.377 94.063,211.8219 l 24.222,46.3483 13.707,-17.4252 c 7.539,-9.5839 13.707,-19.7909 13.707,-22.6823 0,-2.8913 9.599,-17.6004 21.332,-32.6867 11.732,-15.087 23.666,-32.511 26.519,-38.722 2.853,-6.21 25.124,-40.084 49.49,-75.276 30.847,-44.552 42.069,-66.693 36.951,-72.901999 -4.042,-4.905 -6.272,-20.148 -4.955,-33.874 l 2.396,-24.957 63.98496,0 63.984,0 0,30.111 c 0,25.426 -2.615,30.481999 -16.809,32.498999 -11.491,1.633 -21.309,12.561 -31.031,34.539 -7.822,17.683 -30.745,56.72 -50.93896,86.748 -20.195,30.029 -41.799,62.447 -48.009,72.042 -41.147,63.5691 -83.475,123.7317 -89.805,127.644 -7.116,4.3981 67.924,157.7757 98.325,200.9692 7.734,10.9896 14.063,22.3581 14.063,25.2634 0,2.9053 9.599,17.6258 21.332,32.7122 11.73296,15.0865 23.38796,33.1136 25.90196,40.0603 2.513,6.9468 14.085,13.7216 25.715,15.0553 19.248,2.2071 21.146,5.1279 21.146,32.5352 l 0,30.1105 -71.51296,0 -71.512,0 0,-37.6381 c 0,-20.7009 -3.369,-42.7192 -7.488,-48.9295 -4.118,-6.2103 -11.209,-18.0662 -15.757,-26.3466 -4.548,-8.2804 -16.155,-28.6049 -25.794,-45.1657 -9.639,-16.5607 -28.944,-52.9756 -42.899,-80.9218 -13.956,-27.9463 -27.398,-50.8114 -29.873,-50.8114 -7.645,0 -100.253,129.966 -100.253,140.6952 0,2.6993 -4.738,10.2556 -10.528,16.7919 -22.273,25.1436 -40.977,66.5186 -33.466,74.03 4.099,4.0987 6.359,18.892 5.022,32.874 l -2.43,25.422 -60.569,2.1615 c -33.313,1.1889 -62.953,-0.2228 -65.866,-3.1365 z"
       style="fill:#000000"
       inkscape:connector-curvature="0" />
  </g>
</svg>
