<?xml version="1.0" encoding="UTF-8" standalone="no"?>
<!-- Created with Inkscape (http://www.inkscape.org/) -->

<svg
   xmlns:dc="http://purl.org/dc/elements/1.1/"
   xmlns:cc="http://creativecommons.org/ns#"
   xmlns:rdf="http://www.w3.org/1999/02/22-rdf-syntax-ns#"
   xmlns:svg="http://www.w3.org/2000/svg"
   xmlns="http://www.w3.org/2000/svg"
   xmlns:sodipodi="http://sodipodi.sourceforge.net/DTD/sodipodi-0.dtd"
   xmlns:inkscape="http://www.inkscape.org/namespaces/inkscape"
   width="1000"
   height="1000"
   id="svg12547"
   version="1.1"
   inkscape:version="0.48.3.1 r9886"
   sodipodi:docname="New document 35">
  <defs
     id="defs5498" />
  <sodipodi:namedview
     inkscape:window-height="618"
     inkscape:window-width="641"
     inkscape:pageshadow="2"
     inkscape:pageopacity="0.0"
     borderopacity="1.0"
     bordercolor="#666666"
     pagecolor="#ffffff"
     id="base"
     showgrid="false"
     showguides="true"
     inkscape:guide-bbox="true"
     inkscape:zoom="0.227"
     inkscape:cx="500"
     inkscape:cy="461.14438"
     inkscape:window-x="0"
     inkscape:window-y="31"
     inkscape:current-layer="layer1"
     inkscape:window-maximized="0">
    <sodipodi:guide
       orientation="horizontal"
       position="200"
       id="guide5596" />
  </sodipodi:namedview>
  <metadata
     id="metadata5594">
    <rdf:RDF>
      <cc:Work
         rdf:about="">
        <dc:format>image/svg+xml</dc:format>
        <dc:type
           rdf:resource="http://purl.org/dc/dcmitype/StillImage" />
        <dc:title></dc:title>
      </cc:Work>
    </rdf:RDF>
  </metadata>
  <g
     inkscape:label="Layer 1"
     inkscape:groupmode="layer"
     id="layer1">
    <path
       inkscape:connector-curvature="0"
       id="path10089"
       d="m 340.71364,916.2209 46.486,-46.8463 c 37.629,33.3837 50.394,57.4502 94.017,56.5593 68.663,-1.4024 95.285,-51.0221 96.994,-125.9339 0.227,-9.9599 -0.822,-35.8762 -0.822,-35.8762 -22.19104,21.63545 -54.47116,35.57939 -90.284,35.8762 -64.12953,0.5315 -92.45564,-30.97537 -110.497,-54.492 -27.33145,-35.62611 -46.621,-88.5834 -48.017,-232.2831 -0.368,-37.9188 -1.105,-113.7564 -1.105,-113.7564 22.749,0 44.393,0 67.141,0 0,0 0,57.812 0,86.718 0,117.116 21.55749,192.48863 48.152,214.8903 33.57951,28.28542 78.905,18.4634 110.695,-28.2083 30.904,-45.3713 22.851,-134.9963 22.851,-209.0924 l 0,-64.3076 c 21.919,0 47.839,0 69.758,0 0,0 -1.492,339.0246 -1.143,400 0.533,93.3473 -16.131,123.1216 -43.927,154.9921 -26.692,30.6041 -75.482,43.6465 -116.695,42.2475 -77.975,-2.6469 -105.531,-30.0905 -143.604,-80.4872 z"
       style="fill:#000000;fill-opacity:1;stroke:none"
       sodipodi:nodetypes="ccsscsssccssssccsssc" />
  </g>
</svg>
