<?xml version="1.0" encoding="UTF-8" standalone="no"?>
<!-- Created with Inkscape (http://www.inkscape.org/) -->

<svg
   xmlns:dc="http://purl.org/dc/elements/1.1/"
   xmlns:cc="http://creativecommons.org/ns#"
   xmlns:rdf="http://www.w3.org/1999/02/22-rdf-syntax-ns#"
   xmlns:svg="http://www.w3.org/2000/svg"
   xmlns="http://www.w3.org/2000/svg"
   xmlns:sodipodi="http://sodipodi.sourceforge.net/DTD/sodipodi-0.dtd"
   xmlns:inkscape="http://www.inkscape.org/namespaces/inkscape"
   width="1000"
   height="1000"
   id="svg13526"
   version="1.1"
   inkscape:version="0.48.3.1 r9886"
   sodipodi:docname="New document 100">
  <defs
     id="defs5498" />
  <sodipodi:namedview
     inkscape:window-height="618"
     inkscape:window-width="641"
     inkscape:pageshadow="2"
     inkscape:pageopacity="0.0"
     borderopacity="1.0"
     bordercolor="#666666"
     pagecolor="#ffffff"
     id="base"
     showgrid="false"
     showguides="true"
     inkscape:guide-bbox="true"
     inkscape:zoom="0.454"
     inkscape:cx="484.49499"
     inkscape:cy="500"
     inkscape:window-x="0"
     inkscape:window-y="31"
     inkscape:current-layer="layer1"
     inkscape:window-maximized="0">
    <sodipodi:guide
       orientation="horizontal"
       position="200"
       id="guide5596" />
  </sodipodi:namedview>
  <metadata
     id="metadata5594">
    <rdf:RDF>
      <cc:Work
         rdf:about="">
        <dc:format>image/svg+xml</dc:format>
        <dc:type
           rdf:resource="http://purl.org/dc/dcmitype/StillImage" />
        <dc:title></dc:title>
      </cc:Work>
    </rdf:RDF>
  </metadata>
  <g
     inkscape:label="Layer 1"
     inkscape:groupmode="layer"
     id="layer1">
    <path
       sodipodi:nodetypes="sccsscssccssscsscsscccsssss"
       inkscape:connector-curvature="0"
       id="path11366"
       d="m 665.77762,706.511 c 1.29,13.4178 0,40.439 0,40.439 l 0,40.439 -66.775,0 c -36.726,0 -100.34,2.837 -141.365,6.305 l -74.592,6.306 0,-30.352 c 0,-20.914 22.644,-66.392 72.831,-146.273 40.056,-63.757 77.239,-127.52 82.628,-141.693 l 9.798,-25.771 -53.381,0 c -40.949,0 -53.38,3.406 -53.38,14.624 0,10.214 -10.291,14.624 -34.122,14.624 l -34.123,0 0,-47.61 c 0,-59.071 0.702,-59.32 168.176,-59.499 l 124.305,-0.134 0,33.548 c 0,18.45 -4.899,36.5747 -10.887,40.275 -5.988,3.7007 -25.504,37.96 -43.371,76.133 -17.865,38.173 -50.364,96.825 -72.219,130.338 l -39.735,60.934 48.982,0 c 37.042,0 48.984,-3.565 48.984,-14.624 0,-10.075 10.112,-14.624 32.51,-14.624 0,0 25.895,0.1762 31.959,3.5908 3.986,2.2452 3.237,7.4084 3.777,13.0242 z"
       style="fill:#000000;fill-opacity:1;stroke:none" />
  </g>
</svg>
