<?xml version="1.0" encoding="UTF-8" standalone="no"?>
<!-- Created with Inkscape (http://www.inkscape.org/) -->

<svg
   xmlns:dc="http://purl.org/dc/elements/1.1/"
   xmlns:cc="http://creativecommons.org/ns#"
   xmlns:rdf="http://www.w3.org/1999/02/22-rdf-syntax-ns#"
   xmlns:svg="http://www.w3.org/2000/svg"
   xmlns="http://www.w3.org/2000/svg"
   xmlns:sodipodi="http://sodipodi.sourceforge.net/DTD/sodipodi-0.dtd"
   xmlns:inkscape="http://www.inkscape.org/namespaces/inkscape"
   width="1000"
   height="1000"
   id="svg13175"
   version="1.1"
   inkscape:version="0.48.3.1 r9886"
   sodipodi:docname="New document 59">
  <defs
     id="defs5498" />
  <sodipodi:namedview
     inkscape:window-height="618"
     inkscape:window-width="641"
     inkscape:pageshadow="2"
     inkscape:pageopacity="0.0"
     borderopacity="1.0"
     bordercolor="#666666"
     pagecolor="#ffffff"
     id="base"
     showgrid="false"
     showguides="true"
     inkscape:guide-bbox="true"
     inkscape:zoom="0.454"
     inkscape:cx="500"
     inkscape:cy="500"
     inkscape:window-x="0"
     inkscape:window-y="31"
     inkscape:current-layer="layer1"
     inkscape:window-maximized="0">
    <sodipodi:guide
       orientation="horizontal"
       position="200"
       id="guide5596" />
  </sodipodi:namedview>
  <metadata
     id="metadata5594">
    <rdf:RDF>
      <cc:Work
         rdf:about="">
        <dc:format>image/svg+xml</dc:format>
        <dc:type
           rdf:resource="http://purl.org/dc/dcmitype/StillImage" />
        <dc:title></dc:title>
      </cc:Work>
    </rdf:RDF>
  </metadata>
  <g
     inkscape:label="Layer 1"
     inkscape:groupmode="layer"
     id="layer1">
    <path
       sodipodi:nodetypes="ssssssssssssssscssssssssss"
       inkscape:connector-curvature="0"
       id="path11626"
       d="m 453.10604,24.0625 c -2.486,0.022 -5.063,0.1058 -7.75,0.2812 -33.685,2.1988 -34.317,2.7424 -36.625,30.6251 -1.994,24.0959 2.319,25.7888 15.875,35.2812 54.245,37.9836 57.611,113.6262 48.657,154.5 -6.71,30.6262 -22.238,73.4096 -30.907,96.5312 -41.03,109.4379 -67.531,151.7962 -67.531,259.0938 0,91.5774 6.389,135.4258 14.844,165.0312 7.961,27.8787 11.009,34.5938 41.625,34.5938 19.955,0 34.664,0 32.406,-20.8437 -1.202,-11.0945 26.958,20.8437 92.616,20.8437 60.331,0 98.455,-31.2786 111.237,-51.8479 34.61,-55.6961 41.433,-88.7366 41.321,-130.0514 -0.18,-66.5037 -2.79,-85.8947 -16.904,-116.6763 C 659.93804,431.5662 604.24204,400 532.23104,400 c -11.177,0 -30.147,0.064 -33.531,0 -1.017,0 -1.493,0 11.719,-32.1562 39.835,-96.9535 42.332,-188.9078 16.906,-263.7188 -21.255,-62.5358 -36.918,-80.3875 -74.219,-80.0625 z m 79.938,453.5313 c 39.559,0.6012 77.976,18.2298 96.274,60.2015 16.318,37.4293 21.632,94.9297 -0.154,135.5645 -11.705,21.8303 -19.283,39.0007 -46.308,50.6714 -34.036,14.6987 -93.478,-0.056 -115.062,-41.25 -26.894,-51.3279 -35.978,-108.0728 -8.906,-160.9687 14.519,-28.3694 45.895,-44.6482 74.156,-44.2187 z"
       style="fill:#000000;fill-opacity:1;stroke:none" />
  </g>
</svg>
