<?xml version="1.0" encoding="UTF-8" standalone="no"?>
<!-- Created with Inkscape (http://www.inkscape.org/) -->

<svg
   xmlns:dc="http://purl.org/dc/elements/1.1/"
   xmlns:cc="http://creativecommons.org/ns#"
   xmlns:rdf="http://www.w3.org/1999/02/22-rdf-syntax-ns#"
   xmlns:svg="http://www.w3.org/2000/svg"
   xmlns="http://www.w3.org/2000/svg"
   xmlns:sodipodi="http://sodipodi.sourceforge.net/DTD/sodipodi-0.dtd"
   xmlns:inkscape="http://www.inkscape.org/namespaces/inkscape"
   width="1000"
   height="1000"
   id="svg14722"
   version="1.1"
   inkscape:version="0.48.3.1 r9886"
   sodipodi:docname="New document 164">
  <defs
     id="defs5498" />
  <sodipodi:namedview
     inkscape:window-height="618"
     inkscape:window-width="641"
     inkscape:pageshadow="2"
     inkscape:pageopacity="0.0"
     borderopacity="1.0"
     bordercolor="#666666"
     pagecolor="#ffffff"
     id="base"
     showgrid="false"
     showguides="true"
     inkscape:guide-bbox="true"
     inkscape:zoom="0.454"
     inkscape:cx="500"
     inkscape:cy="500"
     inkscape:window-x="0"
     inkscape:window-y="31"
     inkscape:current-layer="layer1"
     inkscape:window-maximized="0">
    <sodipodi:guide
       orientation="horizontal"
       position="200"
       id="guide5596" />
  </sodipodi:namedview>
  <metadata
     id="metadata5594">
    <rdf:RDF>
      <cc:Work
         rdf:about="">
        <dc:format>image/svg+xml</dc:format>
        <dc:type
           rdf:resource="http://purl.org/dc/dcmitype/StillImage" />
        <dc:title></dc:title>
      </cc:Work>
    </rdf:RDF>
  </metadata>
  <g
     inkscape:label="Layer 1"
     inkscape:groupmode="layer"
     id="layer1">
    <path
       style="fill:#000000;fill-opacity:1;stroke:none"
       d="m 455.22241,882.119 c -2.917,-17.3942 -1.387,-32.5509 4.915,-47.4685 5.6,-13.257 16.936,-20.7168 26.856,-29.4951 11.934,-10.5605 11.485,-27.5584 12.09,-42.1413 1.292,-31.1561 15.865,-46.7675 38.612,-46.1566 13.582,0.3648 27.419,7.8641 32.949,20.8404 8.36,19.6168 6.634,41.5559 5.187,62.3021 -1.214,17.4036 -5.486,35.3689 -17.135,48.8868 -12.466,14.4642 -28.155,27.8017 -33.674,46.4717 -2.362,7.989 -4.34,12.7405 -11.734,17.0467 -10.127,5.8974 -24.192,5.2629 -34.156,1.6716 -11.074,-3.9912 -21.287,-16.3162 -23.91,-31.9578 z"
       id="path12471"
       inkscape:connector-curvature="0"
       sodipodi:nodetypes="ssssssssssss" />
  </g>
</svg>
