<?xml version="1.0" encoding="UTF-8" standalone="no"?>
<!-- Created with Inkscape (http://www.inkscape.org/) -->

<svg
   xmlns:dc="http://purl.org/dc/elements/1.1/"
   xmlns:cc="http://creativecommons.org/ns#"
   xmlns:rdf="http://www.w3.org/1999/02/22-rdf-syntax-ns#"
   xmlns:svg="http://www.w3.org/2000/svg"
   xmlns="http://www.w3.org/2000/svg"
   xmlns:sodipodi="http://sodipodi.sourceforge.net/DTD/sodipodi-0.dtd"
   xmlns:inkscape="http://www.inkscape.org/namespaces/inkscape"
   width="1000"
   height="1000"
   id="svg13798"
   version="1.1"
   inkscape:version="0.48.3.1 r9886"
   sodipodi:docname="New document 101">
  <defs
     id="defs5498" />
  <sodipodi:namedview
     inkscape:window-height="618"
     inkscape:window-width="641"
     inkscape:pageshadow="2"
     inkscape:pageopacity="0.0"
     borderopacity="1.0"
     bordercolor="#666666"
     pagecolor="#ffffff"
     id="base"
     showgrid="false"
     showguides="true"
     inkscape:guide-bbox="true"
     inkscape:zoom="0.454"
     inkscape:cx="500"
     inkscape:cy="500"
     inkscape:window-x="0"
     inkscape:window-y="31"
     inkscape:current-layer="layer1"
     inkscape:window-maximized="0">
    <sodipodi:guide
       orientation="horizontal"
       position="200"
       id="guide5596" />
  </sodipodi:namedview>
  <metadata
     id="metadata5594">
    <rdf:RDF>
      <cc:Work
         rdf:about="">
        <dc:format>image/svg+xml</dc:format>
        <dc:type
           rdf:resource="http://purl.org/dc/dcmitype/StillImage" />
        <dc:title></dc:title>
      </cc:Work>
    </rdf:RDF>
  </metadata>
  <g
     inkscape:label="Layer 1"
     inkscape:groupmode="layer"
     id="layer1">
    <path
       sodipodi:nodetypes="scccssscsccsscssssccsccccscccs"
       inkscape:connector-curvature="0"
       id="path11858"
       d="M 469.91797,46.235979 C 406.68139,45.940043 349.38648,48.569522 329.80882,63.9252 c -5.46645,4.288058 -8.49466,18.215499 -7.23059,33.286811 2.16191,25.797389 2.35218,25.933069 39.5311,28.087619 55.35292,3.2071 63.93363,19.27236 62.57013,117.13133 -1.04988,75.39098 -8.29195,116.17592 -37.76888,213.28659 -17.99424,59.28222 -27.59423,200.97566 -16.76269,247.20085 6.90644,29.47521 6.56509,30.39696 -11.92254,32.53984 -16.99886,1.97011 -19.0336,5.26862 -19.0336,31.04574 0,26.20299 1.99267,29.28321 21.69272,33.49602 89.22252,19.07873 213.13504,-8.03827 257.33037,-56.32468 24.09463,-26.32663 31.37685,-47.86589 46.07611,-136.13529 15.15919,-91.03122 11.01513,-75.81008 53.87468,-198.82446 32.41048,-93.02522 36.53733,-111.5968 36.63294,-164.73083 0.11474,-65.40298 -8.3407,-93.2985 -39.47182,-130.21896 C 688.2326,81.632875 650.37958,67.382152 583.28484,54.542741 547.93604,47.778574 507.86087,46.413445 469.91797,46.235979 z m 16.88316,73.595481 c 3.83426,-0.15165 10.04844,0.73759 19.51169,2.33067 75.37138,2.29683 113.8115,12.66367 133.83474,26.92233 23.9665,17.06522 49.69045,62.69471 49.69045,88.1473 0,20.35839 -27.00426,111.75821 -53.87371,182.33036 -17.39281,45.68371 -25.80906,82.25392 -47.30098,205.15921 -8.5329,48.79318 -20.66197,67.40262 -55.87691,85.75687 -39.38576,20.52982 -70.29027,26.27719 -79.75065,14.85053 -12.8223,-15.48916 -24.32985,-96.69483 -19.48205,-137.45003 2.49752,-20.99673 13.91902,-72.36125 25.36825,-114.11336 11.45019,-41.75211 24.54308,-100.3064 29.10403,-130.12937 8.49083,-55.52704 5.72653,-189.42709 -4.2435,-213.04755 -3.12,-7.39247 -3.37243,-10.50415 3.01864,-10.75696 z"
       style="fill:#000000;fill-opacity:1;stroke:none" />
  </g>
</svg>
