<?xml version="1.0" encoding="UTF-8" standalone="no"?>
<!-- Created with Inkscape (http://www.inkscape.org/) -->

<svg
   xmlns:dc="http://purl.org/dc/elements/1.1/"
   xmlns:cc="http://creativecommons.org/ns#"
   xmlns:rdf="http://www.w3.org/1999/02/22-rdf-syntax-ns#"
   xmlns:svg="http://www.w3.org/2000/svg"
   xmlns="http://www.w3.org/2000/svg"
   xmlns:sodipodi="http://sodipodi.sourceforge.net/DTD/sodipodi-0.dtd"
   xmlns:inkscape="http://www.inkscape.org/namespaces/inkscape"
   width="1000"
   height="1000"
   id="svg13351"
   version="1.1"
   inkscape:version="0.48.3.1 r9886"
   sodipodi:docname="New document 71">
  <defs
     id="defs5498" />
  <sodipodi:namedview
     inkscape:window-height="618"
     inkscape:window-width="641"
     inkscape:pageshadow="2"
     inkscape:pageopacity="0.0"
     borderopacity="1.0"
     bordercolor="#666666"
     pagecolor="#ffffff"
     id="base"
     showgrid="false"
     showguides="true"
     inkscape:guide-bbox="true"
     inkscape:zoom="0.454"
     inkscape:cx="500"
     inkscape:cy="500"
     inkscape:window-x="0"
     inkscape:window-y="31"
     inkscape:current-layer="layer1"
     inkscape:window-maximized="0">
    <sodipodi:guide
       orientation="horizontal"
       position="200"
       id="guide5596" />
  </sodipodi:namedview>
  <metadata
     id="metadata5594">
    <rdf:RDF>
      <cc:Work
         rdf:about="">
        <dc:format>image/svg+xml</dc:format>
        <dc:type
           rdf:resource="http://purl.org/dc/dcmitype/StillImage" />
        <dc:title></dc:title>
      </cc:Work>
    </rdf:RDF>
  </metadata>
  <g
     inkscape:label="Layer 1"
     inkscape:groupmode="layer"
     id="layer1">
    <path
       sodipodi:nodetypes="ssssssssssssssssssssscs"
       inkscape:connector-curvature="0"
       id="path11655"
       d="m 553.14707,392.5625 c -30.77,-0.2573 -62.968,3.4772 -79.632,10.1875 -36.474,14.689 -79.216,45.1417 -103.329,89.625 -24.736,45.6322 -34.231,87.1455 -39.364,145.9375 -3.831,43.8796 0.642,76.8572 20.987,102.5313 12.999,16.4054 36.86,36.3818 53.007,44.375 21.366,10.5764 46.43,14.5792 92.077,14.7812 92.904,0.4112 58.598,-36 133.625,-36 21.102,0 34.75,-68.7812 -5.425,-68.7812 -37.37,-10e-5 -65.573,6.7118 -75.998,18 -9.54,10.3288 -26.476,19.0312 -43.457,19.0312 -45.887,0 -107.513,-50.5263 -103.685,-85 1.464,-13.1822 24.053,-17.8357 52.926,-21.7512 23.688,-3.2122 52.122,18.1911 92.575,20.6887 52.459,3.239 75.257,-14.42 94.025,-30.3847 24.985,-21.2545 41.324,-63.1666 37.086,-106.3028 -6.852,-69.7692 -62.453,-116.4108 -125.418,-116.9375 z m -5.105,68.75 c 11.997,-0.1606 34.907,4.9757 50.183,23.3358 23.962,28.7975 25.829,73.2336 -3.591,84.5864 -50.735,19.5776 -46.062,-4.4574 -101.395,-6.9853 -30.956,-1.4142 -50.663,-2.6709 -84.29,7.2286 8.693,-72.9481 86.078,-107.4557 139.093,-108.1655 z"
       style="fill:#000000;fill-opacity:1;stroke:none" />
  </g>
</svg>
