<?xml version="1.0" encoding="UTF-8" standalone="no"?>
<!-- Created with Inkscape (http://www.inkscape.org/) -->

<svg
   xmlns:dc="http://purl.org/dc/elements/1.1/"
   xmlns:cc="http://creativecommons.org/ns#"
   xmlns:rdf="http://www.w3.org/1999/02/22-rdf-syntax-ns#"
   xmlns:svg="http://www.w3.org/2000/svg"
   xmlns="http://www.w3.org/2000/svg"
   xmlns:sodipodi="http://sodipodi.sourceforge.net/DTD/sodipodi-0.dtd"
   xmlns:inkscape="http://www.inkscape.org/namespaces/inkscape"
   width="1000"
   height="1000"
   id="svg12997"
   version="1.1"
   inkscape:version="0.48.3.1 r9886"
   sodipodi:docname="New document 47">
  <defs
     id="defs5498" />
  <sodipodi:namedview
     inkscape:window-height="618"
     inkscape:window-width="641"
     inkscape:pageshadow="2"
     inkscape:pageopacity="0.0"
     borderopacity="1.0"
     bordercolor="#666666"
     pagecolor="#ffffff"
     id="base"
     showgrid="false"
     showguides="true"
     inkscape:guide-bbox="true"
     inkscape:zoom="0.454"
     inkscape:cx="500"
     inkscape:cy="500"
     inkscape:window-x="0"
     inkscape:window-y="31"
     inkscape:current-layer="layer1"
     inkscape:window-maximized="0">
    <sodipodi:guide
       orientation="horizontal"
       position="200"
       id="guide5596" />
  </sodipodi:namedview>
  <metadata
     id="metadata5594">
    <rdf:RDF>
      <cc:Work
         rdf:about="">
        <dc:format>image/svg+xml</dc:format>
        <dc:type
           rdf:resource="http://purl.org/dc/dcmitype/StillImage" />
        <dc:title></dc:title>
      </cc:Work>
    </rdf:RDF>
  </metadata>
  <g
     inkscape:label="Layer 1"
     inkscape:groupmode="layer"
     id="layer1">
    <path
       sodipodi:nodetypes="ssssssssssss"
       inkscape:connector-curvature="0"
       style="fill:#000000;fill-opacity:1;stroke:none"
       d="m 458.52476,770.2213 c -15.858,-25.5074 -18.714,-61.3598 -14.387,-95.3895 5.33,-41.9189 3.102,-36.0595 18.871,-103.3012 18.916,-80.6552 24.983,-95.46 12.726,-122.2785 -6.171,-13.5033 -8.934,-18.503 -7.93,-31.2833 0.663,-8.4396 3.742,-17.9688 31.586,-17.9688 31.825,0 47.349,9.3002 49.138,58.0051 1.406,38.2684 -0.769,47.711 -20.93,127.4215 -20.696,81.8242 -25.041,115.686 -8.85,138.8013 7.035,10.0435 18.584,21.6429 20.5,37.4252 3.217,26.492 -6.137,38.3469 -32.043,38.3469 -24.681,0 -32.627,-3.957 -48.681,-29.7787 z"
       id="path11233" />
    <path
       sodipodi:nodetypes="ssssss"
       inkscape:connector-curvature="0"
       style="fill:#000000;fill-opacity:1;stroke:none"
       d="m 480.54876,340.2751 c -2.773,-2.7724 -11.291,-15.7588 -11.291,-33.6334 0,-37.5299 15.633,-52.5428 55.168,-46.716 14.92,2.199 21.244,9.0435 23.452,39.7245 1.294,17.982 -11.051,30.515 -15.972,36.4455 -9.019,10.8667 -41.996,13.5404 -51.357,4.1794 z"
       id="path11235" />
  </g>
</svg>
