<?xml version="1.0" encoding="UTF-8" standalone="no"?>
<!-- Created with Inkscape (http://www.inkscape.org/) -->

<svg
   xmlns:dc="http://purl.org/dc/elements/1.1/"
   xmlns:cc="http://creativecommons.org/ns#"
   xmlns:rdf="http://www.w3.org/1999/02/22-rdf-syntax-ns#"
   xmlns:svg="http://www.w3.org/2000/svg"
   xmlns="http://www.w3.org/2000/svg"
   xmlns:sodipodi="http://sodipodi.sourceforge.net/DTD/sodipodi-0.dtd"
   xmlns:inkscape="http://www.inkscape.org/namespaces/inkscape"
   width="1000"
   height="1000"
   id="svg13886"
   version="1.1"
   inkscape:version="0.48.3.1 r9886"
   sodipodi:docname="New document 107">
  <defs
     id="defs5498" />
  <sodipodi:namedview
     inkscape:window-height="618"
     inkscape:window-width="641"
     inkscape:pageshadow="2"
     inkscape:pageopacity="0.0"
     borderopacity="1.0"
     bordercolor="#666666"
     pagecolor="#ffffff"
     id="base"
     showgrid="false"
     showguides="true"
     inkscape:guide-bbox="true"
     inkscape:zoom="0.454"
     inkscape:cx="500"
     inkscape:cy="500"
     inkscape:window-x="0"
     inkscape:window-y="31"
     inkscape:current-layer="layer1"
     inkscape:window-maximized="0">
    <sodipodi:guide
       orientation="horizontal"
       position="200"
       id="guide5596" />
  </sodipodi:namedview>
  <metadata
     id="metadata5594">
    <rdf:RDF>
      <cc:Work
         rdf:about="">
        <dc:format>image/svg+xml</dc:format>
        <dc:type
           rdf:resource="http://purl.org/dc/dcmitype/StillImage" />
        <dc:title></dc:title>
      </cc:Work>
    </rdf:RDF>
  </metadata>
  <g
     inkscape:label="Layer 1"
     inkscape:groupmode="layer"
     id="layer1">
    <path
       sodipodi:nodetypes="cccssscsssssscccsccssssscssssssscssscsscsscscccscsscsc"
       inkscape:connector-curvature="0"
       style="fill:#000000;fill-opacity:1;stroke:none"
       d="m 568.12695,800 c -2.413,-3.9018 -3.471,-17.6972 -2.355,-30.6566 1.239,-14.385 -2.331,-28.4701 -9.165,-36.1627 -17.584,-19.7938 -38.787,-70.0893 -46.866,-100.0943 -4.065,-15.0964 -17.608,-78.5836 -21.147,-152.27 -6.815,-141.9462 -8.602,-188.1805 -41.575,-248.173 -5.706,-10.3817 -22.61,-32.9756 -22.61,-32.9756 0,0 2.575,50.2783 1.116,74.5022 -4.683,77.7548 -13.814,111.0315 -64.573,235.3171 -33.518,82.07 -39.463,100.3732 -39.847,133.5776 -0.348,30.101 7.002,50.59 13.541,63.7327 9.925,19.9472 22.716,30.7418 36.336,32.4174 15.217,1.8723 17.302,5.465 17.302,29.8132 l 0,27.6844 -76.132,0 -76.132,0 0,-27.6844 c 0,-23.7753 2.292,-28.0088 16.232,-29.9822 13.222,-1.8722 15.324,-5.079 11.339,-17.3028 -2.692,-8.2527 -6.454,-37.7962 -8.361,-65.6525 -3.886,-56.7594 7.442,-107.4917 39.75,-178.0322 43.679,-95.3653 64.79,-169.6894 64.741,-228.1122 -0.06,-64.8171 -13.412,-109.5284 -33.726,-112.72999 -7.614,-1.1999 -20.072,-4.8531 -27.685,-8.1183 -7.612,-3.2653 -19.292,-7.6787 -25.953,-9.8077 -8.488,-2.7125 -12.113,-11.1118 -12.113,-28.0684 0,-31.2985 13.671,-38.5267 72.865,-38.5267 39.398,0 105.607,-5.5035 109.929,18.5916 3.302,18.4099 -6.632,38.5487 5.66,47.9638 26.204,20.0708 65.025,66.63649 83.005,123.77459 17.349,55.1368 11.437,79.5503 21.561,218.0144 8.58,117.3398 13.114,152.687 36.374,185.9298 l 18.291,26.1421 c 0,0 4.622,-34.5299 6.017,-57.287 3.937,-64.1935 7.796,-122.4253 40.932,-193.0091 11.728,-24.9833 49.699,-93.6215 58.719,-132.515 10.59,-45.6604 12.788,-130.425 4.189,-161.47319 -3.638,-13.1312 -10.563,-18.1371 -28.725,-20.7633 -22.73,-3.2868 -23.932,-4.8511 -23.932,-31.1449 l 0,-27.6844 80.723,-6.1611 c 44.399,-3.3886 85.855,-4.1923 92.126,-1.7858 8.387,3.2184 10.832,11.2516 9.25,30.3849 -2.089,25.2578 -3.001,26.0712 -31.566,28.1379 l -29.415,2.1282 0,87.84859 c 3.238,93.7378 -16.903,180.1044 -58.431,255.4668 -34.255,62.0157 -54.638,160.859 -48.497,235.1708 l 4.69,56.7396 28.625,2.0897 c 28.436,2.0756 28.627,2.2747 28.627,29.774 l 0,27.6844 -34.606,4.5845 c -54.577,7.2303 -133.716,6.4894 -138.528,-1.2969 z"
       id="path11879" />
  </g>
</svg>
