<?xml version="1.0" encoding="UTF-8" standalone="no"?>
<!-- Created with Inkscape (http://www.inkscape.org/) -->

<svg
   xmlns:dc="http://purl.org/dc/elements/1.1/"
   xmlns:cc="http://creativecommons.org/ns#"
   xmlns:rdf="http://www.w3.org/1999/02/22-rdf-syntax-ns#"
   xmlns:svg="http://www.w3.org/2000/svg"
   xmlns="http://www.w3.org/2000/svg"
   xmlns:sodipodi="http://sodipodi.sourceforge.net/DTD/sodipodi-0.dtd"
   xmlns:inkscape="http://www.inkscape.org/namespaces/inkscape"
   width="1000"
   height="1000"
   id="svg12728"
   version="1.1"
   inkscape:version="0.48.3.1 r9886"
   sodipodi:docname="New document 29">
  <defs
     id="defs5498" />
  <sodipodi:namedview
     inkscape:window-height="618"
     inkscape:window-width="641"
     inkscape:pageshadow="2"
     inkscape:pageopacity="0.0"
     borderopacity="1.0"
     bordercolor="#666666"
     pagecolor="#ffffff"
     id="base"
     showgrid="false"
     showguides="true"
     inkscape:guide-bbox="true"
     inkscape:zoom="0.454"
     inkscape:cx="500"
     inkscape:cy="500"
     inkscape:window-x="0"
     inkscape:window-y="31"
     inkscape:current-layer="layer1"
     inkscape:window-maximized="0">
    <sodipodi:guide
       orientation="horizontal"
       position="200"
       id="guide5596" />
  </sodipodi:namedview>
  <metadata
     id="metadata5594">
    <rdf:RDF>
      <cc:Work
         rdf:about="">
        <dc:format>image/svg+xml</dc:format>
        <dc:type
           rdf:resource="http://purl.org/dc/dcmitype/StillImage" />
        <dc:title></dc:title>
      </cc:Work>
    </rdf:RDF>
  </metadata>
  <g
     inkscape:label="Layer 1"
     inkscape:groupmode="layer"
     id="layer1">
    <path
       style="fill:#000000;fill-opacity:1;stroke:none"
       d="m 531.74588,400 c -28.024,0.032 -55.734,7.564 -79.546,23.2188 -67.692,44.5023 -109.23601,92.7124 -112.71701,182.4374 -1.685,43.4398 15.01401,99.2835 30.90801,124.8438 23.037,37.0484 50.17,69.5 116.855,69.5 59.049,0 86.653,-4.2026 133.567,-44.0313 41.171,-34.9522 66.409,-106.4247 66.253,-164.6874 -0.132,-49.6447 -16.363,-101.4831 -38.517,-128.75 -31.616,-38.9118 -70.095,-62.5849 -116.803,-62.5313 z m 2.422,78.125 c 31.187,4.4854 49.658,17.0615 61.181,38.0313 12.529,22.7991 25.906,57.3969 13.482,111.6874 -14.661,64.0641 -45.893,102.8849 -109.952,103.4376 -18.355,0.1584 -54.209,-17.932 -74.938,-51.7813 -17.16,-28.0201 -24.133,-68.4869 -14.313,-105.9375 8.477,-32.3249 64.567,-104.0629 124.54,-95.4375 z"
       id="path10340-6"
       inkscape:connector-curvature="0"
       sodipodi:nodetypes="ssssssssssssssss" />
  </g>
</svg>
