<?xml version="1.0" encoding="UTF-8" standalone="no"?>
<!-- Created with Inkscape (http://www.inkscape.org/) -->

<svg
   xmlns:dc="http://purl.org/dc/elements/1.1/"
   xmlns:cc="http://creativecommons.org/ns#"
   xmlns:rdf="http://www.w3.org/1999/02/22-rdf-syntax-ns#"
   xmlns:svg="http://www.w3.org/2000/svg"
   xmlns="http://www.w3.org/2000/svg"
   xmlns:sodipodi="http://sodipodi.sourceforge.net/DTD/sodipodi-0.dtd"
   xmlns:inkscape="http://www.inkscape.org/namespaces/inkscape"
   width="1000"
   height="1000"
   id="svg13131"
   version="1.1"
   inkscape:version="0.48.3.1 r9886"
   sodipodi:docname="New document 56">
  <defs
     id="defs5498" />
  <sodipodi:namedview
     inkscape:window-height="618"
     inkscape:window-width="641"
     inkscape:pageshadow="2"
     inkscape:pageopacity="0.0"
     borderopacity="1.0"
     bordercolor="#666666"
     pagecolor="#ffffff"
     id="base"
     showgrid="false"
     showguides="true"
     inkscape:guide-bbox="true"
     inkscape:zoom="0.454"
     inkscape:cx="500"
     inkscape:cy="500"
     inkscape:window-x="0"
     inkscape:window-y="31"
     inkscape:current-layer="layer1"
     inkscape:window-maximized="0">
    <sodipodi:guide
       orientation="horizontal"
       position="200"
       id="guide5596" />
  </sodipodi:namedview>
  <metadata
     id="metadata5594">
    <rdf:RDF>
      <cc:Work
         rdf:about="">
        <dc:format>image/svg+xml</dc:format>
        <dc:type
           rdf:resource="http://purl.org/dc/dcmitype/StillImage" />
        <dc:title></dc:title>
      </cc:Work>
    </rdf:RDF>
  </metadata>
  <g
     inkscape:label="Layer 1"
     inkscape:groupmode="layer"
     id="layer1">
    <path
       style="fill:#000000"
       d="M 493.3247,425.7812 C 450.3167,436.1088 496.4077,400 443.0547,400 c -65.729,0 -55.407,261.8047 -30.579,340.5007 17.147,54.3491 63.526,166.8352 -4.774,195.7155 -14.988,6.3376 -20.57,46.8786 -7.789,59.627 3.907,3.897 9.395,5.4607 36.852,4.1568 67.315,-3.1967 78.502,-96.2741 73.056,-135.1052 L 500.7187,800 l 51.978,0 c 59.244,0 88.536,-40.0181 105.081,-77.2791 20.969,-47.2235 23.385,-103.8026 16.349,-154.991 -5.693,-41.4233 -20.005,-81.41 -44.507,-108.1288 -37.23,-40.5982 -91.083,-44.6766 -136.295,-33.8199 z m 83.682,94.3056 c 33.772,45.691 34.545,124.7953 2.106,183.5269 -22.623,40.9607 -66.396,26.1463 -89.37,-2.4801 -19.425,-24.2045 -46.422,-114.8672 -19.648,-177.5962 14.52,-34.0202 81.572,-37.7328 106.912,-3.4506 z"
       id="path11614"
       inkscape:connector-curvature="0"
       sodipodi:nodetypes="ssssssscssssssssss" />
  </g>
</svg>
