<?xml version="1.0" encoding="UTF-8" standalone="no"?>
<!-- Created with Inkscape (http://www.inkscape.org/) -->

<svg
   xmlns:dc="http://purl.org/dc/elements/1.1/"
   xmlns:cc="http://creativecommons.org/ns#"
   xmlns:rdf="http://www.w3.org/1999/02/22-rdf-syntax-ns#"
   xmlns:svg="http://www.w3.org/2000/svg"
   xmlns="http://www.w3.org/2000/svg"
   xmlns:sodipodi="http://sodipodi.sourceforge.net/DTD/sodipodi-0.dtd"
   xmlns:inkscape="http://www.inkscape.org/namespaces/inkscape"
   width="1000"
   height="1000"
   id="svg14458"
   version="1.1"
   inkscape:version="0.48.3.1 r9886"
   sodipodi:docname="New document 146">
  <defs
     id="defs5498" />
  <sodipodi:namedview
     inkscape:window-height="618"
     inkscape:window-width="641"
     inkscape:pageshadow="2"
     inkscape:pageopacity="0.0"
     borderopacity="1.0"
     bordercolor="#666666"
     pagecolor="#ffffff"
     id="base"
     showgrid="false"
     showguides="true"
     inkscape:guide-bbox="true"
     inkscape:zoom="0.454"
     inkscape:cx="500"
     inkscape:cy="500"
     inkscape:window-x="0"
     inkscape:window-y="31"
     inkscape:current-layer="layer1"
     inkscape:window-maximized="0">
    <sodipodi:guide
       orientation="horizontal"
       position="200"
       id="guide5596" />
  </sodipodi:namedview>
  <metadata
     id="metadata5594">
    <rdf:RDF>
      <cc:Work
         rdf:about="">
        <dc:format>image/svg+xml</dc:format>
        <dc:type
           rdf:resource="http://purl.org/dc/dcmitype/StillImage" />
        <dc:title></dc:title>
      </cc:Work>
    </rdf:RDF>
  </metadata>
  <g
     inkscape:label="Layer 1"
     inkscape:groupmode="layer"
     id="layer1">
    <path
       d="m 558.62936,614.9167 c 27.076,14.1296 47.616,25.0766 53.87,32.0805 34.416,-65.3523 42.656,-141.0343 44.48,-210.9531 2.406,-92.2828 -22.743,-173.4753 -62.661,-228.1869 -42.092,-57.68989 -129.606,-84.00319 -204.148,-41.60519 -74.419,42.32759 -114.634,135.20959 -121.416,286.44469 -4.091,91.2091 18.216,151.7306 50.942,198.8134 l 24.949,35.8931 3.648,-34.8319 c 10.419,-99.4613 182.926,-51.9584 210.336,-37.6546 z m -44.264,105.8601 c 17.952,-7.5008 32.64,-16.034 32.64,-18.9625 0,-8.8183 -44.507,-34.0734 -69.828,-36.8931 -20.151,-2.2438 -27.549,1.1622 -37.641,8.4562 -10.597,7.6591 -14.836,22.7628 -7.261,37.349 13.796,26.5647 34.483,29.9417 82.09,10.0504 z m -117.954,79.7913 c -52.67,-15.5802 -112.054,-51.8511 -141.463,-108.0968 -40.379,-77.2267 -56.203,-127.7897 -56.079,-238.9049 0.126,-113.5565 20.198,-189.1158 55.883,-255.6409 43.143,-80.42749 133.815,-133.417993 223.696,-131.562493 91.19,1.8825 139.926,44.460403 169.321,87.305803 44.155,64.36089 73.063,150.87059 75.094,282.37529 1.875,121.3871 -22.87,174.1129 -48.917,257.5633 -4.7,15.0598 -1.253,23.1036 13.222,30.8502 16.067,8.599 22.511,7.0551 35.921,-8.6062 10.246,-11.9667 27.848,-19.0851 47.192,-19.0851 28.983,0 30.85,1.9941 30.85,32.9423 0,53.0282 -25.363,70.6486 -101.18,70.2914 -37.614,-0.1773 -70.201,-5.3636 -79.88,-12.7133 -13.706,-10.4068 -24.358,-9.6472 -65.885,4.6981 -51.686,17.8547 -117.304,20.5548 -157.775,8.5833 z"
       style="fill:#000000"
       id="path12453"
       inkscape:connector-curvature="0"
       sodipodi:nodetypes="scssssscssssssssssssssssssssssss" />
  </g>
</svg>
