<?xml version="1.0" encoding="UTF-8" standalone="no"?>
<!-- Created with Inkscape (http://www.inkscape.org/) -->

<svg
   xmlns:dc="http://purl.org/dc/elements/1.1/"
   xmlns:cc="http://creativecommons.org/ns#"
   xmlns:rdf="http://www.w3.org/1999/02/22-rdf-syntax-ns#"
   xmlns:svg="http://www.w3.org/2000/svg"
   xmlns="http://www.w3.org/2000/svg"
   xmlns:sodipodi="http://sodipodi.sourceforge.net/DTD/sodipodi-0.dtd"
   xmlns:inkscape="http://www.inkscape.org/namespaces/inkscape"
   width="1000"
   height="1000"
   id="svg13263"
   version="1.1"
   inkscape:version="0.48.3.1 r9886"
   sodipodi:docname="New document 65">
  <defs
     id="defs5498" />
  <sodipodi:namedview
     inkscape:window-height="618"
     inkscape:window-width="641"
     inkscape:pageshadow="2"
     inkscape:pageopacity="0.0"
     borderopacity="1.0"
     bordercolor="#666666"
     pagecolor="#ffffff"
     id="base"
     showgrid="false"
     showguides="true"
     inkscape:guide-bbox="true"
     inkscape:zoom="0.908"
     inkscape:cx="500"
     inkscape:cy="235.68282"
     inkscape:window-x="0"
     inkscape:window-y="31"
     inkscape:current-layer="layer1"
     inkscape:window-maximized="0">
    <sodipodi:guide
       orientation="horizontal"
       position="200"
       id="guide5596" />
  </sodipodi:namedview>
  <metadata
     id="metadata5594">
    <rdf:RDF>
      <cc:Work
         rdf:about="">
        <dc:format>image/svg+xml</dc:format>
        <dc:type
           rdf:resource="http://purl.org/dc/dcmitype/StillImage" />
        <dc:title></dc:title>
      </cc:Work>
    </rdf:RDF>
  </metadata>
  <g
     inkscape:label="Layer 1"
     inkscape:groupmode="layer"
     id="layer1">
    <path
       sodipodi:nodetypes="cssscsssssccssssssccsssssss"
       inkscape:connector-curvature="0"
       id="path12399"
       d="m 482.06322,400 c -34.18,-0.072 -68.692,6.1812 -88.844,18.4687 -42.734,26.0566 -62.35,74.1303 -72.553,152.1908 -16.188,123.8478 56.123,229.3405 150.496,229.3405 29.365,0 61.588,-6.0628 61.588,-6.0628 l 1.75,66.8126 c 1.093,41.7249 13.294,75.4582 27.371,97.9284 15.459,24.6765 48.035,41.3218 88.01,41.3218 42.227,0 58.373,-8.3508 68.244,-15.844 9.798,-7.437 18.747,-24.4356 22.032,-42.5 1.562,-8.5938 3.125,-32.4375 3.125,-32.4375 l -61.75,-0.031 c -34.152,23.3132 -61.909,9.7592 -70.782,-26.1562 -16.003,-64.778 -4.193,-253.7498 35.75,-360.625 10.641,-28.4716 21.354,-67.65 23.782,-87.0625 4.376,-34.995 4.116,-35.2307 -29.063,-35.2813 -40.812,-0.062 -50.622,5.6516 -55.906,15.0938 -7.755,13.8576 -4.859,13.8576 -31.656,0 -19.548,-10.1083 -41.435,-15.0932 -71.594,-15.1562 z m 24.469,83.6562 c 53.634,27.6802 53.766,35.7941 42.156,130.0938 -9.392,76.2768 -13.052,86.8852 -33.125,96.0312 -29.549,13.4635 -43.973,13.3282 -79.415,-8.2812 -38.965,-23.7584 -49.029,-77.567 -41.46,-126.1563 7.691,-49.373 17.19,-68.5112 52.281,-88.5313 16.936,-9.6625 37.823,-14.3756 59.563,-3.1562 z"
       style="fill:#000000" />
  </g>
</svg>
