<?xml version="1.0" encoding="UTF-8" standalone="no"?>
<!-- Created with Inkscape (http://www.inkscape.org/) -->

<svg
   xmlns:dc="http://purl.org/dc/elements/1.1/"
   xmlns:cc="http://creativecommons.org/ns#"
   xmlns:rdf="http://www.w3.org/1999/02/22-rdf-syntax-ns#"
   xmlns:svg="http://www.w3.org/2000/svg"
   xmlns="http://www.w3.org/2000/svg"
   xmlns:sodipodi="http://sodipodi.sourceforge.net/DTD/sodipodi-0.dtd"
   xmlns:inkscape="http://www.inkscape.org/namespaces/inkscape"
   width="1000"
   height="1000"
   id="svg14902"
   version="1.1"
   inkscape:version="0.48.3.1 r9886"
   sodipodi:docname="New document 176">
  <defs
     id="defs5498" />
  <sodipodi:namedview
     inkscape:window-height="618"
     inkscape:window-width="641"
     inkscape:pageshadow="2"
     inkscape:pageopacity="0.0"
     borderopacity="1.0"
     bordercolor="#666666"
     pagecolor="#ffffff"
     id="base"
     showgrid="false"
     showguides="true"
     inkscape:guide-bbox="true"
     inkscape:zoom="0.454"
     inkscape:cx="500"
     inkscape:cy="500"
     inkscape:window-x="0"
     inkscape:window-y="31"
     inkscape:current-layer="layer1"
     inkscape:window-maximized="0">
    <sodipodi:guide
       orientation="horizontal"
       position="200"
       id="guide5596" />
  </sodipodi:namedview>
  <metadata
     id="metadata5594">
    <rdf:RDF>
      <cc:Work
         rdf:about="">
        <dc:format>image/svg+xml</dc:format>
        <dc:type
           rdf:resource="http://purl.org/dc/dcmitype/StillImage" />
        <dc:title></dc:title>
      </cc:Work>
    </rdf:RDF>
  </metadata>
  <g
     inkscape:label="Layer 1"
     inkscape:groupmode="layer"
     id="layer1">
    <path
       id="path12485"
       d="m 474.43992,653.6436 c -3.099,-8.0774 -3.218,-46.038 -0.266,-84.3569 9.139,-118.5161 28.332,-154.397 117.311,-198.6437 31.396,-15.6123 60.087,-26.9231 84.919,-48.9686 22.034,-19.5614 37.191,-47.235 40.957,-93.1753 3.346,-40.8136 -20.116,-88.2847 -74.468,-103.576 -65.34,-18.3825 -118.03,-16.7367 -179.116,10.9865 -42.023,19.0715 -76.383,65.7803 -88.409,110.7451 -5.408,20.2209 -11.765,25.2821 -31.756,25.2821 -51.161,0 -51.884,-43.5028 -1.93,-116.3394 50.989,-74.3465 116.278,-112.872502 240.876,-109.747502 76.28,1.9132 107.412,20.7955 131.919,33.975502 49.29,26.5088 73.949,82.4563 68.046,169.6783 -7.059,104.2905 -55.938,145.7185 -145.707,179.27 -43.313,16.1882 -66.79,35.1752 -80.762,72.5413 -7.664,20.4974 -16.9,65.1964 -20.524,99.3311 -6.293,59.2645 -7.692,62.1897 -31.022,64.8733 -16.409,1.8875 -26.283,-2.0125 -30.068,-11.8758 z"
       style="fill:#000000"
       inkscape:connector-curvature="0"
       sodipodi:nodetypes="ccssssssssssssccsc" />
    <path
       inkscape:connector-curvature="0"
       id="path12491"
       d="m 450.70692,800 c -13.815,-13.8159 -6.107,-61.6185 12.676,-78.6176 10.685,-9.6711 30.065,-16.0774 43.063,-14.2365 18.507,2.6213 24.334,10.6363 26.859,36.941 1.775,18.4766 -2.204,40.1354 -8.84,48.131 -12.303,14.8227 -61.524,20.0161 -73.758,7.7821 z"
       style="fill:#000000" />
  </g>
</svg>
