<?xml version="1.0" encoding="UTF-8" standalone="no"?>
<!-- Created with Inkscape (http://www.inkscape.org/) -->

<svg
   xmlns:dc="http://purl.org/dc/elements/1.1/"
   xmlns:cc="http://creativecommons.org/ns#"
   xmlns:rdf="http://www.w3.org/1999/02/22-rdf-syntax-ns#"
   xmlns:svg="http://www.w3.org/2000/svg"
   xmlns="http://www.w3.org/2000/svg"
   xmlns:sodipodi="http://sodipodi.sourceforge.net/DTD/sodipodi-0.dtd"
   xmlns:inkscape="http://www.inkscape.org/namespaces/inkscape"
   width="1000"
   height="1000"
   id="svg12952"
   version="1.1"
   inkscape:version="0.48.3.1 r9886"
   sodipodi:docname="New document 44">
  <defs
     id="defs5498" />
  <sodipodi:namedview
     inkscape:window-height="618"
     inkscape:window-width="641"
     inkscape:pageshadow="2"
     inkscape:pageopacity="0.0"
     borderopacity="1.0"
     bordercolor="#666666"
     pagecolor="#ffffff"
     id="base"
     showgrid="false"
     showguides="true"
     inkscape:guide-bbox="true"
     inkscape:zoom="0.454"
     inkscape:cx="500"
     inkscape:cy="500"
     inkscape:window-x="0"
     inkscape:window-y="31"
     inkscape:current-layer="layer1"
     inkscape:window-maximized="0">
    <sodipodi:guide
       orientation="horizontal"
       position="200"
       id="guide5596" />
  </sodipodi:namedview>
  <metadata
     id="metadata5594">
    <rdf:RDF>
      <cc:Work
         rdf:about="">
        <dc:format>image/svg+xml</dc:format>
        <dc:type
           rdf:resource="http://purl.org/dc/dcmitype/StillImage" />
        <dc:title></dc:title>
      </cc:Work>
    </rdf:RDF>
  </metadata>
  <g
     inkscape:label="Layer 1"
     inkscape:groupmode="layer"
     id="layer1">
    <path
       sodipodi:nodetypes="ssssssssssssssssss"
       inkscape:connector-curvature="0"
       style="fill:#000000;fill-opacity:1;stroke:none"
       d="m 390.6523,778.3882 c -15.294,-26.1679 -19.878,-46.1303 -23.201,-81.4211 -3.92,-41.63 2.693,-84.5229 11.451,-117.0682 20.502,-76.1926 7.985,-103.739 0.08,-118.1827 -6.672,-12.1958 -9.224,-25.1271 -7.881,-39.1715 2.222,-23.2436 4.851,-25.738 29.291,-27.7924 19.163,-1.6108 34.721,2.0189 44.366,12.6766 13.39,14.796 13.828,14.7994 47.498,0.3667 46.712,-20.0233 89.839,-18.539 136.468,4.6969 48.394,24.1155 61.96,51.4647 62.238,80.0141 0.301,30.8511 -5.875,41.8186 -24.046,46.266 -14.827,3.6292 -37.179,-3.7855 -42.781,-18.4369 -23.108,-60.4315 -103.58,-63.1217 -146.658,-4.9844 -39.839,53.7667 -42.829,133.972 -43.096,173.6341 -0.07,10.8754 6.894,28.7018 15.478,39.6152 10.295,13.0875 14.799,28.2338 13.232,44.4965 -2.141,22.2184 -4.954,25.8098 -29.076,26.9029 -20.802,0.9426 -36.053,-9.0977 -43.367,-21.6118 z"
       id="path11223" />
  </g>
</svg>
