<?xml version="1.0" encoding="UTF-8" standalone="no"?>
<!-- Created with Inkscape (http://www.inkscape.org/) -->

<svg
   xmlns:dc="http://purl.org/dc/elements/1.1/"
   xmlns:cc="http://creativecommons.org/ns#"
   xmlns:rdf="http://www.w3.org/1999/02/22-rdf-syntax-ns#"
   xmlns:svg="http://www.w3.org/2000/svg"
   xmlns="http://www.w3.org/2000/svg"
   xmlns:sodipodi="http://sodipodi.sourceforge.net/DTD/sodipodi-0.dtd"
   xmlns:inkscape="http://www.inkscape.org/namespaces/inkscape"
   width="1000"
   height="1000"
   id="svg13307"
   version="1.1"
   inkscape:version="0.48.3.1 r9886"
   sodipodi:docname="v.svg">
  <defs
     id="defs5498" />
  <sodipodi:namedview
     inkscape:window-height="618"
     inkscape:window-width="641"
     inkscape:pageshadow="2"
     inkscape:pageopacity="0.0"
     borderopacity="1.0"
     bordercolor="#666666"
     pagecolor="#ffffff"
     id="base"
     showgrid="false"
     showguides="true"
     inkscape:guide-bbox="true"
     inkscape:zoom="0.454"
     inkscape:cx="500"
     inkscape:cy="500"
     inkscape:window-x="0"
     inkscape:window-y="31"
     inkscape:current-layer="layer1"
     inkscape:window-maximized="0">
    <sodipodi:guide
       orientation="horizontal"
       position="200"
       id="guide5596" />
  </sodipodi:namedview>
  <metadata
     id="metadata5594">
    <rdf:RDF>
      <cc:Work
         rdf:about="">
        <dc:format>image/svg+xml</dc:format>
        <dc:type
           rdf:resource="http://purl.org/dc/dcmitype/StillImage" />
        <dc:title></dc:title>
      </cc:Work>
    </rdf:RDF>
  </metadata>
  <g
     inkscape:label="Layer 1"
     inkscape:groupmode="layer"
     id="layer1">
    <path
       sodipodi:nodetypes="ssssssscssssssssss"
       inkscape:connector-curvature="0"
       style="fill:#000000;fill-opacity:1;stroke:none"
       d="m 415.16222,760.6376 c -30.777,-54.0364 -19.984,-88.9041 -13.292,-158.9593 9.246,-96.7941 -30.771,-127.5335 -50.3,-150.6756 -5.864,-6.9489 -9.491,-23.7797 -8.147,-37.8059 2.272,-23.7081 4.344,-25.422 33.321,-27.5457 18.743,-1.3738 34,1.6007 38.783,7.5611 19.282,24.0284 64.405,81.9663 54.821,170.8967 -9.441,87.5982 1.959,132.5841 5.255,150.227 13.906,-10.8106 34.602,-34.5894 50.192,-77.634 17.049,-47.0734 39.262,-90.0754 77.419,-173.8984 5.861,-12.8744 26.818,-35.9997 46.572,-51.39 30.005,-23.377 40.928,-27.6134 66.36,-25.7401 28.914,2.1298 30.556,3.5887 32.699,29.0859 2.082,24.7636 -0.635,28.7171 -35.059,51.023 -31.702,20.5422 -49.378,33.5049 -66.481,77.2323 -14.855,37.9795 -23.856,61.9783 -46.117,116.5687 -33.16,81.3189 -76.46,140.4167 -124.665,140.4167 -35.007,0 -48.828,-17.3572 -61.361,-39.3624 z"
       id="path11646" />
  </g>
</svg>
