<?xml version="1.0" encoding="UTF-8" standalone="no"?>
<!-- Created with Inkscape (http://www.inkscape.org/) -->

<svg
   xmlns:dc="http://purl.org/dc/elements/1.1/"
   xmlns:cc="http://creativecommons.org/ns#"
   xmlns:rdf="http://www.w3.org/1999/02/22-rdf-syntax-ns#"
   xmlns:svg="http://www.w3.org/2000/svg"
   xmlns="http://www.w3.org/2000/svg"
   xmlns:sodipodi="http://sodipodi.sourceforge.net/DTD/sodipodi-0.dtd"
   xmlns:inkscape="http://www.inkscape.org/namespaces/inkscape"
   width="1000"
   height="1000"
   id="svg13087"
   version="1.1"
   inkscape:version="0.48.3.1 r9886"
   sodipodi:docname="New document 53">
  <defs
     id="defs5498" />
  <sodipodi:namedview
     inkscape:window-height="618"
     inkscape:window-width="641"
     inkscape:pageshadow="2"
     inkscape:pageopacity="0.0"
     borderopacity="1.0"
     bordercolor="#666666"
     pagecolor="#ffffff"
     id="base"
     showgrid="false"
     showguides="true"
     inkscape:guide-bbox="true"
     inkscape:zoom="0.454"
     inkscape:cx="500"
     inkscape:cy="500"
     inkscape:window-x="0"
     inkscape:window-y="31"
     inkscape:current-layer="layer1"
     inkscape:window-maximized="0">
    <sodipodi:guide
       orientation="horizontal"
       position="200"
       id="guide5596" />
  </sodipodi:namedview>
  <metadata
     id="metadata5594">
    <rdf:RDF>
      <cc:Work
         rdf:about="">
        <dc:format>image/svg+xml</dc:format>
        <dc:type
           rdf:resource="http://purl.org/dc/dcmitype/StillImage" />
        <dc:title></dc:title>
      </cc:Work>
    </rdf:RDF>
  </metadata>
  <g
     inkscape:label="Layer 1"
     inkscape:groupmode="layer"
     id="layer1">
    <path
       sodipodi:nodetypes="ssccssccsscscscssssccscsscsccss"
       style="fill:#000000;fill-opacity:1;stroke:none"
       d="m 294.53001,797.767 c -52.805,-22.9819 -60.928,-77.4791 -31.913,-214.101 17.308,-81.4971 15.856,-94.5561 -14.629,-131.59261 -5.671,-6.8887 -9.22,-23.9013 -7.887,-37.8059 2.161,-22.5584 5.144,-25.542 27.702,-27.7032 31.068,-2.9766 49.676,12.4164 70.641,58.4383 16.818,36.9177 15.399,84.41881 -4.988,167.03861 -5.643,22.8725 -12.557,56.0927 -15.363,73.8225 -4.988,31.509 -4.496,32.4895 21.8,43.4768 34.563,14.4413 62.381,13.7387 95.406,-2.4097 43.175,-21.112 53.221,-53.1177 60.121,-191.5541 6.707,-134.53691 10.479,-144.63961 52.683,-141.10181 27.098,2.2715 27.111,2.2893 25.096,36.2979 -1.109,18.714 -3.946,86.83011 -6.304,151.36911 -4.017,109.9341 -3.353,118.1906 10.529,130.7536 8.15,7.3753 32.747,14.2103 47.432,14.563 17.1,0.4107 26.603,-0.2549 43.993,-14.2109 24.182,-19.4065 24.305,-25.318 35.274,-120.8213 16.27,-141.65401 48.303,-203.33071 102.891,-198.10081 22.585,2.1637 25.54,5.1306 27.711,27.8232 1.6,16.7055 -2.392,30.942 -11.657,41.5865 -25.341,29.11091 -39.671,71.99041 -47.677,142.66091 -8.973,79.2086 -4.988,108.3959 16.358,119.8202 11.517,6.1636 14.405,14.3687 12.618,35.8527 -2.192,26.3499 -3.882,27.9888 -31.199,30.2381 -15.886,1.308 -33.521,-1.4715 -39.191,-6.1768 -7.817,-6.4873 -14.957,-5.5082 -29.547,4.0514 -28.133,18.4332 -147.322,13.4589 -170.02,-7.0956 -14.299,-12.9503 -17.24,-13.2491 -29.137,-2.9609 -7.277,6.2936 -24.798,15.3272 -38.934,20.0748 -35.142,11.8023 -142.774,10.4034 -171.809,-2.233 z"
       id="path11247"
       inkscape:connector-curvature="0" />
  </g>
</svg>
