<?xml version="1.0" encoding="UTF-8" standalone="no"?>
<!-- Created with Inkscape (http://www.inkscape.org/) -->

<svg
   xmlns:dc="http://purl.org/dc/elements/1.1/"
   xmlns:cc="http://creativecommons.org/ns#"
   xmlns:rdf="http://www.w3.org/1999/02/22-rdf-syntax-ns#"
   xmlns:svg="http://www.w3.org/2000/svg"
   xmlns="http://www.w3.org/2000/svg"
   xmlns:sodipodi="http://sodipodi.sourceforge.net/DTD/sodipodi-0.dtd"
   xmlns:inkscape="http://www.inkscape.org/namespaces/inkscape"
   width="1000"
   height="1000"
   id="svg13754"
   version="1.1"
   inkscape:version="0.48.3.1 r9886"
   sodipodi:docname="New document 98">
  <defs
     id="defs5498" />
  <sodipodi:namedview
     inkscape:window-height="618"
     inkscape:window-width="641"
     inkscape:pageshadow="2"
     inkscape:pageopacity="0.0"
     borderopacity="1.0"
     bordercolor="#666666"
     pagecolor="#ffffff"
     id="base"
     showgrid="false"
     showguides="true"
     inkscape:guide-bbox="true"
     inkscape:zoom="0.454"
     inkscape:cx="500"
     inkscape:cy="500"
     inkscape:window-x="0"
     inkscape:window-y="31"
     inkscape:current-layer="layer1"
     inkscape:window-maximized="0">
    <sodipodi:guide
       orientation="horizontal"
       position="200"
       id="guide5596" />
  </sodipodi:namedview>
  <metadata
     id="metadata5594">
    <rdf:RDF>
      <cc:Work
         rdf:about="">
        <dc:format>image/svg+xml</dc:format>
        <dc:type
           rdf:resource="http://purl.org/dc/dcmitype/StillImage" />
        <dc:title></dc:title>
      </cc:Work>
    </rdf:RDF>
  </metadata>
  <g
     inkscape:label="Layer 1"
     inkscape:groupmode="layer"
     id="layer1">
    <path
       sodipodi:nodetypes="csssssscsccsscsccsscscccccccssccsscsscssccssccccsscsccc"
       inkscape:connector-curvature="0"
       style="fill:#000000;fill-opacity:1;stroke:none"
       d="m 293.76085,800 c -2.87149,-2.8712 -5.22071,-18.812 -5.22071,-35.42394 0,-16.61184 -6.45796,-29.85171 -14.35262,-46.19086 -52.3449,-108.34324 -70.82649,-234.00337 -48.70158,-340.59443 9.34293,-45.00757 10.2622,-67.8385 4.55102,-112.93068 C 217.49877,165.8647 193.02561,108.43986 164.68075,105.07242 148.6486,103.1676 146.46608,99.416937 146.46608,73.765016 l 0,-29.143379 72.85869,-5.355419 c 40.07266,-2.945491 76.95682,-3.868028 81.96651,-2.050126 11.62181,4.217906 11.89162,49.064851 0.36423,60.592234 -4.80926,4.808584 -14.41621,8.743004 -21.34922,8.743004 -10.94055,0 -11.59098,3.12847 -4.92489,23.67899 12.54686,38.68047 26.90815,133.01056 27.33406,183.02927 0.21777,25.6471 -4.79481,72.25452 -11.14099,103.57204 -13.8159,68.1825 -7.62871,116.89642 23.40166,200.33788 l 20.15148,54.18593 12.69718,-49.99943 c 7.97464,-31.4028 24.80464,-68.45134 45.24905,-99.60939 40.49857,-61.72079 54.98802,-108.8099 37.43147,-121.64767 -8.10954,-5.92933 -11.19398,-16.86594 -9.5713,-33.92864 l 2.39451,-25.1789 61.9297,0 61.92969,0 2.35211,24.60547 c 1.2941,13.53299 -0.91155,27.86942 -4.9008,31.85867 -4.43924,4.43972 -4.76686,13.26511 -0.84313,22.75249 3.52576,8.52475 11.29323,45.00709 17.26072,81.0721 10.66979,64.47838 30.31731,117.03942 49.79139,133.20117 8.10184,6.72352 11.62375,-3.25413 19.49239,-55.21167 13.57019,-89.61102 38.3941,-154.37925 80.92487,-219.85215 48.82781,-75.16879 72.51662,-145.38118 72.65827,-223.32173 0.0385,-26.05924 -2.31261,-30.7944 -16.33857,-32.78632 -13.86216,-1.9687 -16.3935,-6.802148 -16.3935,-31.302776 l 0,-28.974559 35.59392,-5.967393 c 19.57718,-3.282168 54.00227,-4.997351 76.50201,-3.811755 l 40.90713,2.155639 0,29.143379 c 0,28.417606 -0.59164,31.077683 -27.32153,31.404627 l -27.32249,2.261345 -0.0578,56.025523 c -0.10022,105.0469 -18.52206,164.70484 -73.30387,248.88914 -54.77603,84.1736 -92.46671,215.70391 -83.16328,294.86551 2.8262,24.04331 5.59458,56.82963 6.15153,72.8585 L 701.55444,800 c -36.42934,0 -72.85869,0 -109.28803,0 l -3.56046,-34.02732 C 584.4151,736.47653 561.32661,709.21562 550.82256,693.05415 536.63857,671.2295 502.74345,590.37189 499.10399,572.76832 c -2.28274,-11.04154 -2.858,-28.05385 -5.4645,-37.30196 -4.2841,-15.20222 -7.62679,-12.40753 -34.86448,29.14337 -16.56983,25.27699 -35.42143,61.64611 -41.89384,80.82062 C 393.79653,697.63389 410.5822,747.53012 401.10726,800 z"
       id="path11640" />
  </g>
</svg>
