<?xml version="1.0" encoding="UTF-8" standalone="no"?>
<!-- Created with Inkscape (http://www.inkscape.org/) -->

<svg
   xmlns:dc="http://purl.org/dc/elements/1.1/"
   xmlns:cc="http://creativecommons.org/ns#"
   xmlns:rdf="http://www.w3.org/1999/02/22-rdf-syntax-ns#"
   xmlns:svg="http://www.w3.org/2000/svg"
   xmlns="http://www.w3.org/2000/svg"
   xmlns:sodipodi="http://sodipodi.sourceforge.net/DTD/sodipodi-0.dtd"
   xmlns:inkscape="http://www.inkscape.org/namespaces/inkscape"
   width="1000"
   height="1000"
   id="svg14634"
   version="1.1"
   inkscape:version="0.48.3.1 r9886"
   sodipodi:docname="New document 158">
  <defs
     id="defs5498" />
  <sodipodi:namedview
     inkscape:window-height="618"
     inkscape:window-width="641"
     inkscape:pageshadow="2"
     inkscape:pageopacity="0.0"
     borderopacity="1.0"
     bordercolor="#666666"
     pagecolor="#ffffff"
     id="base"
     showgrid="false"
     showguides="true"
     inkscape:guide-bbox="true"
     inkscape:zoom="0.454"
     inkscape:cx="500"
     inkscape:cy="500"
     inkscape:window-x="0"
     inkscape:window-y="31"
     inkscape:current-layer="layer1"
     inkscape:window-maximized="0">
    <sodipodi:guide
       orientation="horizontal"
       position="200"
       id="guide5596" />
  </sodipodi:namedview>
  <metadata
     id="metadata5594">
    <rdf:RDF>
      <cc:Work
         rdf:about="">
        <dc:format>image/svg+xml</dc:format>
        <dc:type
           rdf:resource="http://purl.org/dc/dcmitype/StillImage" />
        <dc:title></dc:title>
      </cc:Work>
    </rdf:RDF>
  </metadata>
  <g
     inkscape:label="Layer 1"
     inkscape:groupmode="layer"
     id="layer1">
    <path
       id="path12465"
       d="m 431.70929,767.0577 c 0,-18.1183 4.235,-32.9424 9.412,-32.9424 5.325,0 9.412,-26.999 9.412,-62.173 0,-34.1951 6.74,-88.1827 14.977,-119.9724 13.871,-53.5303 13.776,-62.9028 -1.294,-126.8941 -10.295,-43.7177 -32.154,-96.2516 -62.855,-140.463 -44.94,-64.7161 -73.167,-131.9598 -73.178,-155.2242 0,-9.0592 -6.36,-16.4712 -14.125,-16.4712 -9.861,0 -14.118,-9.935 -14.118,-32.9423 l 0,-32.9423 65.884,0 65.885,0 0,32.9423 c 0,23.1007 -4.245,32.9423 -14.209,32.9423 -11.238,0 -6.251,22.7508 7.279,57.4135 11.119,28.4867 39.506,60.0562 56.638,85.2862 17.133,25.2301 27.147,53.4514 36.985,82.3558 6.547,19.2369 13.152,38.483 17.208,38.483 9.254,0 119.087,-206.3449 127.344,-239.2417 3.808,-15.1752 2.181,-24.2968 -4.335,-24.2968 -5.738,0 -10.432,-14.824 -10.432,-32.9423 l 0,-32.9423 61.178,0 61.179,0 0,32.9423 c 0,21.6436 -4.43,32.9423 -12.915,32.9423 -7.922,0 -15.375,15.466 -19.277,40.0014 -3.499,22.0008 -31.517,80.1219 -93.062,184.6223 -69.229,117.5484 -95.959,174.6503 -114.621,287.9562 -7.222,43.8492 -0.713,108.618 20.181,108.618 8.157,0 12.628,11.6623 12.628,32.9424 l 0,32.9423 -65.885,0 -65.884,0 z"
       style="fill:#000000"
       inkscape:connector-curvature="0"
       sodipodi:nodetypes="sssssscsscccssssssssscccssssssscccs" />
  </g>
</svg>
