<?xml version="1.0" encoding="UTF-8" standalone="no"?>
<!-- Created with Inkscape (http://www.inkscape.org/) -->

<svg
   xmlns:dc="http://purl.org/dc/elements/1.1/"
   xmlns:cc="http://creativecommons.org/ns#"
   xmlns:rdf="http://www.w3.org/1999/02/22-rdf-syntax-ns#"
   xmlns:svg="http://www.w3.org/2000/svg"
   xmlns="http://www.w3.org/2000/svg"
   xmlns:sodipodi="http://sodipodi.sourceforge.net/DTD/sodipodi-0.dtd"
   xmlns:inkscape="http://www.inkscape.org/namespaces/inkscape"
   width="1000"
   height="1000"
   id="svg14678"
   version="1.1"
   inkscape:version="0.48.3.1 r9886"
   sodipodi:docname="New document 161">
  <defs
     id="defs5498" />
  <sodipodi:namedview
     inkscape:window-height="618"
     inkscape:window-width="641"
     inkscape:pageshadow="2"
     inkscape:pageopacity="0.0"
     borderopacity="1.0"
     bordercolor="#666666"
     pagecolor="#ffffff"
     id="base"
     showgrid="false"
     showguides="true"
     inkscape:guide-bbox="true"
     inkscape:zoom="0.454"
     inkscape:cx="500"
     inkscape:cy="500"
     inkscape:window-x="0"
     inkscape:window-y="31"
     inkscape:current-layer="layer1"
     inkscape:window-maximized="0">
    <sodipodi:guide
       orientation="horizontal"
       position="200"
       id="guide5596" />
  </sodipodi:namedview>
  <metadata
     id="metadata5594">
    <rdf:RDF>
      <cc:Work
         rdf:about="">
        <dc:format>image/svg+xml</dc:format>
        <dc:type
           rdf:resource="http://purl.org/dc/dcmitype/StillImage" />
        <dc:title></dc:title>
      </cc:Work>
    </rdf:RDF>
  </metadata>
  <g
     inkscape:label="Layer 1"
     inkscape:groupmode="layer"
     id="layer1">
    <path
       id="path12469"
       d="m 211.32978,773.123 c 0,-21.5242 4.464,-33.939 12.202,-33.939 8.074,0 13.483,-26.1854 23.303,-76.163 24.449,-124.4337 81.868,-226.9687 318.291,-380.3233 64.983,-42.1512 98.211,-119.9744 85.616,-132.5696 -3.595,-3.5947 -33.562,2.7156 -73.926,4.2451 -40.364,1.5295 -86.625,-2.1838 -117.468,-8.2518 -68.457,-13.4681 -134.344,-0.013 -141.926,28.9828 -3.516,13.4448 -13.047,18.1786 -36.599,18.1786 l -31.844,0 0,-56.4725 c 0,-55.0253 0.648,-56.4725 25.316,-56.4725 13.924,0 49.978,-5.0938 80.12,-11.3194 46.164,-9.5351 67.025,-8.8099 132.336,4.6006 69.55,14.2809 83.347,14.5118 134.005,2.2426 31.06,-7.5226 76.591,-13.8284 101.18,-14.0127 l 44.708,-0.3353 0,32.9423 c 0,23.0073 -4.258,40.9423 -14.119,40.9423 -10.715,0 -9.404,4.6925 -18.118,40.3025 -9.375,38.3092 -20.403,58.6635 -33.042,79.1131 -18.976,30.7037 -90.828,107.5691 -168.612,159.6401 -69.467,46.5033 -162.117,116.3554 -186.465,184.6679 -8.479,23.7895 -23.029,58.8083 -26.481,80.2864 l -6.277,39.0511 106.552,-0.943 c 58.604,-0.5187 130.992,4.4623 160.861,11.0688 71.295,15.7689 110.404,7.5892 110.404,-23.0912 0,-19.7623 4.367,-22.7824 32.942,-22.7824 l 32.942,0 0,51.9995 c 0,47.9939 -1.993,52.7804 -25.883,62.1386 -17.016,6.6655 -61.353,7.7449 -129.416,3.1504 -122.973,-8.301 -207.583,-8.135 -312.952,0.6146 l -77.65,6.4475 0,-33.9389 z"
       style="fill:#000000"
       inkscape:connector-curvature="0"
       sodipodi:nodetypes="sssscsscscsssssscssssssccsssscssssccs" />
  </g>
</svg>
